<ttFont>
<head>
    <!-- Most of this table will be recalculated by the compiler -->
    <tableVersion value="1.0"/>
    <fontRevision value="2.0"/>
    <checkSumAdjustment value="0x534a452"/>
    <magicNumber value="0x5f0f3cf5"/>
    <flags value="00000000 00000011"/>
    <unitsPerEm value="1024"/>
    <created value="Fri Sep  5 18:17:00 2008"/>
    <modified value="Fri Feb 21 15:07:46 2020"/>
    <xMin value="-5"/>
    <yMin value="-74"/>
    <xMax value="1029"/>
    <yMax value="842"/>
    <macStyle value="00000000 00000000"/>
    <lowestRecPPEM value="6"/>
    <fontDirectionHint value="2"/>
    <indexToLocFormat value="0"/>
    <glyphDataFormat value="0"/>
  </head>
    <TTGlyph name=".notdef" xMin="-5" yMin="-74" xMax="1029" yMax="842">
      <component glyphName="pixel.8" x="0" y="-128" flags="0x200"/>
      <component glyphName="pixel.1" x="0" y="0" flags="0x0"/>
      <component glyphName="pixel.3" x="384" y="0" flags="0x0"/>
      <component glyphName="pixel.1" x="896" y="0" flags="0x0"/>
      <component glyphName="pixel.3" x="0" y="128" flags="0x0"/>
      <component glyphName="pixel.1" x="512" y="128" flags="0x0"/>
      <component glyphName="pixel.2" x="768" y="128" flags="0x0"/>
      <component glyphName="pixel.3" x="0" y="256" flags="0x0"/>
      <component glyphName="pixel.3" x="640" y="256" flags="0x0"/>
      <component glyphName="pixel.3" x="0" y="384" flags="0x0"/>
      <component glyphName="pixel.3" x="640" y="384" flags="0x0"/>
      <component glyphName="pixel.3" x="0" y="512" flags="0x0"/>
      <component glyphName="pixel.1" x="512" y="512" flags="0x0"/>
      <component glyphName="pixel.2" x="768" y="512" flags="0x0"/>
      <component glyphName="pixel.1" x="0" y="640" flags="0x0"/>
      <component glyphName="pixel.2" x="512" y="640" flags="0x0"/>
      <component glyphName="pixel.1" x="896" y="640" flags="0x0"/>
      <component glyphName="pixel.8" x="0" y="768" flags="0x0"/>
    </TTGlyph>
    <TTGlyph name="A" xMin="123" yMin="54" xMax="901" yMax="842">
      <component glyphName="pixel.2" x="128" y="0" flags="0x0"/>
      <component glyphName="pixel.2" x="640" y="0" flags="0x0"/>
      <component glyphName="pixel.2" x="128" y="128" flags="0x0"/>
      <component glyphName="pixel.2" x="640" y="128" flags="0x0"/>
      <component glyphName="pixel.2" x="128" y="256" flags="0x0"/>
      <component glyphName="pixel.2" x="640" y="256" flags="0x0"/>
      <component glyphName="pixel.6" x="128" y="384" flags="0x0"/>
      <component glyphName="pixel.2" x="128" y="512" flags="0x0"/>
      <component glyphName="pixel.2" x="640" y="512" flags="0x0"/>
      <component glyphName="pixel.4" x="256" y="640" flags="0x0"/>
      <component glyphName="pixel.2" x="384" y="768" flags="0x0"/>
    </TTGlyph>
    <TTGlyph name="A.case" xMin="123" yMin="54" xMax="901" yMax="586">
      <component glyphName="pixel.2" x="128" y="0" flags="0x0"/>
      <component glyphName="pixel.2" x="640" y="0" flags="0x0"/>
      <component glyphName="pixel.6" x="128" y="128" flags="0x0"/>
      <component glyphName="pixel.2" x="128" y="256" flags="0x0"/>
      <component glyphName="pixel.2" x="640" y="256" flags="0x0"/>
      <component glyphName="pixel.4" x="256" y="384" flags="0x0"/>
      <component glyphName="pixel.2" x="384" y="512" flags="0x0"/>
    </TTGlyph>
    <TTGlyph name="A.case.2" xMin="123" yMin="54" xMax="901" yMax="714">
      <component glyphName="pixel.2" x="128" y="0" flags="0x0"/>
      <component glyphName="pixel.2" x="640" y="0" flags="0x0"/>
      <component glyphName="pixel.2" x="128" y="128" flags="0x0"/>
      <component glyphName="pixel.2" x="640" y="128" flags="0x0"/>
      <component glyphName="pixel.6" x="128" y="256" flags="0x0"/>
      <component glyphName="pixel.2" x="128" y="384" flags="0x0"/>
      <component glyphName="pixel.2" x="640" y="384" flags="0x0"/>
      <component glyphName="pixel.4" x="256" y="512" flags="0x0"/>
      <component glyphName="pixel.2" x="384" y="640" flags="0x0"/>
    </TTGlyph>
    <TTGlyph name="AE" xMin="123" yMin="54" xMax="1029" yMax="842">
      <component glyphName="pixel.2" x="128" y="0" flags="0x0"/>
      <component glyphName="pixel.4" x="512" y="0" flags="0x0"/>
      <component glyphName="pixel.2" x="128" y="128" flags="0x0"/>
      <component glyphName="pixel.2" x="512" y="128" flags="0x0"/>
      <component glyphName="pixel.2" x="128" y="256" flags="0x0"/>
      <component glyphName="pixel.2" x="512" y="256" flags="0x0"/>
      <component glyphName="pixel.6" x="128" y="384" flags="0x0"/>
      <component glyphName="pixel.2" x="128" y="512" flags="0x0"/>
      <component glyphName="pixel.2" x="512" y="512" flags="0x0"/>
      <component glyphName="pixel.4" x="256" y="640" flags="0x0"/>
      <component glyphName="pixel.5" x="384" y="768" flags="0x0"/>
    </TTGlyph>
    <TTGlyph name="Aacute" xMin="123" yMin="54" xMax="901" yMax="842">
      <component glyphName="A.case" x="0" y="0" flags="0x200"/>
      <component glyphName="acute" x="0" y="0" flags="0x0"/>
    </TTGlyph>
    <TTGlyph name="Acircumflex" xMin="123" yMin="54" xMax="901" yMax="842">
      <component glyphName="A.case" x="0" y="0" flags="0x200"/>
      <component glyphName="circumflex" x="0" y="0" flags="0x0"/>
    </TTGlyph>
    <TTGlyph name="Adieresis" xMin="123" yMin="54" xMax="901" yMax="842">
      <component glyphName="A.case.2" x="0" y="0" flags="0x200"/>
      <component glyphName="dieresis" x="0" y="0" flags="0x0"/>
    </TTGlyph>
    <TTGlyph name="Agrave" xMin="123" yMin="54" xMax="901" yMax="842">
      <component glyphName="A.case" x="0" y="0" flags="0x200"/>
      <component glyphName="grave" x="0" y="0" flags="0x0"/>
    </TTGlyph>
    <TTGlyph name="Aring" xMin="123" yMin="54" xMax="901" yMax="842">
      <component glyphName="A.case" x="0" y="0" flags="0x200"/>
      <component glyphName="ring" x="0" y="0" flags="0x0"/>
    </TTGlyph>
    <TTGlyph name="Atilde" xMin="123" yMin="54" xMax="1029" yMax="842">
      <component glyphName="A.case" x="0" y="0" flags="0x200"/>
      <component glyphName="tilde" x="0" y="0" flags="0x0"/>
    </TTGlyph>
    <TTGlyph name="B" xMin="123" yMin="54" xMax="901" yMax="842">
      <component glyphName="pixel.5" x="128" y="0" flags="0x0"/>
      <component glyphName="pixel.2" x="128" y="128" flags="0x0"/>
      <component glyphName="pixel.2" x="640" y="128" flags="0x0"/>
      <component glyphName="pixel.2" x="128" y="256" flags="0x0"/>
      <component glyphName="pixel.2" x="640" y="256" flags="0x0"/>
      <component glyphName="pixel.5" x="128" y="384" flags="0x0"/>
      <component glyphName="pixel.2" x="128" y="512" flags="0x0"/>
      <component glyphName="pixel.2" x="640" y="512" flags="0x0"/>
      <component glyphName="pixel.2" x="128" y="640" flags="0x0"/>
      <component glyphName="pixel.2" x="640" y="640" flags="0x0"/>
      <component glyphName="pixel.5" x="128" y="768" flags="0x0"/>
    </TTGlyph>
    <TTGlyph name="C" xMin="123" yMin="54" xMax="901" yMax="842">
      <component glyphName="pixel.4" x="256" y="0" flags="0x0"/>
      <component glyphName="pixel.2" x="128" y="128" flags="0x0"/>
      <component glyphName="pixel.2" x="640" y="128" flags="0x0"/>
      <component glyphName="pixel.2" x="128" y="256" flags="0x0"/>
      <component glyphName="pixel.2" x="128" y="384" flags="0x0"/>
      <component glyphName="pixel.2" x="128" y="512" flags="0x0"/>
      <component glyphName="pixel.2" x="128" y="640" flags="0x0"/>
      <component glyphName="pixel.2" x="640" y="640" flags="0x0"/>
      <component glyphName="pixel.4" x="256" y="768" flags="0x0"/>
    </TTGlyph>
    <TTGlyph name="Ccedilla" xMin="123" yMin="-74" xMax="901" yMax="842">
      <component glyphName="pixel.2" x="256" y="-128" flags="0x0"/>
      <component glyphName="pixel.2" x="384" y="0" flags="0x0"/>
      <component glyphName="pixel.4" x="256" y="128" flags="0x0"/>
      <component glyphName="pixel.2" x="128" y="256" flags="0x0"/>
      <component glyphName="pixel.2" x="640" y="256" flags="0x0"/>
      <component glyphName="pixel.2" x="128" y="384" flags="0x0"/>
      <component glyphName="pixel.2" x="128" y="512" flags="0x0"/>
      <component glyphName="pixel.2" x="128" y="640" flags="0x0"/>
      <component glyphName="pixel.2" x="640" y="640" flags="0x0"/>
      <component glyphName="pixel.4" x="256" y="768" flags="0x0"/>
    </TTGlyph>
    <TTGlyph name="D" xMin="123" yMin="54" xMax="901" yMax="842">
      <component glyphName="pixel.4" x="128" y="0" flags="0x0"/>
      <component glyphName="pixel.2" x="128" y="128" flags="0x0"/>
      <component glyphName="pixel.2" x="512" y="128" flags="0x0"/>
      <component glyphName="pixel.2" x="128" y="256" flags="0x0"/>
      <component glyphName="pixel.2" x="640" y="256" flags="0x0"/>
      <component glyphName="pixel.2" x="128" y="384" flags="0x0"/>
      <component glyphName="pixel.2" x="640" y="384" flags="0x0"/>
      <component glyphName="pixel.2" x="128" y="512" flags="0x0"/>
      <component glyphName="pixel.2" x="640" y="512" flags="0x0"/>
      <component glyphName="pixel.2" x="128" y="640" flags="0x0"/>
      <component glyphName="pixel.2" x="512" y="640" flags="0x0"/>
      <component glyphName="pixel.4" x="128" y="768" flags="0x0"/>
    </TTGlyph>
    <TTGlyph name="E" xMin="123" yMin="54" xMax="901" yMax="842">
      <component glyphName="pixel.6" x="128" y="0" flags="0x0"/>
      <component glyphName="pixel.2" x="128" y="128" flags="0x0"/>
      <component glyphName="pixel.2" x="128" y="256" flags="0x0"/>
      <component glyphName="pixel.4" x="128" y="384" flags="0x0"/>
      <component glyphName="pixel.2" x="128" y="512" flags="0x0"/>
      <component glyphName="pixel.2" x="128" y="640" flags="0x0"/>
      <component glyphName="pixel.6" x="128" y="768" flags="0x0"/>
    </TTGlyph>
    <TTGlyph name="E.case" xMin="123" yMin="54" xMax="901" yMax="586">
      <component glyphName="pixel.6" x="128" y="0" flags="0x0"/>
      <component glyphName="pixel.2" x="128" y="128" flags="0x0"/>
      <component glyphName="pixel.4" x="128" y="256" flags="0x0"/>
      <component glyphName="pixel.2" x="128" y="384" flags="0x0"/>
      <component glyphName="pixel.6" x="128" y="512" flags="0x0"/>
    </TTGlyph>
    <TTGlyph name="Eacute" xMin="123" yMin="54" xMax="901" yMax="842">
      <component glyphName="E.case" x="0" y="0" flags="0x200"/>
      <component glyphName="acute" x="0" y="0" flags="0x0"/>
    </TTGlyph>
    <TTGlyph name="Ecircumflex" xMin="123" yMin="54" xMax="901" yMax="842">
      <component glyphName="E.case" x="0" y="0" flags="0x200"/>
      <component glyphName="circumflex" x="0" y="0" flags="0x0"/>
    </TTGlyph>
    <TTGlyph name="Edieresis" xMin="123" yMin="54" xMax="901" yMax="842">
      <component glyphName="E.case" x="0" y="0" flags="0x200"/>
      <component glyphName="dieresis" x="0" y="0" flags="0x0"/>
    </TTGlyph>
    <TTGlyph name="Egrave" xMin="123" yMin="54" xMax="901" yMax="842">
      <component glyphName="E.case" x="0" y="0" flags="0x200"/>
      <component glyphName="grave" x="0" y="0" flags="0x0"/>
    </TTGlyph>
    <TTGlyph name="Eth" xMin="-5" yMin="54" xMax="901" yMax="842">
      <component glyphName="pixel.4" x="128" y="0" flags="0x200"/>
      <component glyphName="pixel.2" x="128" y="128" flags="0x0"/>
      <component glyphName="pixel.2" x="512" y="128" flags="0x0"/>
      <component glyphName="pixel.2" x="128" y="256" flags="0x0"/>
      <component glyphName="pixel.2" x="640" y="256" flags="0x0"/>
      <component glyphName="pixel.4" x="0" y="384" flags="0x0"/>
      <component glyphName="pixel.2" x="640" y="384" flags="0x0"/>
      <component glyphName="pixel.2" x="128" y="512" flags="0x0"/>
      <component glyphName="pixel.2" x="640" y="512" flags="0x0"/>
      <component glyphName="pixel.2" x="128" y="640" flags="0x0"/>
      <component glyphName="pixel.2" x="512" y="640" flags="0x0"/>
      <component glyphName="pixel.4" x="128" y="768" flags="0x0"/>
    </TTGlyph>
    <TTGlyph name="Euro" xMin="123" yMin="54" xMax="901" yMax="842">
      <component glyphName="pixel.4" x="256" y="0" flags="0x0"/>
      <component glyphName="pixel.2" x="128" y="128" flags="0x0"/>
      <component glyphName="pixel.2" x="640" y="128" flags="0x0"/>
      <component glyphName="pixel.3" x="128" y="256" flags="0x0"/>
      <component glyphName="pixel.2" x="128" y="384" flags="0x0"/>
      <component glyphName="pixel.3" x="128" y="512" flags="0x0"/>
      <component glyphName="pixel.2" x="128" y="640" flags="0x0"/>
      <component glyphName="pixel.2" x="640" y="640" flags="0x0"/>
      <component glyphName="pixel.4" x="256" y="768" flags="0x0"/>
    </TTGlyph>
    <TTGlyph name="F" xMin="123" yMin="54" xMax="901" yMax="842">
      <component glyphName="pixel.2" x="128" y="0" flags="0x0"/>
      <component glyphName="pixel.2" x="128" y="128" flags="0x0"/>
      <component glyphName="pixel.2" x="128" y="256" flags="0x0"/>
      <component glyphName="pixel.4" x="128" y="384" flags="0x0"/>
      <component glyphName="pixel.2" x="128" y="512" flags="0x0"/>
      <component glyphName="pixel.2" x="128" y="640" flags="0x0"/>
      <component glyphName="pixel.6" x="128" y="768" flags="0x0"/>
    </TTGlyph>
    <TTGlyph name="G" xMin="123" yMin="54" xMax="901" yMax="842">
      <component glyphName="pixel.4" x="256" y="0" flags="0x0"/>
      <component glyphName="pixel.2" x="128" y="128" flags="0x0"/>
      <component glyphName="pixel.2" x="640" y="128" flags="0x0"/>
      <component glyphName="pixel.2" x="128" y="256" flags="0x0"/>
      <component glyphName="pixel.2" x="640" y="256" flags="0x0"/>
      <component glyphName="pixel.2" x="128" y="384" flags="0x0"/>
      <component glyphName="pixel.3" x="512" y="384" flags="0x0"/>
      <component glyphName="pixel.2" x="128" y="512" flags="0x0"/>
      <component glyphName="pixel.2" x="128" y="640" flags="0x0"/>
      <component glyphName="pixel.2" x="640" y="640" flags="0x0"/>
      <component glyphName="pixel.4" x="256" y="768" flags="0x0"/>
    </TTGlyph>
    <TTGlyph name="H" xMin="123" yMin="54" xMax="901" yMax="842">
      <component glyphName="pixel.2" x="128" y="0" flags="0x0"/>
      <component glyphName="pixel.2" x="640" y="0" flags="0x0"/>
      <component glyphName="pixel.2" x="128" y="128" flags="0x0"/>
      <component glyphName="pixel.2" x="640" y="128" flags="0x0"/>
      <component glyphName="pixel.2" x="128" y="256" flags="0x0"/>
      <component glyphName="pixel.2" x="640" y="256" flags="0x0"/>
      <component glyphName="pixel.6" x="128" y="384" flags="0x0"/>
      <component glyphName="pixel.2" x="128" y="512" flags="0x0"/>
      <component glyphName="pixel.2" x="640" y="512" flags="0x0"/>
      <component glyphName="pixel.2" x="128" y="640" flags="0x0"/>
      <component glyphName="pixel.2" x="640" y="640" flags="0x0"/>
      <component glyphName="pixel.2" x="128" y="768" flags="0x0"/>
      <component glyphName="pixel.2" x="640" y="768" flags="0x0"/>
    </TTGlyph>
    <TTGlyph name="I" xMin="251" yMin="54" xMax="773" yMax="842">
      <component glyphName="pixel.4" x="256" y="0" flags="0x0"/>
      <component glyphName="pixel.2" x="384" y="128" flags="0x0"/>
      <component glyphName="pixel.2" x="384" y="256" flags="0x0"/>
      <component glyphName="pixel.2" x="384" y="384" flags="0x0"/>
      <component glyphName="pixel.2" x="384" y="512" flags="0x0"/>
      <component glyphName="pixel.2" x="384" y="640" flags="0x0"/>
      <component glyphName="pixel.4" x="256" y="768" flags="0x0"/>
    </TTGlyph>
    <TTGlyph name="I.case" xMin="251" yMin="54" xMax="773" yMax="458">
      <component glyphName="pixel.4" x="256" y="0" flags="0x0"/>
      <component glyphName="pixel.2" x="384" y="128" flags="0x0"/>
      <component glyphName="pixel.2" x="384" y="256" flags="0x0"/>
      <component glyphName="pixel.4" x="256" y="384" flags="0x0"/>
    </TTGlyph>
    <TTGlyph name="I.case.2" xMin="251" yMin="54" xMax="773" yMax="586">
      <component glyphName="pixel.4" x="256" y="0" flags="0x0"/>
      <component glyphName="pixel.2" x="384" y="128" flags="0x0"/>
      <component glyphName="pixel.2" x="384" y="256" flags="0x0"/>
      <component glyphName="pixel.2" x="384" y="384" flags="0x0"/>
      <component glyphName="pixel.4" x="256" y="512" flags="0x0"/>
    </TTGlyph>
    <TTGlyph name="Iacute" xMin="251" yMin="54" xMax="773" yMax="842">
      <component glyphName="I.case" x="0" y="0" flags="0x200"/>
      <component glyphName="acute" x="0" y="0" flags="0x0"/>
    </TTGlyph>
    <TTGlyph name="Icircumflex" xMin="123" yMin="54" xMax="901" yMax="842">
      <component glyphName="I.case" x="0" y="0" flags="0x0"/>
      <component glyphName="circumflex" x="0" y="0" flags="0x200"/>
    </TTGlyph>
    <TTGlyph name="Idieresis" xMin="123" yMin="54" xMax="901" yMax="842">
      <component glyphName="I.case.2" x="0" y="0" flags="0x0"/>
      <component glyphName="dieresis" x="0" y="0" flags="0x200"/>
    </TTGlyph>
    <TTGlyph name="Igrave" xMin="251" yMin="54" xMax="773" yMax="842">
      <component glyphName="I.case" x="0" y="0" flags="0x200"/>
      <component glyphName="grave" x="0" y="0" flags="0x0"/>
    </TTGlyph>
    <TTGlyph name="J" xMin="123" yMin="54" xMax="901" yMax="842">
      <component glyphName="pixel.3" x="256" y="0" flags="0x0"/>
      <component glyphName="pixel.2" x="128" y="128" flags="0x0"/>
      <component glyphName="pixel.2" x="512" y="128" flags="0x0"/>
      <component glyphName="pixel.2" x="512" y="256" flags="0x0"/>
      <component glyphName="pixel.2" x="512" y="384" flags="0x0"/>
      <component glyphName="pixel.2" x="512" y="512" flags="0x0"/>
      <component glyphName="pixel.2" x="512" y="640" flags="0x0"/>
      <component glyphName="pixel.4" x="384" y="768" flags="0x0"/>
    </TTGlyph>
    <TTGlyph name="K" xMin="123" yMin="54" xMax="901" yMax="842">
      <component glyphName="pixel.2" x="128" y="0" flags="0x0"/>
      <component glyphName="pixel.2" x="640" y="0" flags="0x0"/>
      <component glyphName="pixel.2" x="128" y="128" flags="0x0"/>
      <component glyphName="pixel.2" x="512" y="128" flags="0x0"/>
      <component glyphName="pixel.4" x="128" y="256" flags="0x0"/>
      <component glyphName="pixel.3" x="128" y="384" flags="0x0"/>
      <component glyphName="pixel.4" x="128" y="512" flags="0x0"/>
      <component glyphName="pixel.2" x="128" y="640" flags="0x0"/>
      <component glyphName="pixel.2" x="512" y="640" flags="0x0"/>
      <component glyphName="pixel.2" x="128" y="768" flags="0x0"/>
      <component glyphName="pixel.2" x="640" y="768" flags="0x0"/>
    </TTGlyph>
    <TTGlyph name="L" xMin="123" yMin="54" xMax="901" yMax="842">
      <component glyphName="pixel.6" x="128" y="0" flags="0x0"/>
      <component glyphName="pixel.2" x="128" y="128" flags="0x0"/>
      <component glyphName="pixel.2" x="128" y="256" flags="0x0"/>
      <component glyphName="pixel.2" x="128" y="384" flags="0x0"/>
      <component glyphName="pixel.2" x="128" y="512" flags="0x0"/>
      <component glyphName="pixel.2" x="128" y="640" flags="0x0"/>
      <component glyphName="pixel.2" x="128" y="768" flags="0x0"/>
    </TTGlyph>
    <TTGlyph name="M" xMin="123" yMin="54" xMax="1029" yMax="842">
      <component glyphName="pixel.2" x="128" y="0" flags="0x0"/>
      <component glyphName="pixel.2" x="768" y="0" flags="0x0"/>
      <component glyphName="pixel.2" x="128" y="128" flags="0x0"/>
      <component glyphName="pixel.2" x="768" y="128" flags="0x0"/>
      <component glyphName="pixel.2" x="128" y="256" flags="0x0"/>
      <component glyphName="pixel.2" x="768" y="256" flags="0x0"/>
      <component glyphName="pixel.2" x="128" y="384" flags="0x0"/>
      <component glyphName="pixel.1" x="512" y="384" flags="0x0"/>
      <component glyphName="pixel.2" x="768" y="384" flags="0x0"/>
      <component glyphName="pixel.7" x="128" y="512" flags="0x0"/>
      <component glyphName="pixel.3" x="128" y="640" flags="0x0"/>
      <component glyphName="pixel.3" x="640" y="640" flags="0x0"/>
      <component glyphName="pixel.2" x="128" y="768" flags="0x0"/>
      <component glyphName="pixel.2" x="768" y="768" flags="0x0"/>
    </TTGlyph>
    <TTGlyph name="N" xMin="123" yMin="54" xMax="901" yMax="842">
      <component glyphName="pixel.2" x="128" y="0" flags="0x0"/>
      <component glyphName="pixel.2" x="640" y="0" flags="0x0"/>
      <component glyphName="pixel.2" x="128" y="128" flags="0x0"/>
      <component glyphName="pixel.2" x="640" y="128" flags="0x0"/>
      <component glyphName="pixel.2" x="128" y="256" flags="0x0"/>
      <component glyphName="pixel.2" x="640" y="256" flags="0x0"/>
      <component glyphName="pixel.2" x="128" y="384" flags="0x0"/>
      <component glyphName="pixel.3" x="512" y="384" flags="0x0"/>
      <component glyphName="pixel.6" x="128" y="512" flags="0x0"/>
      <component glyphName="pixel.3" x="128" y="640" flags="0x0"/>
      <component glyphName="pixel.2" x="640" y="640" flags="0x0"/>
      <component glyphName="pixel.2" x="128" y="768" flags="0x0"/>
      <component glyphName="pixel.2" x="640" y="768" flags="0x0"/>
    </TTGlyph>
    <TTGlyph name="N.case" xMin="123" yMin="54" xMax="901" yMax="586">
      <component glyphName="pixel.2" x="128" y="0" flags="0x0"/>
      <component glyphName="pixel.2" x="640" y="0" flags="0x0"/>
      <component glyphName="pixel.2" x="128" y="128" flags="0x0"/>
      <component glyphName="pixel.3" x="512" y="128" flags="0x0"/>
      <component glyphName="pixel.6" x="128" y="256" flags="0x0"/>
      <component glyphName="pixel.3" x="128" y="384" flags="0x0"/>
      <component glyphName="pixel.2" x="640" y="384" flags="0x0"/>
      <component glyphName="pixel.2" x="128" y="512" flags="0x0"/>
      <component glyphName="pixel.2" x="640" y="512" flags="0x0"/>
    </TTGlyph>
    <TTGlyph name="Ntilde" xMin="123" yMin="54" xMax="1029" yMax="842">
      <component glyphName="N.case" x="0" y="0" flags="0x200"/>
      <component glyphName="tilde" x="0" y="0" flags="0x0"/>
    </TTGlyph>
    <TTGlyph name="O" xMin="123" yMin="54" xMax="901" yMax="842">
      <component glyphName="pixel.4" x="256" y="0" flags="0x0"/>
      <component glyphName="pixel.2" x="128" y="128" flags="0x0"/>
      <component glyphName="pixel.2" x="640" y="128" flags="0x0"/>
      <component glyphName="pixel.2" x="128" y="256" flags="0x0"/>
      <component glyphName="pixel.2" x="640" y="256" flags="0x0"/>
      <component glyphName="pixel.2" x="128" y="384" flags="0x0"/>
      <component glyphName="pixel.2" x="640" y="384" flags="0x0"/>
      <component glyphName="pixel.2" x="128" y="512" flags="0x0"/>
      <component glyphName="pixel.2" x="640" y="512" flags="0x0"/>
      <component glyphName="pixel.2" x="128" y="640" flags="0x0"/>
      <component glyphName="pixel.2" x="640" y="640" flags="0x0"/>
      <component glyphName="pixel.4" x="256" y="768" flags="0x0"/>
    </TTGlyph>
    <TTGlyph name="O.case" xMin="123" yMin="54" xMax="901" yMax="714">
      <component glyphName="pixel.4" x="256" y="0" flags="0x0"/>
      <component glyphName="pixel.2" x="128" y="128" flags="0x0"/>
      <component glyphName="pixel.2" x="640" y="128" flags="0x0"/>
      <component glyphName="pixel.2" x="128" y="256" flags="0x0"/>
      <component glyphName="pixel.2" x="640" y="256" flags="0x0"/>
      <component glyphName="pixel.2" x="128" y="384" flags="0x0"/>
      <component glyphName="pixel.2" x="640" y="384" flags="0x0"/>
      <component glyphName="pixel.2" x="128" y="512" flags="0x0"/>
      <component glyphName="pixel.2" x="640" y="512" flags="0x0"/>
      <component glyphName="pixel.4" x="256" y="640" flags="0x0"/>
    </TTGlyph>
    <TTGlyph name="OE" xMin="123" yMin="54" xMax="1029" yMax="842">
      <component glyphName="pixel.6" x="256" y="0" flags="0x0"/>
      <component glyphName="pixel.2" x="128" y="128" flags="0x0"/>
      <component glyphName="pixel.2" x="512" y="128" flags="0x0"/>
      <component glyphName="pixel.2" x="128" y="256" flags="0x0"/>
      <component glyphName="pixel.2" x="512" y="256" flags="0x0"/>
      <component glyphName="pixel.2" x="128" y="384" flags="0x0"/>
      <component glyphName="pixel.3" x="512" y="384" flags="0x0"/>
      <component glyphName="pixel.2" x="128" y="512" flags="0x0"/>
      <component glyphName="pixel.2" x="512" y="512" flags="0x0"/>
      <component glyphName="pixel.2" x="128" y="640" flags="0x0"/>
      <component glyphName="pixel.2" x="512" y="640" flags="0x0"/>
      <component glyphName="pixel.6" x="256" y="768" flags="0x0"/>
    </TTGlyph>
    <TTGlyph name="Oacute" xMin="123" yMin="54" xMax="901" yMax="842">
      <component glyphName="oacute" x="0" y="0" flags="0x200"/>
    </TTGlyph>
    <TTGlyph name="Ocircumflex" xMin="123" yMin="54" xMax="901" yMax="842">
      <component glyphName="ocircumflex" x="0" y="0" flags="0x200"/>
    </TTGlyph>
    <TTGlyph name="Odieresis" xMin="123" yMin="54" xMax="901" yMax="842">
      <component glyphName="O.case" x="0" y="0" flags="0x200"/>
      <component glyphName="dieresis" x="0" y="0" flags="0x0"/>
    </TTGlyph>
    <TTGlyph name="Ograve" xMin="123" yMin="54" xMax="901" yMax="842">
      <component glyphName="ograve" x="0" y="0" flags="0x200"/>
    </TTGlyph>
    <TTGlyph name="Oslash" xMin="123" yMin="54" xMax="901" yMax="842">
      <component glyphName="pixel.5" x="128" y="0" flags="0x0"/>
      <component glyphName="pixel.2" x="128" y="128" flags="0x0"/>
      <component glyphName="pixel.2" x="640" y="128" flags="0x0"/>
      <component glyphName="pixel.3" x="128" y="256" flags="0x0"/>
      <component glyphName="pixel.2" x="640" y="256" flags="0x0"/>
      <component glyphName="pixel.6" x="128" y="384" flags="0x0"/>
      <component glyphName="pixel.2" x="128" y="512" flags="0x0"/>
      <component glyphName="pixel.3" x="512" y="512" flags="0x0"/>
      <component glyphName="pixel.2" x="128" y="640" flags="0x0"/>
      <component glyphName="pixel.2" x="640" y="640" flags="0x0"/>
      <component glyphName="pixel.5" x="256" y="768" flags="0x0"/>
    </TTGlyph>
    <TTGlyph name="Otilde" xMin="123" yMin="54" xMax="1029" yMax="842">
      <component glyphName="otilde" x="0" y="0" flags="0x200"/>
    </TTGlyph>
    <TTGlyph name="P" xMin="123" yMin="54" xMax="901" yMax="842">
      <component glyphName="pixel.2" x="128" y="0" flags="0x0"/>
      <component glyphName="pixel.2" x="128" y="128" flags="0x0"/>
      <component glyphName="pixel.2" x="128" y="256" flags="0x0"/>
      <component glyphName="pixel.5" x="128" y="384" flags="0x0"/>
      <component glyphName="pixel.2" x="128" y="512" flags="0x0"/>
      <component glyphName="pixel.2" x="640" y="512" flags="0x0"/>
      <component glyphName="pixel.2" x="128" y="640" flags="0x0"/>
      <component glyphName="pixel.2" x="640" y="640" flags="0x0"/>
      <component glyphName="pixel.5" x="128" y="768" flags="0x0"/>
    </TTGlyph>
    <TTGlyph name="Q" xMin="123" yMin="54" xMax="901" yMax="842">
      <component glyphName="pixel.3" x="512" y="0" flags="0x0"/>
      <component glyphName="pixel.4" x="256" y="128" flags="0x0"/>
      <component glyphName="pixel.2" x="128" y="256" flags="0x0"/>
      <component glyphName="pixel.2" x="640" y="256" flags="0x0"/>
      <component glyphName="pixel.2" x="128" y="384" flags="0x0"/>
      <component glyphName="pixel.2" x="640" y="384" flags="0x0"/>
      <component glyphName="pixel.2" x="128" y="512" flags="0x0"/>
      <component glyphName="pixel.2" x="640" y="512" flags="0x0"/>
      <component glyphName="pixel.2" x="128" y="640" flags="0x0"/>
      <component glyphName="pixel.2" x="640" y="640" flags="0x0"/>
      <component glyphName="pixel.4" x="256" y="768" flags="0x0"/>
    </TTGlyph>
    <TTGlyph name="R" xMin="123" yMin="54" xMax="901" yMax="842">
      <component glyphName="pixel.2" x="128" y="0" flags="0x0"/>
      <component glyphName="pixel.2" x="640" y="0" flags="0x0"/>
      <component glyphName="pixel.2" x="128" y="128" flags="0x0"/>
      <component glyphName="pixel.2" x="512" y="128" flags="0x0"/>
      <component glyphName="pixel.4" x="128" y="256" flags="0x0"/>
      <component glyphName="pixel.5" x="128" y="384" flags="0x0"/>
      <component glyphName="pixel.2" x="128" y="512" flags="0x0"/>
      <component glyphName="pixel.2" x="640" y="512" flags="0x0"/>
      <component glyphName="pixel.2" x="128" y="640" flags="0x0"/>
      <component glyphName="pixel.2" x="640" y="640" flags="0x0"/>
      <component glyphName="pixel.5" x="128" y="768" flags="0x0"/>
    </TTGlyph>
    <TTGlyph name="S" xMin="123" yMin="54" xMax="901" yMax="842">
      <component glyphName="pixel.4" x="256" y="0" flags="0x0"/>
      <component glyphName="pixel.2" x="128" y="128" flags="0x0"/>
      <component glyphName="pixel.2" x="640" y="128" flags="0x0"/>
      <component glyphName="pixel.2" x="640" y="256" flags="0x0"/>
      <component glyphName="pixel.4" x="256" y="384" flags="0x0"/>
      <component glyphName="pixel.2" x="128" y="512" flags="0x0"/>
      <component glyphName="pixel.2" x="128" y="640" flags="0x0"/>
      <component glyphName="pixel.2" x="640" y="640" flags="0x0"/>
      <component glyphName="pixel.4" x="256" y="768" flags="0x0"/>
    </TTGlyph>
    <TTGlyph name="T" xMin="123" yMin="54" xMax="901" yMax="842">
      <component glyphName="pixel.2" x="384" y="0" flags="0x0"/>
      <component glyphName="pixel.2" x="384" y="128" flags="0x0"/>
      <component glyphName="pixel.2" x="384" y="256" flags="0x0"/>
      <component glyphName="pixel.2" x="384" y="384" flags="0x0"/>
      <component glyphName="pixel.2" x="384" y="512" flags="0x0"/>
      <component glyphName="pixel.2" x="384" y="640" flags="0x0"/>
      <component glyphName="pixel.6" x="128" y="768" flags="0x0"/>
    </TTGlyph>
    <TTGlyph name="Thorn" xMin="123" yMin="54" xMax="901" yMax="842">
      <component glyphName="pixel.2" x="128" y="0" flags="0x0"/>
      <component glyphName="pixel.5" x="128" y="128" flags="0x0"/>
      <component glyphName="pixel.2" x="128" y="256" flags="0x0"/>
      <component glyphName="pixel.2" x="640" y="256" flags="0x0"/>
      <component glyphName="pixel.2" x="128" y="384" flags="0x0"/>
      <component glyphName="pixel.2" x="640" y="384" flags="0x0"/>
      <component glyphName="pixel.2" x="128" y="512" flags="0x0"/>
      <component glyphName="pixel.2" x="640" y="512" flags="0x0"/>
      <component glyphName="pixel.5" x="128" y="640" flags="0x0"/>
      <component glyphName="pixel.2" x="128" y="768" flags="0x0"/>
    </TTGlyph>
    <TTGlyph name="U" xMin="123" yMin="54" xMax="901" yMax="842">
      <component glyphName="pixel.4" x="256" y="0" flags="0x0"/>
      <component glyphName="pixel.2" x="128" y="128" flags="0x0"/>
      <component glyphName="pixel.2" x="640" y="128" flags="0x0"/>
      <component glyphName="pixel.2" x="128" y="256" flags="0x0"/>
      <component glyphName="pixel.2" x="640" y="256" flags="0x0"/>
      <component glyphName="pixel.2" x="128" y="384" flags="0x0"/>
      <component glyphName="pixel.2" x="640" y="384" flags="0x0"/>
      <component glyphName="pixel.2" x="128" y="512" flags="0x0"/>
      <component glyphName="pixel.2" x="640" y="512" flags="0x0"/>
      <component glyphName="pixel.2" x="128" y="640" flags="0x0"/>
      <component glyphName="pixel.2" x="640" y="640" flags="0x0"/>
      <component glyphName="pixel.2" x="128" y="768" flags="0x0"/>
      <component glyphName="pixel.2" x="640" y="768" flags="0x0"/>
    </TTGlyph>
    <TTGlyph name="U.case" xMin="123" yMin="54" xMax="901" yMax="458">
      <component glyphName="pixel.4" x="256" y="0" flags="0x0"/>
      <component glyphName="pixel.2" x="128" y="128" flags="0x0"/>
      <component glyphName="pixel.2" x="640" y="128" flags="0x0"/>
      <component glyphName="pixel.2" x="128" y="256" flags="0x0"/>
      <component glyphName="pixel.2" x="640" y="256" flags="0x0"/>
      <component glyphName="pixel.2" x="128" y="384" flags="0x0"/>
      <component glyphName="pixel.2" x="640" y="384" flags="0x0"/>
    </TTGlyph>
    <TTGlyph name="U.case.2" xMin="123" yMin="54" xMax="901" yMax="586">
      <component glyphName="pixel.4" x="256" y="0" flags="0x0"/>
      <component glyphName="pixel.2" x="128" y="128" flags="0x0"/>
      <component glyphName="pixel.2" x="640" y="128" flags="0x0"/>
      <component glyphName="pixel.2" x="128" y="256" flags="0x0"/>
      <component glyphName="pixel.2" x="640" y="256" flags="0x0"/>
      <component glyphName="pixel.2" x="128" y="384" flags="0x0"/>
      <component glyphName="pixel.2" x="640" y="384" flags="0x0"/>
      <component glyphName="pixel.2" x="128" y="512" flags="0x0"/>
      <component glyphName="pixel.2" x="640" y="512" flags="0x0"/>
    </TTGlyph>
    <TTGlyph name="Uacute" xMin="123" yMin="54" xMax="901" yMax="842">
      <component glyphName="U.case.2" x="0" y="0" flags="0x200"/>
      <component glyphName="acute" x="0" y="0" flags="0x0"/>
    </TTGlyph>
    <TTGlyph name="Ucircumflex" xMin="123" yMin="54" xMax="901" yMax="842">
      <component glyphName="U.case" x="0" y="0" flags="0x200"/>
      <component glyphName="circumflex" x="0" y="0" flags="0x0"/>
    </TTGlyph>
    <TTGlyph name="Udieresis" xMin="123" yMin="54" xMax="901" yMax="842">
      <component glyphName="U.case.2" x="0" y="0" flags="0x200"/>
      <component glyphName="dieresis" x="0" y="0" flags="0x0"/>
    </TTGlyph>
    <TTGlyph name="Ugrave" xMin="123" yMin="54" xMax="901" yMax="842">
      <component glyphName="U.case.2" x="0" y="0" flags="0x200"/>
      <component glyphName="grave" x="0" y="0" flags="0x0"/>
    </TTGlyph>
    <TTGlyph name="V" xMin="123" yMin="54" xMax="901" yMax="842">
      <component glyphName="pixel.2" x="384" y="0" flags="0x0"/>
      <component glyphName="pixel.4" x="256" y="128" flags="0x0"/>
      <component glyphName="pixel.2" x="128" y="256" flags="0x0"/>
      <component glyphName="pixel.2" x="640" y="256" flags="0x0"/>
      <component glyphName="pixel.2" x="128" y="384" flags="0x0"/>
      <component glyphName="pixel.2" x="640" y="384" flags="0x0"/>
      <component glyphName="pixel.2" x="128" y="512" flags="0x0"/>
      <component glyphName="pixel.2" x="640" y="512" flags="0x0"/>
      <component glyphName="pixel.2" x="128" y="640" flags="0x0"/>
      <component glyphName="pixel.2" x="640" y="640" flags="0x0"/>
      <component glyphName="pixel.2" x="128" y="768" flags="0x0"/>
      <component glyphName="pixel.2" x="640" y="768" flags="0x0"/>
    </TTGlyph>
    <TTGlyph name="W" xMin="123" yMin="54" xMax="1029" yMax="842">
      <component glyphName="pixel.2" x="128" y="0" flags="0x0"/>
      <component glyphName="pixel.2" x="768" y="0" flags="0x0"/>
      <component glyphName="pixel.3" x="128" y="128" flags="0x0"/>
      <component glyphName="pixel.3" x="640" y="128" flags="0x0"/>
      <component glyphName="pixel.7" x="128" y="256" flags="0x0"/>
      <component glyphName="pixel.2" x="128" y="384" flags="0x0"/>
      <component glyphName="pixel.1" x="512" y="384" flags="0x0"/>
      <component glyphName="pixel.2" x="768" y="384" flags="0x0"/>
      <component glyphName="pixel.2" x="128" y="512" flags="0x0"/>
      <component glyphName="pixel.2" x="768" y="512" flags="0x0"/>
      <component glyphName="pixel.2" x="128" y="640" flags="0x0"/>
      <component glyphName="pixel.2" x="768" y="640" flags="0x0"/>
      <component glyphName="pixel.2" x="128" y="768" flags="0x0"/>
      <component glyphName="pixel.2" x="768" y="768" flags="0x0"/>
    </TTGlyph>
    <TTGlyph name="X" xMin="123" yMin="54" xMax="901" yMax="842">
      <component glyphName="pixel.2" x="128" y="0" flags="0x0"/>
      <component glyphName="pixel.2" x="640" y="0" flags="0x0"/>
      <component glyphName="pixel.2" x="128" y="128" flags="0x0"/>
      <component glyphName="pixel.2" x="640" y="128" flags="0x0"/>
      <component glyphName="pixel.4" x="256" y="256" flags="0x0"/>
      <component glyphName="pixel.2" x="384" y="384" flags="0x0"/>
      <component glyphName="pixel.4" x="256" y="512" flags="0x0"/>
      <component glyphName="pixel.2" x="128" y="640" flags="0x0"/>
      <component glyphName="pixel.2" x="640" y="640" flags="0x0"/>
      <component glyphName="pixel.2" x="128" y="768" flags="0x0"/>
      <component glyphName="pixel.2" x="640" y="768" flags="0x0"/>
    </TTGlyph>
    <TTGlyph name="Y" xMin="123" yMin="54" xMax="901" yMax="842">
      <component glyphName="pixel.2" x="384" y="0" flags="0x0"/>
      <component glyphName="pixel.2" x="384" y="128" flags="0x0"/>
      <component glyphName="pixel.2" x="384" y="256" flags="0x0"/>
      <component glyphName="pixel.4" x="256" y="384" flags="0x0"/>
      <component glyphName="pixel.2" x="128" y="512" flags="0x0"/>
      <component glyphName="pixel.2" x="640" y="512" flags="0x0"/>
      <component glyphName="pixel.2" x="128" y="640" flags="0x0"/>
      <component glyphName="pixel.2" x="640" y="640" flags="0x0"/>
      <component glyphName="pixel.2" x="128" y="768" flags="0x0"/>
      <component glyphName="pixel.2" x="640" y="768" flags="0x0"/>
    </TTGlyph>
    <TTGlyph name="Y.case" xMin="123" yMin="54" xMax="901" yMax="586">
      <component glyphName="pixel.2" x="384" y="0" flags="0x0"/>
      <component glyphName="pixel.2" x="384" y="128" flags="0x0"/>
      <component glyphName="pixel.4" x="256" y="256" flags="0x0"/>
      <component glyphName="pixel.2" x="128" y="384" flags="0x0"/>
      <component glyphName="pixel.2" x="640" y="384" flags="0x0"/>
      <component glyphName="pixel.2" x="128" y="512" flags="0x0"/>
      <component glyphName="pixel.2" x="640" y="512" flags="0x0"/>
    </TTGlyph>
    <TTGlyph name="Yacute" xMin="123" yMin="54" xMax="901" yMax="842">
      <component glyphName="Y.case" x="0" y="0" flags="0x200"/>
      <component glyphName="acute" x="0" y="0" flags="0x0"/>
    </TTGlyph>
    <TTGlyph name="Z" xMin="123" yMin="54" xMax="901" yMax="842">
      <component glyphName="pixel.6" x="128" y="0" flags="0x0"/>
      <component glyphName="pixel.2" x="128" y="128" flags="0x0"/>
      <component glyphName="pixel.2" x="256" y="256" flags="0x0"/>
      <component glyphName="pixel.2" x="384" y="384" flags="0x0"/>
      <component glyphName="pixel.2" x="512" y="512" flags="0x0"/>
      <component glyphName="pixel.2" x="640" y="640" flags="0x0"/>
      <component glyphName="pixel.6" x="128" y="768" flags="0x0"/>
    </TTGlyph>
    <TTGlyph name="a" xMin="123" yMin="54" xMax="901" yMax="586">
      <component glyphName="pixel.5" x="256" y="0" flags="0x0"/>
      <component glyphName="pixel.2" x="128" y="128" flags="0x0"/>
      <component glyphName="pixel.2" x="640" y="128" flags="0x0"/>
      <component glyphName="pixel.5" x="256" y="256" flags="0x0"/>
      <component glyphName="pixel.2" x="640" y="384" flags="0x0"/>
      <component glyphName="pixel.4" x="256" y="512" flags="0x0"/>
    </TTGlyph>
    <TTGlyph name="aacute" xMin="123" yMin="54" xMax="901" yMax="842">
      <component glyphName="a" x="0" y="0" flags="0x200"/>
      <component glyphName="acute" x="0" y="0" flags="0x0"/>
    </TTGlyph>
    <TTGlyph name="acircumflex" xMin="123" yMin="54" xMax="901" yMax="842">
      <component glyphName="a" x="0" y="0" flags="0x200"/>
      <component glyphName="circumflex" x="0" y="0" flags="0x0"/>
    </TTGlyph>
    <TTGlyph name="acute" xMin="379" yMin="694" xMax="773" yMax="842">
      <component glyphName="pixel.2" x="384" y="640" flags="0x0"/>
      <component glyphName="pixel.2" x="512" y="768" flags="0x0"/>
    </TTGlyph>
    <TTGlyph name="adieresis" xMin="123" yMin="54" xMax="901" yMax="842">
      <component glyphName="a" x="0" y="0" flags="0x200"/>
      <component glyphName="dieresis" x="0" y="0" flags="0x0"/>
    </TTGlyph>
    <TTGlyph name="ae" xMin="123" yMin="54" xMax="1029" yMax="586">
      <component glyphName="pixel.2" x="256" y="0" flags="0x0"/>
      <component glyphName="pixel.3" x="640" y="0" flags="0x0"/>
      <component glyphName="pixel.2" x="128" y="128" flags="0x0"/>
      <component glyphName="pixel.2" x="512" y="128" flags="0x0"/>
      <component glyphName="pixel.6" x="256" y="256" flags="0x0"/>
      <component glyphName="pixel.2" x="512" y="384" flags="0x0"/>
      <component glyphName="pixel.1" x="896" y="384" flags="0x0"/>
      <component glyphName="pixel.5" x="256" y="512" flags="0x0"/>
    </TTGlyph>
    <TTGlyph name="agrave" xMin="123" yMin="54" xMax="901" yMax="842">
      <component glyphName="a" x="0" y="0" flags="0x200"/>
      <component glyphName="grave" x="0" y="0" flags="0x0"/>
    </TTGlyph>
    <TTGlyph name="ampersand" xMin="123" yMin="54" xMax="1029" yMax="842">
      <component glyphName="pixel.6" x="256" y="0" flags="0x0"/>
      <component glyphName="pixel.2" x="128" y="128" flags="0x0"/>
      <component glyphName="pixel.2" x="640" y="128" flags="0x0"/>
      <component glyphName="pixel.2" x="128" y="256" flags="0x0"/>
      <component glyphName="pixel.3" x="640" y="256" flags="0x0"/>
      <component glyphName="pixel.3" x="256" y="384" flags="0x0"/>
      <component glyphName="pixel.4" x="256" y="512" flags="0x0"/>
      <component glyphName="pixel.2" x="128" y="640" flags="0x0"/>
      <component glyphName="pixel.2" x="640" y="640" flags="0x0"/>
      <component glyphName="pixel.4" x="256" y="768" flags="0x0"/>
    </TTGlyph>
    <TTGlyph name="approxequal" xMin="123" yMin="54" xMax="1029" yMax="586">
      <component glyphName="pixel.2" x="128" y="0" flags="0x0"/>
      <component glyphName="pixel.3" x="512" y="0" flags="0x0"/>
      <component glyphName="pixel.3" x="256" y="128" flags="0x0"/>
      <component glyphName="pixel.2" x="768" y="128" flags="0x0"/>
      <component glyphName="pixel.2" x="128" y="384" flags="0x0"/>
      <component glyphName="pixel.3" x="512" y="384" flags="0x0"/>
      <component glyphName="pixel.3" x="256" y="512" flags="0x0"/>
      <component glyphName="pixel.2" x="768" y="512" flags="0x0"/>
    </TTGlyph>
    <TTGlyph name="aring" xMin="123" yMin="54" xMax="901" yMax="842">
      <component glyphName="pixel.5" x="256" y="0" flags="0x0"/>
      <component glyphName="pixel.2" x="128" y="128" flags="0x0"/>
      <component glyphName="pixel.2" x="640" y="128" flags="0x0"/>
      <component glyphName="pixel.2" x="128" y="256" flags="0x0"/>
      <component glyphName="pixel.2" x="640" y="256" flags="0x0"/>
      <component glyphName="pixel.5" x="256" y="384" flags="0x0"/>
      <component glyphName="pixel.4" x="256" y="512" flags="0x0"/>
      <component glyphName="pixel.2" x="128" y="640" flags="0x0"/>
      <component glyphName="pixel.2" x="640" y="640" flags="0x0"/>
      <component glyphName="pixel.4" x="256" y="768" flags="0x0"/>
    </TTGlyph>
    <TTGlyph name="arrowdown" xMin="123" yMin="-74" xMax="901" yMax="714">
      <component glyphName="pixel.2" x="384" y="-128" flags="0x0"/>
      <component glyphName="pixel.4" x="256" y="0" flags="0x0"/>
      <component glyphName="pixel.6" x="128" y="128" flags="0x0"/>
      <component glyphName="pixel.2" x="384" y="256" flags="0x0"/>
      <component glyphName="pixel.2" x="384" y="384" flags="0x0"/>
      <component glyphName="pixel.2" x="384" y="512" flags="0x0"/>
      <component glyphName="pixel.2" x="384" y="640" flags="0x0"/>
    </TTGlyph>
    <TTGlyph name="arrowleft" xMin="123" yMin="54" xMax="1029" yMax="714">
      <component glyphName="pixel.1" x="384" y="0" flags="0x0"/>
      <component glyphName="pixel.2" x="256" y="128" flags="0x0"/>
      <component glyphName="pixel.7" x="128" y="256" flags="0x0"/>
      <component glyphName="pixel.7" x="128" y="384" flags="0x0"/>
      <component glyphName="pixel.2" x="256" y="512" flags="0x0"/>
      <component glyphName="pixel.1" x="384" y="640" flags="0x0"/>
    </TTGlyph>
    <TTGlyph name="arrowright" xMin="123" yMin="54" xMax="1029" yMax="714">
      <component glyphName="pixel.1" x="640" y="0" flags="0x0"/>
      <component glyphName="pixel.2" x="640" y="128" flags="0x0"/>
      <component glyphName="pixel.7" x="128" y="256" flags="0x0"/>
      <component glyphName="pixel.7" x="128" y="384" flags="0x0"/>
      <component glyphName="pixel.2" x="640" y="512" flags="0x0"/>
      <component glyphName="pixel.1" x="640" y="640" flags="0x0"/>
    </TTGlyph>
    <TTGlyph name="arrowup" xMin="123" yMin="-74" xMax="901" yMax="714">
      <component glyphName="pixel.2" x="384" y="-128" flags="0x0"/>
      <component glyphName="pixel.2" x="384" y="0" flags="0x0"/>
      <component glyphName="pixel.2" x="384" y="128" flags="0x0"/>
      <component glyphName="pixel.2" x="384" y="256" flags="0x0"/>
      <component glyphName="pixel.6" x="128" y="384" flags="0x0"/>
      <component glyphName="pixel.4" x="256" y="512" flags="0x0"/>
      <component glyphName="pixel.2" x="384" y="640" flags="0x0"/>
    </TTGlyph>
    <TTGlyph name="asciicircum" xMin="123" yMin="566" xMax="901" yMax="842">
      <component glyphName="pixel.2" x="128" y="512" flags="0x0"/>
      <component glyphName="pixel.2" x="640" y="512" flags="0x0"/>
      <component glyphName="pixel.4" x="256" y="640" flags="0x0"/>
      <component glyphName="pixel.2" x="384" y="768" flags="0x0"/>
    </TTGlyph>
    <TTGlyph name="asciitilde" xMin="123" yMin="310" xMax="1029" yMax="458">
      <component glyphName="pixel.2" x="128" y="256" flags="0x0"/>
      <component glyphName="pixel.3" x="512" y="256" flags="0x0"/>
      <component glyphName="pixel.3" x="256" y="384" flags="0x0"/>
      <component glyphName="pixel.2" x="768" y="384" flags="0x0"/>
    </TTGlyph>
    <TTGlyph name="asterisk" xMin="-5" yMin="182" xMax="1029" yMax="714">
      <component glyphName="pixel.2" x="128" y="128" flags="0x200"/>
      <component glyphName="pixel.2" x="640" y="128" flags="0x0"/>
      <component glyphName="pixel.4" x="256" y="256" flags="0x0"/>
      <component glyphName="pixel.8" x="0" y="384" flags="0x0"/>
      <component glyphName="pixel.4" x="256" y="512" flags="0x0"/>
      <component glyphName="pixel.2" x="128" y="640" flags="0x0"/>
      <component glyphName="pixel.2" x="640" y="640" flags="0x0"/>
    </TTGlyph>
    <TTGlyph name="at" xMin="123" yMin="54" xMax="901" yMax="842">
      <component glyphName="pixel.4" x="256" y="0" flags="0x0"/>
      <component glyphName="pixel.2" x="128" y="128" flags="0x0"/>
      <component glyphName="pixel.1" x="768" y="128" flags="0x0"/>
      <component glyphName="pixel.2" x="128" y="256" flags="0x0"/>
      <component glyphName="pixel.2" x="128" y="384" flags="0x0"/>
      <component glyphName="pixel.3" x="512" y="384" flags="0x0"/>
      <component glyphName="pixel.2" x="128" y="512" flags="0x0"/>
      <component glyphName="pixel.3" x="512" y="512" flags="0x0"/>
      <component glyphName="pixel.2" x="128" y="640" flags="0x0"/>
      <component glyphName="pixel.2" x="640" y="640" flags="0x0"/>
      <component glyphName="pixel.4" x="256" y="768" flags="0x0"/>
    </TTGlyph>
    <TTGlyph name="atilde" xMin="123" yMin="54" xMax="1029" yMax="842">
      <component glyphName="a" x="0" y="0" flags="0x200"/>
      <component glyphName="tilde" x="0" y="0" flags="0x0"/>
    </TTGlyph>
    <TTGlyph name="b" xMin="123" yMin="54" xMax="901" yMax="714">
      <component glyphName="pixel.5" x="128" y="0" flags="0x0"/>
      <component glyphName="pixel.2" x="128" y="128" flags="0x0"/>
      <component glyphName="pixel.2" x="640" y="128" flags="0x0"/>
      <component glyphName="pixel.2" x="128" y="256" flags="0x0"/>
      <component glyphName="pixel.2" x="640" y="256" flags="0x0"/>
      <component glyphName="pixel.5" x="128" y="384" flags="0x0"/>
      <component glyphName="pixel.2" x="128" y="512" flags="0x0"/>
      <component glyphName="pixel.2" x="128" y="640" flags="0x0"/>
    </TTGlyph>
    <TTGlyph name="backslash" xMin="123" yMin="54" xMax="1029" yMax="714">
      <component glyphName="pixel.2" x="768" y="0" flags="0x0"/>
      <component glyphName="pixel.2" x="640" y="128" flags="0x0"/>
      <component glyphName="pixel.2" x="512" y="256" flags="0x0"/>
      <component glyphName="pixel.2" x="384" y="384" flags="0x0"/>
      <component glyphName="pixel.2" x="256" y="512" flags="0x0"/>
      <component glyphName="pixel.2" x="128" y="640" flags="0x0"/>
    </TTGlyph>
    <TTGlyph name="bar" xMin="379" yMin="-74" xMax="645" yMax="842">
      <component glyphName="uni2503" x="0" y="0" flags="0x200"/>
    </TTGlyph>
    <TTGlyph name="block" xMin="-5" yMin="-74" xMax="1029" yMax="842">
      <component glyphName="pixel.8" x="0" y="-128" flags="0x200"/>
      <component glyphName="pixel.8" x="0" y="0" flags="0x0"/>
      <component glyphName="pixel.8" x="0" y="128" flags="0x0"/>
      <component glyphName="pixel.8" x="0" y="256" flags="0x0"/>
      <component glyphName="pixel.8" x="0" y="384" flags="0x0"/>
      <component glyphName="pixel.8" x="0" y="512" flags="0x0"/>
      <component glyphName="pixel.8" x="0" y="640" flags="0x0"/>
      <component glyphName="pixel.8" x="0" y="768" flags="0x0"/>
    </TTGlyph>
    <TTGlyph name="braceleft" xMin="251" yMin="54" xMax="901" yMax="842">
      <component glyphName="pixel.3" x="512" y="0" flags="0x0"/>
      <component glyphName="pixel.2" x="384" y="128" flags="0x0"/>
      <component glyphName="pixel.2" x="384" y="256" flags="0x0"/>
      <component glyphName="pixel.2" x="256" y="384" flags="0x0"/>
      <component glyphName="pixel.2" x="384" y="512" flags="0x0"/>
      <component glyphName="pixel.2" x="384" y="640" flags="0x0"/>
      <component glyphName="pixel.3" x="512" y="768" flags="0x0"/>
    </TTGlyph>
    <TTGlyph name="braceright" xMin="123" yMin="54" xMax="773" yMax="842">
      <component glyphName="pixel.3" x="128" y="0" flags="0x0"/>
      <component glyphName="pixel.2" x="384" y="128" flags="0x0"/>
      <component glyphName="pixel.2" x="384" y="256" flags="0x0"/>
      <component glyphName="pixel.2" x="512" y="384" flags="0x0"/>
      <component glyphName="pixel.2" x="384" y="512" flags="0x0"/>
      <component glyphName="pixel.2" x="384" y="640" flags="0x0"/>
      <component glyphName="pixel.3" x="128" y="768" flags="0x0"/>
    </TTGlyph>
    <TTGlyph name="bracketleft" xMin="251" yMin="54" xMax="773" yMax="842">
      <component glyphName="pixel.4" x="256" y="0" flags="0x0"/>
      <component glyphName="pixel.2" x="256" y="128" flags="0x0"/>
      <component glyphName="pixel.2" x="256" y="256" flags="0x0"/>
      <component glyphName="pixel.2" x="256" y="384" flags="0x0"/>
      <component glyphName="pixel.2" x="256" y="512" flags="0x0"/>
      <component glyphName="pixel.2" x="256" y="640" flags="0x0"/>
      <component glyphName="pixel.4" x="256" y="768" flags="0x0"/>
    </TTGlyph>
    <TTGlyph name="bracketright" xMin="251" yMin="54" xMax="773" yMax="842">
      <component glyphName="pixel.4" x="256" y="0" flags="0x0"/>
      <component glyphName="pixel.2" x="512" y="128" flags="0x0"/>
      <component glyphName="pixel.2" x="512" y="256" flags="0x0"/>
      <component glyphName="pixel.2" x="512" y="384" flags="0x0"/>
      <component glyphName="pixel.2" x="512" y="512" flags="0x0"/>
      <component glyphName="pixel.2" x="512" y="640" flags="0x0"/>
      <component glyphName="pixel.4" x="256" y="768" flags="0x0"/>
    </TTGlyph>
    <TTGlyph name="brokenbar" xMin="379" yMin="-74" xMax="645" yMax="842">
      <component glyphName="pixel.2" x="384" y="-128" flags="0x0"/>
      <component glyphName="pixel.2" x="384" y="0" flags="0x0"/>
      <component glyphName="pixel.2" x="384" y="128" flags="0x0"/>
      <component glyphName="pixel.2" x="384" y="512" flags="0x0"/>
      <component glyphName="pixel.2" x="384" y="640" flags="0x0"/>
      <component glyphName="pixel.2" x="384" y="768" flags="0x0"/>
    </TTGlyph>
    <TTGlyph name="bullet" xMin="251" yMin="182" xMax="773" yMax="586">
      <component glyphName="pixel.2" x="384" y="128" flags="0x0"/>
      <component glyphName="pixel.4" x="256" y="256" flags="0x0"/>
      <component glyphName="pixel.4" x="256" y="384" flags="0x0"/>
      <component glyphName="pixel.2" x="384" y="512" flags="0x0"/>
    </TTGlyph>
    <TTGlyph name="c" xMin="123" yMin="54" xMax="773" yMax="586">
      <component glyphName="pixel.4" x="256" y="0" flags="0x0"/>
      <component glyphName="pixel.2" x="128" y="128" flags="0x0"/>
      <component glyphName="pixel.2" x="128" y="256" flags="0x0"/>
      <component glyphName="pixel.2" x="128" y="384" flags="0x0"/>
      <component glyphName="pixel.4" x="256" y="512" flags="0x0"/>
    </TTGlyph>
    <TTGlyph name="ccedilla" xMin="123" yMin="-74" xMax="773" yMax="586">
      <component glyphName="pixel.2" x="256" y="-128" flags="0x0"/>
      <component glyphName="pixel.2" x="384" y="0" flags="0x0"/>
      <component glyphName="pixel.4" x="256" y="128" flags="0x0"/>
      <component glyphName="pixel.2" x="128" y="256" flags="0x0"/>
      <component glyphName="pixel.2" x="128" y="384" flags="0x0"/>
      <component glyphName="pixel.4" x="256" y="512" flags="0x0"/>
    </TTGlyph>
    <TTGlyph name="cedilla" xMin="251" yMin="-74" xMax="773" yMax="202">
      <component glyphName="pixel.3" x="256" y="-128" flags="0x0"/>
      <component glyphName="pixel.2" x="512" y="0" flags="0x0"/>
      <component glyphName="pixel.3" x="256" y="128" flags="0x0"/>
    </TTGlyph>
    <TTGlyph name="cent" xMin="123" yMin="54" xMax="773" yMax="714">
      <component glyphName="pixel.2" x="384" y="0" flags="0x0"/>
      <component glyphName="pixel.4" x="256" y="128" flags="0x0"/>
      <component glyphName="pixel.2" x="128" y="256" flags="0x0"/>
      <component glyphName="pixel.2" x="128" y="384" flags="0x0"/>
      <component glyphName="pixel.4" x="256" y="512" flags="0x0"/>
      <component glyphName="pixel.2" x="384" y="640" flags="0x0"/>
    </TTGlyph>
    <TTGlyph name="circle" xMin="123" yMin="54" xMax="901" yMax="714">
      <component glyphName="pixel.4" x="256" y="0" flags="0x0"/>
      <component glyphName="pixel.6" x="128" y="128" flags="0x0"/>
      <component glyphName="pixel.2" x="128" y="256" flags="0x0"/>
      <component glyphName="pixel.2" x="640" y="256" flags="0x0"/>
      <component glyphName="pixel.2" x="128" y="384" flags="0x0"/>
      <component glyphName="pixel.2" x="640" y="384" flags="0x0"/>
      <component glyphName="pixel.6" x="128" y="512" flags="0x0"/>
      <component glyphName="pixel.4" x="256" y="640" flags="0x0"/>
    </TTGlyph>
    <TTGlyph name="circumflex" xMin="123" yMin="694" xMax="901" yMax="842">
      <component glyphName="pixel.2" x="128" y="640" flags="0x0"/>
      <component glyphName="pixel.2" x="640" y="640" flags="0x0"/>
      <component glyphName="pixel.4" x="256" y="768" flags="0x0"/>
    </TTGlyph>
    <TTGlyph name="club" xMin="123" yMin="54" xMax="901" yMax="842">
      <component glyphName="pixel.4" x="256" y="0" flags="0x0"/>
      <component glyphName="pixel.2" x="384" y="128" flags="0x0"/>
      <component glyphName="pixel.2" x="384" y="256" flags="0x0"/>
      <component glyphName="pixel.2" x="128" y="384" flags="0x0"/>
      <component glyphName="pixel.2" x="640" y="384" flags="0x0"/>
      <component glyphName="pixel.2" x="128" y="512" flags="0x0"/>
      <component glyphName="pixel.2" x="640" y="512" flags="0x0"/>
      <component glyphName="pixel.2" x="384" y="640" flags="0x0"/>
      <component glyphName="pixel.2" x="384" y="768" flags="0x0"/>
    </TTGlyph>
    <TTGlyph name="colon" xMin="379" yMin="182" xMax="645" yMax="586">
      <component glyphName="pixel.2" x="384" y="128" flags="0x0"/>
      <component glyphName="pixel.2" x="384" y="512" flags="0x0"/>
    </TTGlyph>
    <TTGlyph name="comma" xMin="251" yMin="-74" xMax="645" yMax="202">
      <component glyphName="pixel.2" x="256" y="-128" flags="0x0"/>
      <component glyphName="pixel.2" x="384" y="0" flags="0x0"/>
      <component glyphName="pixel.2" x="384" y="128" flags="0x0"/>
    </TTGlyph>
    <TTGlyph name="copyright" xMin="123" yMin="54" xMax="1029" yMax="842">
      <component glyphName="pixel.3" x="384" y="0" flags="0x0"/>
      <component glyphName="pixel.1" x="256" y="128" flags="0x0"/>
      <component glyphName="pixel.1" x="768" y="128" flags="0x0"/>
      <component glyphName="pixel.1" x="128" y="256" flags="0x0"/>
      <component glyphName="pixel.2" x="512" y="256" flags="0x0"/>
      <component glyphName="pixel.1" x="896" y="256" flags="0x0"/>
      <component glyphName="pixel.1" x="128" y="384" flags="0x0"/>
      <component glyphName="pixel.1" x="384" y="384" flags="0x0"/>
      <component glyphName="pixel.1" x="896" y="384" flags="0x0"/>
      <component glyphName="pixel.1" x="128" y="512" flags="0x0"/>
      <component glyphName="pixel.2" x="512" y="512" flags="0x0"/>
      <component glyphName="pixel.1" x="896" y="512" flags="0x0"/>
      <component glyphName="pixel.1" x="256" y="640" flags="0x0"/>
      <component glyphName="pixel.1" x="768" y="640" flags="0x0"/>
      <component glyphName="pixel.3" x="384" y="768" flags="0x0"/>
    </TTGlyph>
    <TTGlyph name="currency" xMin="123" yMin="54" xMax="901" yMax="714">
      <component glyphName="pixel.2" x="128" y="0" flags="0x0"/>
      <component glyphName="pixel.2" x="640" y="0" flags="0x0"/>
      <component glyphName="pixel.4" x="256" y="128" flags="0x0"/>
      <component glyphName="pixel.2" x="128" y="256" flags="0x0"/>
      <component glyphName="pixel.2" x="640" y="256" flags="0x0"/>
      <component glyphName="pixel.2" x="128" y="384" flags="0x0"/>
      <component glyphName="pixel.2" x="640" y="384" flags="0x0"/>
      <component glyphName="pixel.4" x="256" y="512" flags="0x0"/>
      <component glyphName="pixel.2" x="128" y="640" flags="0x0"/>
      <component glyphName="pixel.2" x="640" y="640" flags="0x0"/>
    </TTGlyph>
    <TTGlyph name="d" xMin="123" yMin="54" xMax="901" yMax="714">
      <component glyphName="pixel.5" x="256" y="0" flags="0x0"/>
      <component glyphName="pixel.2" x="128" y="128" flags="0x0"/>
      <component glyphName="pixel.2" x="640" y="128" flags="0x0"/>
      <component glyphName="pixel.2" x="128" y="256" flags="0x0"/>
      <component glyphName="pixel.2" x="640" y="256" flags="0x0"/>
      <component glyphName="pixel.5" x="256" y="384" flags="0x0"/>
      <component glyphName="pixel.2" x="640" y="512" flags="0x0"/>
      <component glyphName="pixel.2" x="640" y="640" flags="0x0"/>
    </TTGlyph>
    <TTGlyph name="dagger" xMin="123" yMin="-74" xMax="901" yMax="842">
      <component glyphName="pixel.2" x="384" y="-128" flags="0x0"/>
      <component glyphName="pixel.2" x="384" y="0" flags="0x0"/>
      <component glyphName="pixel.2" x="384" y="128" flags="0x0"/>
      <component glyphName="pixel.2" x="384" y="256" flags="0x0"/>
      <component glyphName="pixel.2" x="384" y="384" flags="0x0"/>
      <component glyphName="pixel.6" x="128" y="512" flags="0x0"/>
      <component glyphName="pixel.2" x="384" y="640" flags="0x0"/>
      <component glyphName="pixel.2" x="384" y="768" flags="0x0"/>
    </TTGlyph>
    <TTGlyph name="daggerdbl" xMin="123" yMin="-74" xMax="901" yMax="842">
      <component glyphName="pixel.2" x="384" y="-128" flags="0x0"/>
      <component glyphName="pixel.2" x="384" y="0" flags="0x0"/>
      <component glyphName="pixel.6" x="128" y="128" flags="0x0"/>
      <component glyphName="pixel.2" x="384" y="256" flags="0x0"/>
      <component glyphName="pixel.2" x="384" y="384" flags="0x0"/>
      <component glyphName="pixel.6" x="128" y="512" flags="0x0"/>
      <component glyphName="pixel.2" x="384" y="640" flags="0x0"/>
      <component glyphName="pixel.2" x="384" y="768" flags="0x0"/>
    </TTGlyph>
    <TTGlyph name="degree" xMin="123" yMin="438" xMax="773" yMax="842">
      <component glyphName="pixel.3" x="256" y="384" flags="0x0"/>
      <component glyphName="pixel.2" x="128" y="512" flags="0x0"/>
      <component glyphName="pixel.2" x="512" y="512" flags="0x0"/>
      <component glyphName="pixel.2" x="128" y="640" flags="0x0"/>
      <component glyphName="pixel.2" x="512" y="640" flags="0x0"/>
      <component glyphName="pixel.3" x="256" y="768" flags="0x0"/>
    </TTGlyph>
    <TTGlyph name="diamond" xMin="123" yMin="54" xMax="1029" yMax="842">
      <component glyphName="pixel.1" x="512" y="0" flags="0x0"/>
      <component glyphName="pixel.3" x="384" y="128" flags="0x0"/>
      <component glyphName="pixel.5" x="256" y="256" flags="0x0"/>
      <component glyphName="pixel.7" x="128" y="384" flags="0x0"/>
      <component glyphName="pixel.5" x="256" y="512" flags="0x0"/>
      <component glyphName="pixel.3" x="384" y="640" flags="0x0"/>
      <component glyphName="pixel.1" x="512" y="768" flags="0x0"/>
    </TTGlyph>
    <TTGlyph name="dieresis" xMin="123" yMin="822" xMax="901" yMax="842">
      <component glyphName="pixel.2" x="128" y="768" flags="0x0"/>
      <component glyphName="pixel.2" x="640" y="768" flags="0x0"/>
    </TTGlyph>
    <TTGlyph name="divide" xMin="123" yMin="182" xMax="901" yMax="714">
      <component glyphName="pixel.2" x="384" y="128" flags="0x0"/>
      <component glyphName="pixel.6" x="128" y="384" flags="0x0"/>
      <component glyphName="pixel.2" x="384" y="640" flags="0x0"/>
    </TTGlyph>
    <TTGlyph name="dkshade" xMin="-5" yMin="-74" xMax="1029" yMax="842">
      <component glyphName="pixel.2" x="256" y="-128" flags="0x200"/>
      <component glyphName="pixel.2" x="768" y="-128" flags="0x0"/>
      <component glyphName="pixel.2" x="256" y="0" flags="0x0"/>
      <component glyphName="pixel.2" x="768" y="0" flags="0x0"/>
      <component glyphName="pixel.2" x="0" y="128" flags="0x0"/>
      <component glyphName="pixel.2" x="512" y="128" flags="0x0"/>
      <component glyphName="pixel.2" x="0" y="256" flags="0x0"/>
      <component glyphName="pixel.2" x="512" y="256" flags="0x0"/>
      <component glyphName="pixel.2" x="256" y="384" flags="0x0"/>
      <component glyphName="pixel.2" x="768" y="384" flags="0x0"/>
      <component glyphName="pixel.2" x="256" y="512" flags="0x0"/>
      <component glyphName="pixel.2" x="768" y="512" flags="0x0"/>
      <component glyphName="pixel.2" x="0" y="640" flags="0x0"/>
      <component glyphName="pixel.2" x="512" y="640" flags="0x0"/>
      <component glyphName="pixel.2" x="0" y="768" flags="0x0"/>
      <component glyphName="pixel.2" x="512" y="768" flags="0x0"/>
    </TTGlyph>
    <TTGlyph name="dnblock" xMin="-5" yMin="-74" xMax="1029" yMax="330">
      <component glyphName="pixel.8" x="0" y="-128" flags="0x200"/>
      <component glyphName="pixel.8" x="0" y="0" flags="0x0"/>
      <component glyphName="pixel.8" x="0" y="128" flags="0x0"/>
      <component glyphName="pixel.8" x="0" y="256" flags="0x0"/>
    </TTGlyph>
    <TTGlyph name="dollar" xMin="123" yMin="54" xMax="901" yMax="842">
      <component glyphName="pixel.2" x="384" y="0" flags="0x0"/>
      <component glyphName="pixel.5" x="128" y="128" flags="0x0"/>
      <component glyphName="pixel.2" x="640" y="256" flags="0x0"/>
      <component glyphName="pixel.4" x="256" y="384" flags="0x0"/>
      <component glyphName="pixel.2" x="128" y="512" flags="0x0"/>
      <component glyphName="pixel.5" x="256" y="640" flags="0x0"/>
      <component glyphName="pixel.2" x="384" y="768" flags="0x0"/>
    </TTGlyph>
    <TTGlyph name="dotaccent" xMin="379" yMin="822" xMax="645" yMax="842">
      <component glyphName="pixel.2" x="384" y="768" flags="0x0"/>
    </TTGlyph>
    <TTGlyph name="dotlessi" xMin="251" yMin="54" xMax="773" yMax="458">
      <component glyphName="pixel.4" x="256" y="0" flags="0x0"/>
      <component glyphName="pixel.2" x="384" y="128" flags="0x0"/>
      <component glyphName="pixel.2" x="384" y="256" flags="0x0"/>
      <component glyphName="pixel.3" x="256" y="384" flags="0x0"/>
    </TTGlyph>
    <TTGlyph name="e" xMin="123" yMin="54" xMax="901" yMax="586">
      <component glyphName="pixel.4" x="256" y="0" flags="0x0"/>
      <component glyphName="pixel.2" x="128" y="128" flags="0x0"/>
      <component glyphName="pixel.6" x="128" y="256" flags="0x0"/>
      <component glyphName="pixel.2" x="128" y="384" flags="0x0"/>
      <component glyphName="pixel.2" x="640" y="384" flags="0x0"/>
      <component glyphName="pixel.4" x="256" y="512" flags="0x0"/>
    </TTGlyph>
    <TTGlyph name="eacute" xMin="123" yMin="54" xMax="901" yMax="842">
      <component glyphName="e" x="0" y="0" flags="0x200"/>
      <component glyphName="acute" x="0" y="0" flags="0x0"/>
    </TTGlyph>
    <TTGlyph name="ecircumflex" xMin="123" yMin="54" xMax="901" yMax="842">
      <component glyphName="e" x="0" y="0" flags="0x200"/>
      <component glyphName="circumflex" x="0" y="0" flags="0x0"/>
    </TTGlyph>
    <TTGlyph name="edieresis" xMin="123" yMin="54" xMax="901" yMax="842">
      <component glyphName="e" x="0" y="0" flags="0x200"/>
      <component glyphName="dieresis" x="0" y="0" flags="0x0"/>
    </TTGlyph>
    <TTGlyph name="egrave" xMin="123" yMin="54" xMax="901" yMax="842">
      <component glyphName="e" x="0" y="0" flags="0x200"/>
      <component glyphName="grave" x="0" y="0" flags="0x0"/>
    </TTGlyph>
    <TTGlyph name="eight" xMin="123" yMin="54" xMax="901" yMax="842">
      <component glyphName="pixel.4" x="256" y="0" flags="0x0"/>
      <component glyphName="pixel.2" x="128" y="128" flags="0x0"/>
      <component glyphName="pixel.2" x="640" y="128" flags="0x0"/>
      <component glyphName="pixel.2" x="128" y="256" flags="0x0"/>
      <component glyphName="pixel.2" x="640" y="256" flags="0x0"/>
      <component glyphName="pixel.4" x="256" y="384" flags="0x0"/>
      <component glyphName="pixel.2" x="128" y="512" flags="0x0"/>
      <component glyphName="pixel.2" x="640" y="512" flags="0x0"/>
      <component glyphName="pixel.2" x="128" y="640" flags="0x0"/>
      <component glyphName="pixel.2" x="640" y="640" flags="0x0"/>
      <component glyphName="pixel.4" x="256" y="768" flags="0x0"/>
    </TTGlyph>
    <TTGlyph name="ellipsis" xMin="251" yMin="54" xMax="901" yMax="202">
      <component glyphName="pixel.1" x="256" y="0" flags="0x0"/>
      <component glyphName="pixel.1" x="512" y="0" flags="0x0"/>
      <component glyphName="pixel.1" x="768" y="0" flags="0x0"/>
      <component glyphName="pixel.1" x="256" y="128" flags="0x0"/>
      <component glyphName="pixel.1" x="512" y="128" flags="0x0"/>
      <component glyphName="pixel.1" x="768" y="128" flags="0x0"/>
    </TTGlyph>
    <TTGlyph name="emdash" xMin="123" yMin="438" xMax="901" yMax="458">
      <component glyphName="hyphen" x="0" y="0" flags="0x200"/>
    </TTGlyph>
    <TTGlyph name="endash" xMin="123" yMin="438" xMax="901" yMax="458">
      <component glyphName="hyphen" x="0" y="0" flags="0x200"/>
    </TTGlyph>
    <TTGlyph name="equal" xMin="123" yMin="310" xMax="901" yMax="586">
      <component glyphName="pixel.6" x="128" y="256" flags="0x0"/>
      <component glyphName="pixel.6" x="128" y="512" flags="0x0"/>
    </TTGlyph>
    <TTGlyph name="eth" xMin="123" yMin="54" xMax="1029" yMax="842">
      <component glyphName="pixel.4" x="256" y="0" flags="0x0"/>
      <component glyphName="pixel.2" x="128" y="128" flags="0x0"/>
      <component glyphName="pixel.2" x="640" y="128" flags="0x0"/>
      <component glyphName="pixel.2" x="128" y="256" flags="0x0"/>
      <component glyphName="pixel.2" x="640" y="256" flags="0x0"/>
      <component glyphName="pixel.5" x="256" y="384" flags="0x0"/>
      <component glyphName="pixel.2" x="640" y="512" flags="0x0"/>
      <component glyphName="pixel.4" x="512" y="640" flags="0x0"/>
      <component glyphName="pixel.4" x="256" y="768" flags="0x0"/>
    </TTGlyph>
    <TTGlyph name="exclam" xMin="379" yMin="54" xMax="645" yMax="842">
      <component glyphName="pixel.2" x="384" y="0" flags="0x0"/>
      <component glyphName="pixel.2" x="384" y="384" flags="0x0"/>
      <component glyphName="pixel.2" x="384" y="512" flags="0x0"/>
      <component glyphName="pixel.2" x="384" y="640" flags="0x0"/>
      <component glyphName="pixel.2" x="384" y="768" flags="0x0"/>
    </TTGlyph>
    <TTGlyph name="exclamdown" xMin="379" yMin="-74" xMax="645" yMax="714">
      <component glyphName="pixel.2" x="384" y="-128" flags="0x0"/>
      <component glyphName="pixel.2" x="384" y="0" flags="0x0"/>
      <component glyphName="pixel.2" x="384" y="128" flags="0x0"/>
      <component glyphName="pixel.2" x="384" y="256" flags="0x0"/>
      <component glyphName="pixel.2" x="384" y="640" flags="0x0"/>
    </TTGlyph>
    <TTGlyph name="f" xMin="251" yMin="54" xMax="901" yMax="714">
      <component glyphName="pixel.2" x="384" y="0" flags="0x0"/>
      <component glyphName="pixel.2" x="384" y="128" flags="0x0"/>
      <component glyphName="pixel.2" x="384" y="256" flags="0x0"/>
      <component glyphName="pixel.5" x="256" y="384" flags="0x0"/>
      <component glyphName="pixel.2" x="384" y="512" flags="0x0"/>
      <component glyphName="pixel.3" x="512" y="640" flags="0x0"/>
    </TTGlyph>
    <TTGlyph name="five" xMin="123" yMin="54" xMax="901" yMax="842">
      <component glyphName="pixel.4" x="256" y="0" flags="0x0"/>
      <component glyphName="pixel.2" x="128" y="128" flags="0x0"/>
      <component glyphName="pixel.2" x="640" y="128" flags="0x0"/>
      <component glyphName="pixel.2" x="640" y="256" flags="0x0"/>
      <component glyphName="pixel.2" x="640" y="384" flags="0x0"/>
      <component glyphName="pixel.5" x="128" y="512" flags="0x0"/>
      <component glyphName="pixel.2" x="128" y="640" flags="0x0"/>
      <component glyphName="pixel.6" x="128" y="768" flags="0x0"/>
    </TTGlyph>
    <TTGlyph name="florin" xMin="123" yMin="-74" xMax="901" yMax="714">
      <component glyphName="pixel.3" x="128" y="-128" flags="0x0"/>
      <component glyphName="pixel.2" x="384" y="0" flags="0x0"/>
      <component glyphName="pixel.2" x="384" y="128" flags="0x0"/>
      <component glyphName="pixel.2" x="384" y="256" flags="0x0"/>
      <component glyphName="pixel.5" x="256" y="384" flags="0x0"/>
      <component glyphName="pixel.2" x="384" y="512" flags="0x0"/>
      <component glyphName="pixel.3" x="512" y="640" flags="0x0"/>
    </TTGlyph>
    <TTGlyph name="four" xMin="123" yMin="54" xMax="1029" yMax="842">
      <component glyphName="pixel.2" x="640" y="0" flags="0x0"/>
      <component glyphName="pixel.2" x="640" y="128" flags="0x0"/>
      <component glyphName="pixel.7" x="128" y="256" flags="0x0"/>
      <component glyphName="pixel.2" x="128" y="384" flags="0x0"/>
      <component glyphName="pixel.2" x="640" y="384" flags="0x0"/>
      <component glyphName="pixel.4" x="384" y="512" flags="0x0"/>
      <component glyphName="pixel.3" x="512" y="640" flags="0x0"/>
      <component glyphName="pixel.2" x="640" y="768" flags="0x0"/>
    </TTGlyph>
    <TTGlyph name="fraction" xMin="123" yMin="54" xMax="1029" yMax="714">
      <component glyphName="slash" x="0" y="0" flags="0x200"/>
    </TTGlyph>
    <TTGlyph name="g" xMin="123" yMin="-74" xMax="901" yMax="586">
      <component glyphName="pixel.5" x="128" y="-128" flags="0x0"/>
      <component glyphName="pixel.2" x="640" y="0" flags="0x0"/>
      <component glyphName="pixel.5" x="256" y="128" flags="0x0"/>
      <component glyphName="pixel.2" x="128" y="256" flags="0x0"/>
      <component glyphName="pixel.2" x="640" y="256" flags="0x0"/>
      <component glyphName="pixel.2" x="128" y="384" flags="0x0"/>
      <component glyphName="pixel.2" x="640" y="384" flags="0x0"/>
      <component glyphName="pixel.5" x="256" y="512" flags="0x0"/>
    </TTGlyph>
    <TTGlyph name="germandbls" xMin="123" yMin="54" xMax="901" yMax="842">
      <component glyphName="pixel.2" x="128" y="0" flags="0x0"/>
      <component glyphName="pixel.2" x="512" y="0" flags="0x0"/>
      <component glyphName="pixel.2" x="128" y="128" flags="0x0"/>
      <component glyphName="pixel.2" x="640" y="128" flags="0x0"/>
      <component glyphName="pixel.2" x="128" y="256" flags="0x0"/>
      <component glyphName="pixel.2" x="640" y="256" flags="0x0"/>
      <component glyphName="pixel.2" x="128" y="384" flags="0x0"/>
      <component glyphName="pixel.2" x="512" y="384" flags="0x0"/>
      <component glyphName="pixel.2" x="128" y="512" flags="0x0"/>
      <component glyphName="pixel.2" x="640" y="512" flags="0x0"/>
      <component glyphName="pixel.2" x="128" y="640" flags="0x0"/>
      <component glyphName="pixel.2" x="640" y="640" flags="0x0"/>
      <component glyphName="pixel.4" x="256" y="768" flags="0x0"/>
    </TTGlyph>
    <TTGlyph name="grave" xMin="251" yMin="694" xMax="645" yMax="842">
      <component glyphName="pixel.2" x="384" y="640" flags="0x0"/>
      <component glyphName="pixel.2" x="256" y="768" flags="0x0"/>
    </TTGlyph>
    <TTGlyph name="greater" xMin="123" yMin="54" xMax="901" yMax="842">
      <component glyphName="pixel.3" x="128" y="0" flags="0x0"/>
      <component glyphName="pixel.2" x="384" y="128" flags="0x0"/>
      <component glyphName="pixel.2" x="512" y="256" flags="0x0"/>
      <component glyphName="pixel.2" x="640" y="384" flags="0x0"/>
      <component glyphName="pixel.2" x="512" y="512" flags="0x0"/>
      <component glyphName="pixel.2" x="384" y="640" flags="0x0"/>
      <component glyphName="pixel.3" x="128" y="768" flags="0x0"/>
    </TTGlyph>
    <TTGlyph name="greaterequal" xMin="123" yMin="54" xMax="773" yMax="842">
      <component glyphName="pixel.5" x="128" y="0" flags="0x0"/>
      <component glyphName="pixel.2" x="256" y="256" flags="0x0"/>
      <component glyphName="pixel.2" x="384" y="384" flags="0x0"/>
      <component glyphName="pixel.2" x="512" y="512" flags="0x0"/>
      <component glyphName="pixel.2" x="384" y="640" flags="0x0"/>
      <component glyphName="pixel.2" x="256" y="768" flags="0x0"/>
    </TTGlyph>
    <TTGlyph name="guillemotleft" xMin="123" yMin="54" xMax="901" yMax="586">
      <component glyphName="guilsinglleft" x="-128" y="0" flags="0x0"/>
      <component glyphName="guilsinglleft" x="256" y="0" flags="0x0"/>
    </TTGlyph>
    <TTGlyph name="guillemotright" xMin="123" yMin="54" xMax="901" yMax="586">
      <component glyphName="guilsinglright" x="-256" y="0" flags="0x0"/>
      <component glyphName="guilsinglright" x="128" y="0" flags="0x0"/>
    </TTGlyph>
    <TTGlyph name="guilsinglleft" xMin="251" yMin="54" xMax="645" yMax="586">
      <component glyphName="pixel.1" x="512" y="0" flags="0x0"/>
      <component glyphName="pixel.2" x="384" y="128" flags="0x0"/>
      <component glyphName="pixel.2" x="256" y="256" flags="0x0"/>
      <component glyphName="pixel.2" x="384" y="384" flags="0x0"/>
      <component glyphName="pixel.1" x="512" y="512" flags="0x0"/>
    </TTGlyph>
    <TTGlyph name="guilsinglright" xMin="379" yMin="54" xMax="773" yMax="586">
      <component glyphName="pixel.1" x="384" y="0" flags="0x0"/>
      <component glyphName="pixel.2" x="384" y="128" flags="0x0"/>
      <component glyphName="pixel.2" x="512" y="256" flags="0x0"/>
      <component glyphName="pixel.2" x="384" y="384" flags="0x0"/>
      <component glyphName="pixel.1" x="384" y="512" flags="0x0"/>
    </TTGlyph>
    <TTGlyph name="h" xMin="123" yMin="54" xMax="901" yMax="714">
      <component glyphName="pixel.2" x="128" y="0" flags="0x0"/>
      <component glyphName="pixel.2" x="640" y="0" flags="0x0"/>
      <component glyphName="pixel.2" x="128" y="128" flags="0x0"/>
      <component glyphName="pixel.2" x="640" y="128" flags="0x0"/>
      <component glyphName="pixel.2" x="128" y="256" flags="0x0"/>
      <component glyphName="pixel.2" x="640" y="256" flags="0x0"/>
      <component glyphName="pixel.5" x="128" y="384" flags="0x0"/>
      <component glyphName="pixel.2" x="128" y="512" flags="0x0"/>
      <component glyphName="pixel.2" x="128" y="640" flags="0x0"/>
    </TTGlyph>
    <TTGlyph name="heart" xMin="123" yMin="54" xMax="1029" yMax="842">
      <component glyphName="pixel.1" x="512" y="0" flags="0x0"/>
      <component glyphName="pixel.3" x="384" y="128" flags="0x0"/>
      <component glyphName="pixel.5" x="256" y="256" flags="0x0"/>
      <component glyphName="pixel.7" x="128" y="384" flags="0x0"/>
      <component glyphName="pixel.7" x="128" y="512" flags="0x0"/>
      <component glyphName="pixel.7" x="128" y="640" flags="0x0"/>
      <component glyphName="pixel.2" x="256" y="768" flags="0x0"/>
      <component glyphName="pixel.2" x="640" y="768" flags="0x0"/>
    </TTGlyph>
    <TTGlyph name="hyphen" xMin="123" yMin="438" xMax="901" yMax="458">
      <component glyphName="pixel.6" x="128" y="384" flags="0x0"/>
    </TTGlyph>
    <TTGlyph name="i" xMin="251" yMin="54" xMax="773" yMax="714">
      <component glyphName="pixel.4" x="256" y="0" flags="0x0"/>
      <component glyphName="pixel.2" x="384" y="128" flags="0x0"/>
      <component glyphName="pixel.2" x="384" y="256" flags="0x0"/>
      <component glyphName="pixel.3" x="256" y="384" flags="0x0"/>
      <component glyphName="pixel.2" x="384" y="640" flags="0x0"/>
    </TTGlyph>
    <TTGlyph name="iacute" xMin="251" yMin="54" xMax="773" yMax="842">
      <component glyphName="dotlessi" x="0" y="0" flags="0x200"/>
      <component glyphName="acute" x="0" y="0" flags="0x0"/>
    </TTGlyph>
    <TTGlyph name="icircumflex" xMin="123" yMin="54" xMax="901" yMax="842">
      <component glyphName="dotlessi" x="0" y="0" flags="0x0"/>
      <component glyphName="circumflex" x="0" y="0" flags="0x200"/>
    </TTGlyph>
    <TTGlyph name="idieresis" xMin="123" yMin="54" xMax="901" yMax="714">
      <component glyphName="dotlessi" x="0" y="0" flags="0x0"/>
      <component glyphName="dieresis" x="0" y="-128" flags="0x200"/>
    </TTGlyph>
    <TTGlyph name="igrave" xMin="251" yMin="54" xMax="773" yMax="842">
      <component glyphName="dotlessi" x="0" y="0" flags="0x200"/>
      <component glyphName="grave" x="0" y="0" flags="0x0"/>
    </TTGlyph>
    <TTGlyph name="infinity" xMin="123" yMin="182" xMax="1029" yMax="586">
      <component glyphName="pixel.2" x="256" y="128" flags="0x0"/>
      <component glyphName="pixel.2" x="640" y="128" flags="0x0"/>
      <component glyphName="pixel.2" x="128" y="256" flags="0x0"/>
      <component glyphName="pixel.1" x="512" y="256" flags="0x0"/>
      <component glyphName="pixel.2" x="768" y="256" flags="0x0"/>
      <component glyphName="pixel.2" x="128" y="384" flags="0x0"/>
      <component glyphName="pixel.1" x="512" y="384" flags="0x0"/>
      <component glyphName="pixel.2" x="768" y="384" flags="0x0"/>
      <component glyphName="pixel.2" x="256" y="512" flags="0x0"/>
      <component glyphName="pixel.2" x="640" y="512" flags="0x0"/>
    </TTGlyph>
    <TTGlyph name="integral" xMin="123" yMin="-74" xMax="901" yMax="842">
      <component glyphName="pixel.3" x="128" y="-128" flags="0x0"/>
      <component glyphName="pixel.2" x="384" y="0" flags="0x0"/>
      <component glyphName="pixel.2" x="384" y="128" flags="0x0"/>
      <component glyphName="pixel.2" x="384" y="256" flags="0x0"/>
      <component glyphName="pixel.2" x="384" y="384" flags="0x0"/>
      <component glyphName="pixel.2" x="384" y="512" flags="0x0"/>
      <component glyphName="pixel.2" x="384" y="640" flags="0x0"/>
      <component glyphName="pixel.3" x="512" y="768" flags="0x0"/>
    </TTGlyph>
    <TTGlyph name="invbullet" xMin="-5" yMin="-74" xMax="1029" yMax="842">
      <component glyphName="pixel.8" x="0" y="-128" flags="0x200"/>
      <component glyphName="pixel.2" x="0" y="0" flags="0x0"/>
      <component glyphName="pixel.2" x="768" y="0" flags="0x0"/>
      <component glyphName="pixel.1" x="0" y="128" flags="0x0"/>
      <component glyphName="pixel.1" x="896" y="128" flags="0x0"/>
      <component glyphName="pixel.1" x="0" y="256" flags="0x0"/>
      <component glyphName="pixel.1" x="896" y="256" flags="0x0"/>
      <component glyphName="pixel.1" x="0" y="384" flags="0x0"/>
      <component glyphName="pixel.1" x="896" y="384" flags="0x0"/>
      <component glyphName="pixel.1" x="0" y="512" flags="0x0"/>
      <component glyphName="pixel.1" x="896" y="512" flags="0x0"/>
      <component glyphName="pixel.2" x="0" y="640" flags="0x0"/>
      <component glyphName="pixel.2" x="768" y="640" flags="0x0"/>
      <component glyphName="pixel.8" x="0" y="768" flags="0x0"/>
    </TTGlyph>
    <TTGlyph name="invcircle" xMin="-5" yMin="-74" xMax="1029" yMax="842">
      <component glyphName="pixel.8" x="0" y="-128" flags="0x200"/>
      <component glyphName="pixel.2" x="0" y="0" flags="0x0"/>
      <component glyphName="pixel.2" x="768" y="0" flags="0x0"/>
      <component glyphName="pixel.1" x="0" y="128" flags="0x0"/>
      <component glyphName="pixel.1" x="896" y="128" flags="0x0"/>
      <component glyphName="pixel.1" x="0" y="256" flags="0x0"/>
      <component glyphName="pixel.2" x="384" y="256" flags="0x0"/>
      <component glyphName="pixel.1" x="896" y="256" flags="0x0"/>
      <component glyphName="pixel.1" x="0" y="384" flags="0x0"/>
      <component glyphName="pixel.2" x="384" y="384" flags="0x0"/>
      <component glyphName="pixel.1" x="896" y="384" flags="0x0"/>
      <component glyphName="pixel.1" x="0" y="512" flags="0x0"/>
      <component glyphName="pixel.1" x="896" y="512" flags="0x0"/>
      <component glyphName="pixel.2" x="0" y="640" flags="0x0"/>
      <component glyphName="pixel.2" x="768" y="640" flags="0x0"/>
      <component glyphName="pixel.8" x="0" y="768" flags="0x0"/>
    </TTGlyph>
    <TTGlyph name="j" xMin="251" yMin="-74" xMax="901" yMax="714">
      <component glyphName="pixel.4" x="256" y="-128" flags="0x0"/>
      <component glyphName="pixel.2" x="640" y="0" flags="0x0"/>
      <component glyphName="pixel.2" x="640" y="128" flags="0x0"/>
      <component glyphName="pixel.2" x="640" y="256" flags="0x0"/>
      <component glyphName="pixel.2" x="640" y="384" flags="0x0"/>
      <component glyphName="pixel.2" x="640" y="640" flags="0x0"/>
    </TTGlyph>
    <TTGlyph name="k" xMin="123" yMin="54" xMax="901" yMax="714">
      <component glyphName="pixel.2" x="128" y="0" flags="0x0"/>
      <component glyphName="pixel.2" x="640" y="0" flags="0x0"/>
      <component glyphName="pixel.2" x="128" y="128" flags="0x0"/>
      <component glyphName="pixel.2" x="512" y="128" flags="0x0"/>
      <component glyphName="pixel.4" x="128" y="256" flags="0x0"/>
      <component glyphName="pixel.2" x="128" y="384" flags="0x0"/>
      <component glyphName="pixel.2" x="512" y="384" flags="0x0"/>
      <component glyphName="pixel.2" x="128" y="512" flags="0x0"/>
      <component glyphName="pixel.2" x="128" y="640" flags="0x0"/>
    </TTGlyph>
    <TTGlyph name="l" xMin="251" yMin="54" xMax="773" yMax="714">
      <component glyphName="pixel.4" x="256" y="0" flags="0x0"/>
      <component glyphName="pixel.2" x="384" y="128" flags="0x0"/>
      <component glyphName="pixel.2" x="384" y="256" flags="0x0"/>
      <component glyphName="pixel.2" x="384" y="384" flags="0x0"/>
      <component glyphName="pixel.2" x="384" y="512" flags="0x0"/>
      <component glyphName="pixel.3" x="256" y="640" flags="0x0"/>
    </TTGlyph>
    <TTGlyph name="less" xMin="123" yMin="54" xMax="901" yMax="842">
      <component glyphName="pixel.3" x="512" y="0" flags="0x0"/>
      <component glyphName="pixel.2" x="384" y="128" flags="0x0"/>
      <component glyphName="pixel.2" x="256" y="256" flags="0x0"/>
      <component glyphName="pixel.2" x="128" y="384" flags="0x0"/>
      <component glyphName="pixel.2" x="256" y="512" flags="0x0"/>
      <component glyphName="pixel.2" x="384" y="640" flags="0x0"/>
      <component glyphName="pixel.3" x="512" y="768" flags="0x0"/>
    </TTGlyph>
    <TTGlyph name="lessequal" xMin="251" yMin="54" xMax="901" yMax="842">
      <component glyphName="pixel.5" x="256" y="0" flags="0x0"/>
      <component glyphName="pixel.2" x="512" y="256" flags="0x0"/>
      <component glyphName="pixel.2" x="384" y="384" flags="0x0"/>
      <component glyphName="pixel.2" x="256" y="512" flags="0x0"/>
      <component glyphName="pixel.2" x="384" y="640" flags="0x0"/>
      <component glyphName="pixel.2" x="512" y="768" flags="0x0"/>
    </TTGlyph>
    <TTGlyph name="lfblock" xMin="-5" yMin="-74" xMax="517" yMax="842">
      <component glyphName="pixel.4" x="0" y="-128" flags="0x200"/>
      <component glyphName="pixel.4" x="0" y="0" flags="0x0"/>
      <component glyphName="pixel.4" x="0" y="128" flags="0x0"/>
      <component glyphName="pixel.4" x="0" y="256" flags="0x0"/>
      <component glyphName="pixel.4" x="0" y="384" flags="0x0"/>
      <component glyphName="pixel.4" x="0" y="512" flags="0x0"/>
      <component glyphName="pixel.4" x="0" y="640" flags="0x0"/>
      <component glyphName="pixel.4" x="0" y="768" flags="0x0"/>
    </TTGlyph>
    <TTGlyph name="logicalnot" xMin="123" yMin="182" xMax="901" yMax="458">
      <component glyphName="pixel.2" x="640" y="128" flags="0x0"/>
      <component glyphName="pixel.2" x="640" y="256" flags="0x0"/>
      <component glyphName="pixel.6" x="128" y="384" flags="0x0"/>
    </TTGlyph>
    <TTGlyph name="longs" xMin="379" yMin="54" xMax="901" yMax="714">
      <component glyphName="pixel.2" x="384" y="0" flags="0x0"/>
      <component glyphName="pixel.2" x="384" y="128" flags="0x0"/>
      <component glyphName="pixel.2" x="384" y="256" flags="0x0"/>
      <component glyphName="pixel.2" x="384" y="384" flags="0x0"/>
      <component glyphName="pixel.2" x="384" y="512" flags="0x0"/>
      <component glyphName="pixel.3" x="512" y="640" flags="0x0"/>
    </TTGlyph>
    <TTGlyph name="lozenge" xMin="123" yMin="182" xMax="901" yMax="714">
      <component glyphName="pixel.2" x="384" y="128" flags="0x0"/>
      <component glyphName="pixel.4" x="256" y="256" flags="0x0"/>
      <component glyphName="pixel.2" x="128" y="384" flags="0x0"/>
      <component glyphName="pixel.2" x="640" y="384" flags="0x0"/>
      <component glyphName="pixel.4" x="256" y="512" flags="0x0"/>
      <component glyphName="pixel.2" x="384" y="640" flags="0x0"/>
    </TTGlyph>
    <TTGlyph name="m" xMin="123" yMin="54" xMax="1029" yMax="586">
      <component glyphName="pixel.2" x="128" y="0" flags="0x0"/>
      <component glyphName="pixel.2" x="768" y="0" flags="0x0"/>
      <component glyphName="pixel.2" x="128" y="128" flags="0x0"/>
      <component glyphName="pixel.1" x="512" y="128" flags="0x0"/>
      <component glyphName="pixel.2" x="768" y="128" flags="0x0"/>
      <component glyphName="pixel.7" x="128" y="256" flags="0x0"/>
      <component glyphName="pixel.7" x="128" y="384" flags="0x0"/>
      <component glyphName="pixel.2" x="128" y="512" flags="0x0"/>
      <component glyphName="pixel.2" x="640" y="512" flags="0x0"/>
    </TTGlyph>
    <TTGlyph name="macron" xMin="251" yMin="822" xMax="773" yMax="842">
      <component glyphName="pixel.4" x="256" y="768" flags="0x0"/>
    </TTGlyph>
    <TTGlyph name="minus" xMin="123" yMin="438" xMax="901" yMax="458">
      <component glyphName="hyphen" x="0" y="0" flags="0x200"/>
    </TTGlyph>
    <TTGlyph name="multiply" xMin="123" yMin="54" xMax="901" yMax="586">
      <component glyphName="x" x="0" y="0" flags="0x200"/>
    </TTGlyph>
    <TTGlyph name="n" xMin="123" yMin="54" xMax="901" yMax="586">
      <component glyphName="pixel.2" x="128" y="0" flags="0x0"/>
      <component glyphName="pixel.2" x="640" y="0" flags="0x0"/>
      <component glyphName="pixel.2" x="128" y="128" flags="0x0"/>
      <component glyphName="pixel.2" x="640" y="128" flags="0x0"/>
      <component glyphName="pixel.2" x="128" y="256" flags="0x0"/>
      <component glyphName="pixel.2" x="640" y="256" flags="0x0"/>
      <component glyphName="pixel.2" x="128" y="384" flags="0x0"/>
      <component glyphName="pixel.2" x="640" y="384" flags="0x0"/>
      <component glyphName="pixel.5" x="128" y="512" flags="0x0"/>
    </TTGlyph>
    <TTGlyph name="nine" xMin="123" yMin="54" xMax="901" yMax="842">
      <component glyphName="pixel.4" x="256" y="0" flags="0x0"/>
      <component glyphName="pixel.2" x="128" y="128" flags="0x0"/>
      <component glyphName="pixel.2" x="640" y="128" flags="0x0"/>
      <component glyphName="pixel.2" x="640" y="256" flags="0x0"/>
      <component glyphName="pixel.5" x="256" y="384" flags="0x0"/>
      <component glyphName="pixel.2" x="128" y="512" flags="0x0"/>
      <component glyphName="pixel.2" x="640" y="512" flags="0x0"/>
      <component glyphName="pixel.2" x="128" y="640" flags="0x0"/>
      <component glyphName="pixel.2" x="640" y="640" flags="0x0"/>
      <component glyphName="pixel.4" x="256" y="768" flags="0x0"/>
    </TTGlyph>
    <TTGlyph name="notequal" xMin="123" yMin="54" xMax="901" yMax="842">
      <component glyphName="pixel.2" x="128" y="0" flags="0x0"/>
      <component glyphName="pixel.2" x="256" y="128" flags="0x0"/>
      <component glyphName="pixel.6" x="128" y="256" flags="0x0"/>
      <component glyphName="pixel.2" x="384" y="384" flags="0x0"/>
      <component glyphName="pixel.6" x="128" y="512" flags="0x0"/>
      <component glyphName="pixel.2" x="512" y="640" flags="0x0"/>
      <component glyphName="pixel.2" x="640" y="768" flags="0x0"/>
    </TTGlyph>
    <TTGlyph name="ntilde" xMin="123" yMin="54" xMax="1029" yMax="842">
      <component glyphName="n" x="0" y="0" flags="0x200"/>
      <component glyphName="tilde" x="0" y="0" flags="0x0"/>
    </TTGlyph>
    <TTGlyph name="numbersign" xMin="-5" yMin="54" xMax="1029" yMax="842">
      <component glyphName="pixel.2" x="128" y="0" flags="0x200"/>
      <component glyphName="pixel.2" x="640" y="0" flags="0x0"/>
      <component glyphName="pixel.2" x="128" y="128" flags="0x0"/>
      <component glyphName="pixel.2" x="640" y="128" flags="0x0"/>
      <component glyphName="pixel.8" x="0" y="256" flags="0x0"/>
      <component glyphName="pixel.2" x="128" y="384" flags="0x0"/>
      <component glyphName="pixel.2" x="640" y="384" flags="0x0"/>
      <component glyphName="pixel.8" x="0" y="512" flags="0x0"/>
      <component glyphName="pixel.2" x="128" y="640" flags="0x0"/>
      <component glyphName="pixel.2" x="640" y="640" flags="0x0"/>
      <component glyphName="pixel.2" x="128" y="768" flags="0x0"/>
      <component glyphName="pixel.2" x="640" y="768" flags="0x0"/>
    </TTGlyph>
    <TTGlyph name="o" xMin="123" yMin="54" xMax="901" yMax="586">
      <component glyphName="pixel.4" x="256" y="0" flags="0x0"/>
      <component glyphName="pixel.2" x="128" y="128" flags="0x0"/>
      <component glyphName="pixel.2" x="640" y="128" flags="0x0"/>
      <component glyphName="pixel.2" x="128" y="256" flags="0x0"/>
      <component glyphName="pixel.2" x="640" y="256" flags="0x0"/>
      <component glyphName="pixel.2" x="128" y="384" flags="0x0"/>
      <component glyphName="pixel.2" x="640" y="384" flags="0x0"/>
      <component glyphName="pixel.4" x="256" y="512" flags="0x0"/>
    </TTGlyph>
    <TTGlyph name="oacute" xMin="123" yMin="54" xMax="901" yMax="842">
      <component glyphName="o" x="0" y="0" flags="0x200"/>
      <component glyphName="acute" x="0" y="0" flags="0x0"/>
    </TTGlyph>
    <TTGlyph name="ocircumflex" xMin="123" yMin="54" xMax="901" yMax="842">
      <component glyphName="o" x="0" y="0" flags="0x200"/>
      <component glyphName="circumflex" x="0" y="0" flags="0x0"/>
    </TTGlyph>
    <TTGlyph name="odieresis" xMin="123" yMin="54" xMax="901" yMax="842">
      <component glyphName="o" x="0" y="0" flags="0x200"/>
      <component glyphName="dieresis" x="0" y="0" flags="0x0"/>
    </TTGlyph>
    <TTGlyph name="oe" xMin="123" yMin="54" xMax="1029" yMax="586">
      <component glyphName="pixel.6" x="256" y="0" flags="0x0"/>
      <component glyphName="pixel.2" x="128" y="128" flags="0x0"/>
      <component glyphName="pixel.2" x="512" y="128" flags="0x0"/>
      <component glyphName="pixel.2" x="128" y="256" flags="0x0"/>
      <component glyphName="pixel.4" x="512" y="256" flags="0x0"/>
      <component glyphName="pixel.2" x="128" y="384" flags="0x0"/>
      <component glyphName="pixel.2" x="512" y="384" flags="0x0"/>
      <component glyphName="pixel.1" x="896" y="384" flags="0x0"/>
      <component glyphName="pixel.5" x="256" y="512" flags="0x0"/>
    </TTGlyph>
    <TTGlyph name="ograve" xMin="123" yMin="54" xMax="901" yMax="842">
      <component glyphName="o" x="0" y="0" flags="0x200"/>
      <component glyphName="grave" x="0" y="0" flags="0x0"/>
    </TTGlyph>
    <TTGlyph name="one" xMin="123" yMin="54" xMax="901" yMax="842">
      <component glyphName="pixel.6" x="128" y="0" flags="0x0"/>
      <component glyphName="pixel.2" x="384" y="128" flags="0x0"/>
      <component glyphName="pixel.2" x="384" y="256" flags="0x0"/>
      <component glyphName="pixel.2" x="384" y="384" flags="0x0"/>
      <component glyphName="pixel.3" x="256" y="512" flags="0x0"/>
      <component glyphName="pixel.2" x="384" y="640" flags="0x0"/>
      <component glyphName="pixel.2" x="384" y="768" flags="0x0"/>
    </TTGlyph>
    <TTGlyph name="onehalf" xMin="123" yMin="-74" xMax="1029" yMax="842">
      <component glyphName="pixel.3" x="640" y="-128" flags="0x0"/>
      <component glyphName="pixel.2" x="128" y="0" flags="0x0"/>
      <component glyphName="pixel.1" x="768" y="0" flags="0x0"/>
      <component glyphName="pixel.2" x="256" y="128" flags="0x0"/>
      <component glyphName="pixel.1" x="896" y="128" flags="0x0"/>
      <component glyphName="pixel.4" x="384" y="256" flags="0x0"/>
      <component glyphName="pixel.1" x="256" y="384" flags="0x0"/>
      <component glyphName="pixel.2" x="512" y="384" flags="0x0"/>
      <component glyphName="pixel.1" x="256" y="512" flags="0x0"/>
      <component glyphName="pixel.2" x="640" y="512" flags="0x0"/>
      <component glyphName="pixel.2" x="128" y="640" flags="0x0"/>
      <component glyphName="pixel.2" x="768" y="640" flags="0x0"/>
      <component glyphName="pixel.1" x="256" y="768" flags="0x0"/>
    </TTGlyph>
    <TTGlyph name="onequarter" xMin="123" yMin="-74" xMax="1029" yMax="842">
      <component glyphName="pixel.1" x="768" y="-128" flags="0x0"/>
      <component glyphName="pixel.2" x="128" y="0" flags="0x0"/>
      <component glyphName="pixel.3" x="640" y="0" flags="0x0"/>
      <component glyphName="pixel.2" x="256" y="128" flags="0x0"/>
      <component glyphName="pixel.2" x="640" y="128" flags="0x0"/>
      <component glyphName="pixel.3" x="384" y="256" flags="0x0"/>
      <component glyphName="pixel.1" x="256" y="384" flags="0x0"/>
      <component glyphName="pixel.2" x="512" y="384" flags="0x0"/>
      <component glyphName="pixel.1" x="256" y="512" flags="0x0"/>
      <component glyphName="pixel.2" x="640" y="512" flags="0x0"/>
      <component glyphName="pixel.2" x="128" y="640" flags="0x0"/>
      <component glyphName="pixel.2" x="768" y="640" flags="0x0"/>
      <component glyphName="pixel.1" x="256" y="768" flags="0x0"/>
    </TTGlyph>
    <TTGlyph name="ordfeminine" xMin="123" yMin="310" xMax="901" yMax="842">
      <component glyphName="pixel.5" x="256" y="256" flags="0x0"/>
      <component glyphName="pixel.2" x="128" y="384" flags="0x0"/>
      <component glyphName="pixel.2" x="640" y="384" flags="0x0"/>
      <component glyphName="pixel.5" x="256" y="512" flags="0x0"/>
      <component glyphName="pixel.2" x="640" y="640" flags="0x0"/>
      <component glyphName="pixel.4" x="256" y="768" flags="0x0"/>
    </TTGlyph>
    <TTGlyph name="ordmasculine" xMin="123" yMin="310" xMax="901" yMax="842">
      <component glyphName="pixel.4" x="256" y="256" flags="0x0"/>
      <component glyphName="pixel.2" x="128" y="384" flags="0x0"/>
      <component glyphName="pixel.2" x="640" y="384" flags="0x0"/>
      <component glyphName="pixel.2" x="128" y="512" flags="0x0"/>
      <component glyphName="pixel.2" x="640" y="512" flags="0x0"/>
      <component glyphName="pixel.2" x="128" y="640" flags="0x0"/>
      <component glyphName="pixel.2" x="640" y="640" flags="0x0"/>
      <component glyphName="pixel.4" x="256" y="768" flags="0x0"/>
    </TTGlyph>
    <TTGlyph name="oslash" xMin="123" yMin="-74" xMax="901" yMax="714">
      <component glyphName="pixel.2" x="128" y="-128" flags="0x0"/>
      <component glyphName="pixel.4" x="256" y="0" flags="0x0"/>
      <component glyphName="pixel.2" x="128" y="128" flags="0x0"/>
      <component glyphName="pixel.2" x="640" y="128" flags="0x0"/>
      <component glyphName="pixel.2" x="128" y="256" flags="0x0"/>
      <component glyphName="pixel.2" x="640" y="256" flags="0x0"/>
      <component glyphName="pixel.2" x="128" y="384" flags="0x0"/>
      <component glyphName="pixel.2" x="640" y="384" flags="0x0"/>
      <component glyphName="pixel.4" x="256" y="512" flags="0x0"/>
      <component glyphName="pixel.2" x="640" y="640" flags="0x0"/>
    </TTGlyph>
    <TTGlyph name="otilde" xMin="123" yMin="54" xMax="1029" yMax="842">
      <component glyphName="o" x="0" y="0" flags="0x200"/>
      <component glyphName="tilde" x="0" y="0" flags="0x0"/>
    </TTGlyph>
    <TTGlyph name="p" xMin="123" yMin="-74" xMax="901" yMax="586">
      <component glyphName="pixel.2" x="128" y="-128" flags="0x0"/>
      <component glyphName="pixel.2" x="128" y="0" flags="0x0"/>
      <component glyphName="pixel.5" x="128" y="128" flags="0x0"/>
      <component glyphName="pixel.2" x="128" y="256" flags="0x0"/>
      <component glyphName="pixel.2" x="640" y="256" flags="0x0"/>
      <component glyphName="pixel.2" x="128" y="384" flags="0x0"/>
      <component glyphName="pixel.2" x="640" y="384" flags="0x0"/>
      <component glyphName="pixel.5" x="128" y="512" flags="0x0"/>
    </TTGlyph>
    <TTGlyph name="paragraph" xMin="123" yMin="-74" xMax="901" yMax="842">
      <component glyphName="pixel.2" x="640" y="-128" flags="0x0"/>
      <component glyphName="pixel.2" x="640" y="0" flags="0x0"/>
      <component glyphName="pixel.2" x="640" y="128" flags="0x0"/>
      <component glyphName="pixel.2" x="640" y="256" flags="0x0"/>
      <component glyphName="pixel.5" x="256" y="384" flags="0x0"/>
      <component glyphName="pixel.2" x="128" y="512" flags="0x0"/>
      <component glyphName="pixel.2" x="640" y="512" flags="0x0"/>
      <component glyphName="pixel.2" x="128" y="640" flags="0x0"/>
      <component glyphName="pixel.2" x="640" y="640" flags="0x0"/>
      <component glyphName="pixel.5" x="256" y="768" flags="0x0"/>
    </TTGlyph>
    <TTGlyph name="parenleft" xMin="251" yMin="54" xMax="773" yMax="842">
      <component glyphName="pixel.2" x="512" y="0" flags="0x0"/>
      <component glyphName="pixel.2" x="384" y="128" flags="0x0"/>
      <component glyphName="pixel.2" x="256" y="256" flags="0x0"/>
      <component glyphName="pixel.2" x="256" y="384" flags="0x0"/>
      <component glyphName="pixel.2" x="256" y="512" flags="0x0"/>
      <component glyphName="pixel.2" x="384" y="640" flags="0x0"/>
      <component glyphName="pixel.2" x="512" y="768" flags="0x0"/>
    </TTGlyph>
    <TTGlyph name="parenright" xMin="251" yMin="54" xMax="773" yMax="842">
      <component glyphName="pixel.2" x="256" y="0" flags="0x0"/>
      <component glyphName="pixel.2" x="384" y="128" flags="0x0"/>
      <component glyphName="pixel.2" x="512" y="256" flags="0x0"/>
      <component glyphName="pixel.2" x="512" y="384" flags="0x0"/>
      <component glyphName="pixel.2" x="512" y="512" flags="0x0"/>
      <component glyphName="pixel.2" x="384" y="640" flags="0x0"/>
      <component glyphName="pixel.2" x="256" y="768" flags="0x0"/>
    </TTGlyph>
    <TTGlyph name="partialdiff" xMin="123" yMin="54" xMax="901" yMax="714">
      <component glyphName="pixel.4" x="256" y="0" flags="0x0"/>
      <component glyphName="pixel.2" x="128" y="128" flags="0x0"/>
      <component glyphName="pixel.2" x="640" y="128" flags="0x0"/>
      <component glyphName="pixel.2" x="128" y="256" flags="0x0"/>
      <component glyphName="pixel.2" x="640" y="256" flags="0x0"/>
      <component glyphName="pixel.5" x="256" y="384" flags="0x0"/>
      <component glyphName="pixel.2" x="640" y="512" flags="0x0"/>
      <component glyphName="pixel.4" x="256" y="640" flags="0x0"/>
    </TTGlyph>
    <TTGlyph name="percent" xMin="123" yMin="54" xMax="901" yMax="842">
      <component glyphName="pixel.1" x="128" y="0" flags="0x0"/>
      <component glyphName="pixel.2" x="640" y="0" flags="0x0"/>
      <component glyphName="pixel.2" x="128" y="128" flags="0x0"/>
      <component glyphName="pixel.2" x="640" y="128" flags="0x0"/>
      <component glyphName="pixel.2" x="256" y="256" flags="0x0"/>
      <component glyphName="pixel.2" x="384" y="384" flags="0x0"/>
      <component glyphName="pixel.2" x="512" y="512" flags="0x0"/>
      <component glyphName="pixel.2" x="128" y="640" flags="0x0"/>
      <component glyphName="pixel.2" x="640" y="640" flags="0x0"/>
      <component glyphName="pixel.2" x="128" y="768" flags="0x0"/>
      <component glyphName="pixel.1" x="768" y="768" flags="0x0"/>
    </TTGlyph>
    <TTGlyph name="period" xMin="379" yMin="54" xMax="645" yMax="202">
      <component glyphName="pixel.2" x="384" y="0" flags="0x0"/>
      <component glyphName="pixel.2" x="384" y="128" flags="0x0"/>
    </TTGlyph>
    <TTGlyph name="periodcentered" xMin="379" yMin="310" xMax="645" yMax="458">
      <component glyphName="period" x="0" y="256" flags="0x200"/>
    </TTGlyph>
    <TTGlyph name="perthousand" xMin="123" yMin="54" xMax="901" yMax="842">
      <component glyphName="pixel.1" x="512" y="0" flags="0x0"/>
      <component glyphName="pixel.1" x="768" y="0" flags="0x0"/>
      <component glyphName="pixel.1" x="128" y="128" flags="0x0"/>
      <component glyphName="pixel.1" x="512" y="128" flags="0x0"/>
      <component glyphName="pixel.1" x="768" y="128" flags="0x0"/>
      <component glyphName="pixel.2" x="128" y="256" flags="0x0"/>
      <component glyphName="pixel.2" x="256" y="384" flags="0x0"/>
      <component glyphName="pixel.2" x="384" y="512" flags="0x0"/>
      <component glyphName="pixel.1" x="128" y="640" flags="0x0"/>
      <component glyphName="pixel.2" x="512" y="640" flags="0x0"/>
      <component glyphName="pixel.1" x="128" y="768" flags="0x0"/>
      <component glyphName="pixel.1" x="640" y="768" flags="0x0"/>
    </TTGlyph>
    <TTGlyph name="pi" xMin="123" yMin="54" xMax="1029" yMax="586">
      <component glyphName="pixel.2" x="256" y="0" flags="0x0"/>
      <component glyphName="pixel.2" x="640" y="0" flags="0x0"/>
      <component glyphName="pixel.2" x="256" y="128" flags="0x0"/>
      <component glyphName="pixel.2" x="640" y="128" flags="0x0"/>
      <component glyphName="pixel.3" x="128" y="256" flags="0x0"/>
      <component glyphName="pixel.2" x="640" y="256" flags="0x0"/>
      <component glyphName="pixel.5" x="256" y="384" flags="0x0"/>
      <component glyphName="pixel.2" x="768" y="512" flags="0x0"/>
    </TTGlyph>
    <TTGlyph name="pixel.1" xMin="-5" yMin="54" xMax="133" yMax="74">
      <contour>
        <pt x="7" y="54" on="1"/>
        <pt x="1" y="54" on="0"/>
        <pt x="-5" y="60" on="0"/>
        <pt x="-5" y="68" on="0"/>
        <pt x="1" y="74" on="0"/>
        <pt x="7" y="74" on="1"/>
        <pt x="121" y="74" on="1"/>
        <pt x="127" y="74" on="0"/>
        <pt x="133" y="68" on="0"/>
        <pt x="133" y="60" on="0"/>
        <pt x="127" y="54" on="0"/>
        <pt x="121" y="54" on="1"/>
      </contour>
    </TTGlyph>
    <TTGlyph name="pixel.2" xMin="-5" yMin="54" xMax="261" yMax="74">
      <contour>
        <pt x="7" y="54" on="1"/>
        <pt x="1" y="54" on="0"/>
        <pt x="-5" y="60" on="0"/>
        <pt x="-5" y="68" on="0"/>
        <pt x="1" y="74" on="0"/>
        <pt x="7" y="74" on="1"/>
        <pt x="249" y="74" on="1"/>
        <pt x="255" y="74" on="0"/>
        <pt x="261" y="68" on="0"/>
        <pt x="261" y="60" on="0"/>
        <pt x="255" y="54" on="0"/>
        <pt x="249" y="54" on="1"/>
      </contour>
    </TTGlyph>
    <TTGlyph name="pixel.3" xMin="-5" yMin="54" xMax="389" yMax="74">
      <contour>
        <pt x="7" y="54" on="1"/>
        <pt x="1" y="54" on="0"/>
        <pt x="-5" y="60" on="0"/>
        <pt x="-5" y="68" on="0"/>
        <pt x="1" y="74" on="0"/>
        <pt x="7" y="74" on="1"/>
        <pt x="377" y="74" on="1"/>
        <pt x="383" y="74" on="0"/>
        <pt x="389" y="68" on="0"/>
        <pt x="389" y="60" on="0"/>
        <pt x="383" y="54" on="0"/>
        <pt x="377" y="54" on="1"/>
      </contour>
    </TTGlyph>
    <TTGlyph name="pixel.4" xMin="-5" yMin="54" xMax="517" yMax="74">
      <contour>
        <pt x="7" y="54" on="1"/>
        <pt x="1" y="54" on="0"/>
        <pt x="-5" y="60" on="0"/>
        <pt x="-5" y="68" on="0"/>
        <pt x="1" y="74" on="0"/>
        <pt x="7" y="74" on="1"/>
        <pt x="505" y="74" on="1"/>
        <pt x="511" y="74" on="0"/>
        <pt x="517" y="68" on="0"/>
        <pt x="517" y="60" on="0"/>
        <pt x="511" y="54" on="0"/>
        <pt x="505" y="54" on="1"/>
      </contour>
    </TTGlyph>
    <TTGlyph name="pixel.5" xMin="-5" yMin="54" xMax="645" yMax="74">
      <contour>
        <pt x="7" y="54" on="1"/>
        <pt x="1" y="54" on="0"/>
        <pt x="-5" y="60" on="0"/>
        <pt x="-5" y="68" on="0"/>
        <pt x="1" y="74" on="0"/>
        <pt x="7" y="74" on="1"/>
        <pt x="633" y="74" on="1"/>
        <pt x="639" y="74" on="0"/>
        <pt x="645" y="68" on="0"/>
        <pt x="645" y="60" on="0"/>
        <pt x="639" y="54" on="0"/>
        <pt x="633" y="54" on="1"/>
      </contour>
    </TTGlyph>
    <TTGlyph name="pixel.6" xMin="-5" yMin="54" xMax="773" yMax="74">
      <contour>
        <pt x="7" y="54" on="1"/>
        <pt x="1" y="54" on="0"/>
        <pt x="-5" y="60" on="0"/>
        <pt x="-5" y="68" on="0"/>
        <pt x="1" y="74" on="0"/>
        <pt x="7" y="74" on="1"/>
        <pt x="761" y="74" on="1"/>
        <pt x="767" y="74" on="0"/>
        <pt x="773" y="68" on="0"/>
        <pt x="773" y="60" on="0"/>
        <pt x="767" y="54" on="0"/>
        <pt x="761" y="54" on="1"/>
      </contour>
    </TTGlyph>
    <TTGlyph name="pixel.7" xMin="-5" yMin="54" xMax="901" yMax="74">
      <contour>
        <pt x="7" y="54" on="1"/>
        <pt x="1" y="54" on="0"/>
        <pt x="-5" y="60" on="0"/>
        <pt x="-5" y="68" on="0"/>
        <pt x="1" y="74" on="0"/>
        <pt x="7" y="74" on="1"/>
        <pt x="889" y="74" on="1"/>
        <pt x="895" y="74" on="0"/>
        <pt x="901" y="68" on="0"/>
        <pt x="901" y="60" on="0"/>
        <pt x="895" y="54" on="0"/>
        <pt x="889" y="54" on="1"/>
      </contour>
    </TTGlyph>
    <TTGlyph name="pixel.8" xMin="-5" yMin="54" xMax="1029" yMax="74">
      <contour>
        <pt x="7" y="54" on="1"/>
        <pt x="1" y="54" on="0"/>
        <pt x="-5" y="60" on="0"/>
        <pt x="-5" y="68" on="0"/>
        <pt x="1" y="74" on="0"/>
        <pt x="7" y="74" on="1"/>
        <pt x="1017" y="74" on="1"/>
        <pt x="1023" y="74" on="0"/>
        <pt x="1029" y="68" on="0"/>
        <pt x="1029" y="60" on="0"/>
        <pt x="1023" y="54" on="0"/>
        <pt x="1017" y="54" on="1"/>
      </contour>
    </TTGlyph>
    <TTGlyph name="plus" xMin="123" yMin="182" xMax="901" yMax="714">
      <component glyphName="pixel.2" x="384" y="128" flags="0x0"/>
      <component glyphName="pixel.2" x="384" y="256" flags="0x0"/>
      <component glyphName="pixel.6" x="128" y="384" flags="0x0"/>
      <component glyphName="pixel.2" x="384" y="512" flags="0x0"/>
      <component glyphName="pixel.2" x="384" y="640" flags="0x0"/>
    </TTGlyph>
    <TTGlyph name="plusminus" xMin="123" yMin="54" xMax="901" yMax="714">
      <component glyphName="pixel.6" x="128" y="0" flags="0x0"/>
      <component glyphName="pixel.2" x="384" y="128" flags="0x0"/>
      <component glyphName="pixel.2" x="384" y="256" flags="0x0"/>
      <component glyphName="pixel.6" x="128" y="384" flags="0x0"/>
      <component glyphName="pixel.2" x="384" y="512" flags="0x0"/>
      <component glyphName="pixel.2" x="384" y="640" flags="0x0"/>
    </TTGlyph>
    <TTGlyph name="product" xMin="123" yMin="-74" xMax="901" yMax="842">
      <component glyphName="pixel.2" x="128" y="-128" flags="0x0"/>
      <component glyphName="pixel.2" x="640" y="-128" flags="0x0"/>
      <component glyphName="pixel.2" x="128" y="0" flags="0x0"/>
      <component glyphName="pixel.2" x="640" y="0" flags="0x0"/>
      <component glyphName="pixel.2" x="128" y="128" flags="0x0"/>
      <component glyphName="pixel.2" x="640" y="128" flags="0x0"/>
      <component glyphName="pixel.2" x="128" y="256" flags="0x0"/>
      <component glyphName="pixel.2" x="640" y="256" flags="0x0"/>
      <component glyphName="pixel.2" x="128" y="384" flags="0x0"/>
      <component glyphName="pixel.2" x="640" y="384" flags="0x0"/>
      <component glyphName="pixel.2" x="128" y="512" flags="0x0"/>
      <component glyphName="pixel.2" x="640" y="512" flags="0x0"/>
      <component glyphName="pixel.2" x="128" y="640" flags="0x0"/>
      <component glyphName="pixel.2" x="640" y="640" flags="0x0"/>
      <component glyphName="pixel.6" x="128" y="768" flags="0x0"/>
    </TTGlyph>
    <TTGlyph name="q" xMin="123" yMin="-74" xMax="901" yMax="586">
      <component glyphName="pixel.2" x="640" y="-128" flags="0x0"/>
      <component glyphName="pixel.2" x="640" y="0" flags="0x0"/>
      <component glyphName="pixel.5" x="256" y="128" flags="0x0"/>
      <component glyphName="pixel.2" x="128" y="256" flags="0x0"/>
      <component glyphName="pixel.2" x="640" y="256" flags="0x0"/>
      <component glyphName="pixel.2" x="128" y="384" flags="0x0"/>
      <component glyphName="pixel.2" x="640" y="384" flags="0x0"/>
      <component glyphName="pixel.5" x="256" y="512" flags="0x0"/>
    </TTGlyph>
    <TTGlyph name="question" xMin="123" yMin="54" xMax="901" yMax="842">
      <component glyphName="pixel.2" x="384" y="0" flags="0x0"/>
      <component glyphName="pixel.2" x="384" y="256" flags="0x0"/>
      <component glyphName="pixel.2" x="512" y="384" flags="0x0"/>
      <component glyphName="pixel.2" x="640" y="512" flags="0x0"/>
      <component glyphName="pixel.2" x="128" y="640" flags="0x0"/>
      <component glyphName="pixel.2" x="640" y="640" flags="0x0"/>
      <component glyphName="pixel.4" x="256" y="768" flags="0x0"/>
    </TTGlyph>
    <TTGlyph name="questiondown" xMin="123" yMin="54" xMax="901" yMax="842">
      <component glyphName="pixel.4" x="256" y="0" flags="0x0"/>
      <component glyphName="pixel.2" x="128" y="128" flags="0x0"/>
      <component glyphName="pixel.2" x="640" y="128" flags="0x0"/>
      <component glyphName="pixel.2" x="128" y="256" flags="0x0"/>
      <component glyphName="pixel.2" x="256" y="384" flags="0x0"/>
      <component glyphName="pixel.2" x="384" y="512" flags="0x0"/>
      <component glyphName="pixel.2" x="384" y="768" flags="0x0"/>
    </TTGlyph>
    <TTGlyph name="quotedbl" xMin="123" yMin="566" xMax="901" yMax="842">
      <component glyphName="pixel.2" x="128" y="512" flags="0x0"/>
      <component glyphName="pixel.2" x="640" y="512" flags="0x0"/>
      <component glyphName="pixel.2" x="128" y="640" flags="0x0"/>
      <component glyphName="pixel.2" x="640" y="640" flags="0x0"/>
      <component glyphName="pixel.2" x="128" y="768" flags="0x0"/>
      <component glyphName="pixel.2" x="640" y="768" flags="0x0"/>
    </TTGlyph>
    <TTGlyph name="quotedblbase" xMin="-5" yMin="-74" xMax="901" yMax="202">
      <component glyphName="pixel.2" x="0" y="-128" flags="0x200"/>
      <component glyphName="pixel.2" x="512" y="-128" flags="0x0"/>
      <component glyphName="pixel.2" x="128" y="0" flags="0x0"/>
      <component glyphName="pixel.2" x="640" y="0" flags="0x0"/>
      <component glyphName="pixel.2" x="128" y="128" flags="0x0"/>
      <component glyphName="pixel.2" x="640" y="128" flags="0x0"/>
    </TTGlyph>
    <TTGlyph name="quotedblleft" xMin="123" yMin="566" xMax="1029" yMax="842">
      <component glyphName="pixel.2" x="128" y="512" flags="0x0"/>
      <component glyphName="pixel.2" x="640" y="512" flags="0x0"/>
      <component glyphName="pixel.2" x="128" y="640" flags="0x0"/>
      <component glyphName="pixel.2" x="640" y="640" flags="0x0"/>
      <component glyphName="pixel.2" x="256" y="768" flags="0x0"/>
      <component glyphName="pixel.2" x="768" y="768" flags="0x0"/>
    </TTGlyph>
    <TTGlyph name="quotedblright" xMin="-5" yMin="566" xMax="901" yMax="842">
      <component glyphName="quotedblbase" x="0" y="640" flags="0x200"/>
    </TTGlyph>
    <TTGlyph name="quoteleft" xMin="251" yMin="566" xMax="645" yMax="842">
      <component glyphName="pixel.2" x="256" y="512" flags="0x0"/>
      <component glyphName="pixel.2" x="256" y="640" flags="0x0"/>
      <component glyphName="pixel.2" x="384" y="768" flags="0x0"/>
    </TTGlyph>
    <TTGlyph name="quoteright" xMin="251" yMin="566" xMax="645" yMax="842">
      <component glyphName="comma" x="0" y="640" flags="0x200"/>
    </TTGlyph>
    <TTGlyph name="quotesinglbase" xMin="251" yMin="-74" xMax="645" yMax="202">
      <component glyphName="comma" x="0" y="0" flags="0x200"/>
    </TTGlyph>
    <TTGlyph name="quotesingle" xMin="251" yMin="566" xMax="773" yMax="842">
      <component glyphName="pixel.2" x="256" y="512" flags="0x0"/>
      <component glyphName="pixel.2" x="384" y="640" flags="0x0"/>
      <component glyphName="pixel.2" x="512" y="768" flags="0x0"/>
    </TTGlyph>
    <TTGlyph name="r" xMin="123" yMin="54" xMax="901" yMax="586">
      <component glyphName="pixel.2" x="128" y="0" flags="0x0"/>
      <component glyphName="pixel.2" x="128" y="128" flags="0x0"/>
      <component glyphName="pixel.2" x="128" y="256" flags="0x0"/>
      <component glyphName="pixel.2" x="128" y="384" flags="0x0"/>
      <component glyphName="pixel.2" x="640" y="384" flags="0x0"/>
      <component glyphName="pixel.5" x="128" y="512" flags="0x0"/>
    </TTGlyph>
    <TTGlyph name="radical" xMin="123" yMin="54" xMax="1029" yMax="842">
      <component glyphName="pixel.2" x="128" y="0" flags="0x0"/>
      <component glyphName="pixel.3" x="128" y="128" flags="0x0"/>
      <component glyphName="pixel.4" x="128" y="256" flags="0x0"/>
      <component glyphName="pixel.2" x="128" y="384" flags="0x0"/>
      <component glyphName="pixel.2" x="512" y="384" flags="0x0"/>
      <component glyphName="pixel.2" x="640" y="512" flags="0x0"/>
      <component glyphName="pixel.2" x="768" y="640" flags="0x0"/>
      <component glyphName="pixel.1" x="896" y="768" flags="0x0"/>
    </TTGlyph>
    <TTGlyph name="registered" xMin="123" yMin="54" xMax="1029" yMax="842">
      <component glyphName="pixel.3" x="384" y="0" flags="0x0"/>
      <component glyphName="pixel.1" x="256" y="128" flags="0x0"/>
      <component glyphName="pixel.1" x="768" y="128" flags="0x0"/>
      <component glyphName="pixel.1" x="128" y="256" flags="0x0"/>
      <component glyphName="pixel.1" x="384" y="256" flags="0x0"/>
      <component glyphName="pixel.1" x="640" y="256" flags="0x0"/>
      <component glyphName="pixel.1" x="896" y="256" flags="0x0"/>
      <component glyphName="pixel.1" x="128" y="384" flags="0x0"/>
      <component glyphName="pixel.2" x="384" y="384" flags="0x0"/>
      <component glyphName="pixel.1" x="896" y="384" flags="0x0"/>
      <component glyphName="pixel.1" x="128" y="512" flags="0x0"/>
      <component glyphName="pixel.3" x="384" y="512" flags="0x0"/>
      <component glyphName="pixel.1" x="896" y="512" flags="0x0"/>
      <component glyphName="pixel.1" x="256" y="640" flags="0x0"/>
      <component glyphName="pixel.1" x="768" y="640" flags="0x0"/>
      <component glyphName="pixel.3" x="384" y="768" flags="0x0"/>
    </TTGlyph>
    <TTGlyph name="ring" xMin="123" yMin="566" xMax="901" yMax="842">
      <component glyphName="pixel.4" x="256" y="512" flags="0x0"/>
      <component glyphName="pixel.2" x="128" y="640" flags="0x0"/>
      <component glyphName="pixel.2" x="640" y="640" flags="0x0"/>
      <component glyphName="pixel.4" x="256" y="768" flags="0x0"/>
    </TTGlyph>
    <TTGlyph name="rtblock" xMin="507" yMin="-74" xMax="1029" yMax="842">
      <component glyphName="lfblock" x="512" y="0" flags="0x0"/>
    </TTGlyph>
    <TTGlyph name="s" xMin="123" yMin="54" xMax="901" yMax="586">
      <component glyphName="pixel.5" x="128" y="0" flags="0x0"/>
      <component glyphName="pixel.2" x="640" y="128" flags="0x0"/>
      <component glyphName="pixel.4" x="256" y="256" flags="0x0"/>
      <component glyphName="pixel.2" x="128" y="384" flags="0x0"/>
      <component glyphName="pixel.5" x="256" y="512" flags="0x0"/>
    </TTGlyph>
    <TTGlyph name="section" xMin="123" yMin="54" xMax="901" yMax="842">
      <component glyphName="pixel.5" x="128" y="0" flags="0x0"/>
      <component glyphName="pixel.2" x="640" y="128" flags="0x0"/>
      <component glyphName="pixel.5" x="256" y="256" flags="0x0"/>
      <component glyphName="pixel.2" x="128" y="384" flags="0x0"/>
      <component glyphName="pixel.2" x="640" y="384" flags="0x0"/>
      <component glyphName="pixel.5" x="128" y="512" flags="0x0"/>
      <component glyphName="pixel.2" x="128" y="640" flags="0x0"/>
      <component glyphName="pixel.5" x="256" y="768" flags="0x0"/>
    </TTGlyph>
    <TTGlyph name="semicolon" xMin="251" yMin="-74" xMax="645" yMax="586">
      <component glyphName="pixel.2" x="256" y="-128" flags="0x0"/>
      <component glyphName="pixel.2" x="384" y="0" flags="0x0"/>
      <component glyphName="pixel.2" x="384" y="128" flags="0x0"/>
      <component glyphName="pixel.2" x="384" y="512" flags="0x0"/>
    </TTGlyph>
    <TTGlyph name="seven" xMin="123" yMin="54" xMax="901" yMax="842">
      <component glyphName="pixel.2" x="384" y="0" flags="0x0"/>
      <component glyphName="pixel.2" x="384" y="128" flags="0x0"/>
      <component glyphName="pixel.2" x="384" y="256" flags="0x0"/>
      <component glyphName="pixel.2" x="384" y="384" flags="0x0"/>
      <component glyphName="pixel.2" x="512" y="512" flags="0x0"/>
      <component glyphName="pixel.2" x="128" y="640" flags="0x0"/>
      <component glyphName="pixel.2" x="640" y="640" flags="0x0"/>
      <component glyphName="pixel.6" x="128" y="768" flags="0x0"/>
    </TTGlyph>
    <TTGlyph name="six" xMin="123" yMin="54" xMax="901" yMax="842">
      <component glyphName="pixel.4" x="256" y="0" flags="0x0"/>
      <component glyphName="pixel.2" x="128" y="128" flags="0x0"/>
      <component glyphName="pixel.2" x="640" y="128" flags="0x0"/>
      <component glyphName="pixel.2" x="128" y="256" flags="0x0"/>
      <component glyphName="pixel.2" x="640" y="256" flags="0x0"/>
      <component glyphName="pixel.5" x="128" y="384" flags="0x0"/>
      <component glyphName="pixel.2" x="128" y="512" flags="0x0"/>
      <component glyphName="pixel.2" x="128" y="640" flags="0x0"/>
      <component glyphName="pixel.2" x="640" y="640" flags="0x0"/>
      <component glyphName="pixel.4" x="256" y="768" flags="0x0"/>
    </TTGlyph>
    <TTGlyph name="slash" xMin="123" yMin="54" xMax="1029" yMax="714">
      <component glyphName="pixel.2" x="128" y="0" flags="0x0"/>
      <component glyphName="pixel.2" x="256" y="128" flags="0x0"/>
      <component glyphName="pixel.2" x="384" y="256" flags="0x0"/>
      <component glyphName="pixel.2" x="512" y="384" flags="0x0"/>
      <component glyphName="pixel.2" x="640" y="512" flags="0x0"/>
      <component glyphName="pixel.2" x="768" y="640" flags="0x0"/>
    </TTGlyph>
    <TTGlyph name="spade" xMin="123" yMin="54" xMax="1029" yMax="842">
      <component glyphName="pixel.5" x="256" y="0" flags="0x0"/>
      <component glyphName="pixel.3" x="384" y="128" flags="0x0"/>
      <component glyphName="pixel.7" x="128" y="256" flags="0x0"/>
      <component glyphName="pixel.7" x="128" y="384" flags="0x0"/>
      <component glyphName="pixel.5" x="256" y="512" flags="0x0"/>
      <component glyphName="pixel.3" x="384" y="640" flags="0x0"/>
      <component glyphName="pixel.1" x="512" y="768" flags="0x0"/>
    </TTGlyph>
    <TTGlyph name="sterling" xMin="-5" yMin="54" xMax="901" yMax="842">
      <component glyphName="pixel.6" x="0" y="0" flags="0x200"/>
      <component glyphName="pixel.2" x="128" y="128" flags="0x0"/>
      <component glyphName="pixel.1" x="768" y="128" flags="0x0"/>
      <component glyphName="pixel.2" x="256" y="256" flags="0x0"/>
      <component glyphName="pixel.5" x="128" y="384" flags="0x0"/>
      <component glyphName="pixel.2" x="256" y="512" flags="0x0"/>
      <component glyphName="pixel.1" x="384" y="640" flags="0x0"/>
      <component glyphName="pixel.1" x="768" y="640" flags="0x0"/>
      <component glyphName="pixel.2" x="512" y="768" flags="0x0"/>
    </TTGlyph>
    <TTGlyph name="summation" xMin="123" yMin="-74" xMax="901" yMax="842">
      <component glyphName="pixel.6" x="128" y="-128" flags="0x0"/>
      <component glyphName="pixel.2" x="128" y="0" flags="0x0"/>
      <component glyphName="pixel.2" x="256" y="128" flags="0x0"/>
      <component glyphName="pixel.2" x="384" y="256" flags="0x0"/>
      <component glyphName="pixel.2" x="384" y="384" flags="0x0"/>
      <component glyphName="pixel.2" x="256" y="512" flags="0x0"/>
      <component glyphName="pixel.2" x="128" y="640" flags="0x0"/>
      <component glyphName="pixel.6" x="128" y="768" flags="0x0"/>
    </TTGlyph>
    <TTGlyph name="t" xMin="123" yMin="54" xMax="901" yMax="714">
      <component glyphName="pixel.3" x="512" y="0" flags="0x0"/>
      <component glyphName="pixel.2" x="384" y="128" flags="0x0"/>
      <component glyphName="pixel.2" x="384" y="256" flags="0x0"/>
      <component glyphName="pixel.2" x="384" y="384" flags="0x0"/>
      <component glyphName="pixel.6" x="128" y="512" flags="0x0"/>
      <component glyphName="pixel.2" x="384" y="640" flags="0x0"/>
    </TTGlyph>
    <TTGlyph name="thorn" xMin="123" yMin="-74" xMax="901" yMax="714">
      <component glyphName="pixel.2" x="128" y="-128" flags="0x0"/>
      <component glyphName="pixel.2" x="128" y="0" flags="0x0"/>
      <component glyphName="pixel.5" x="128" y="128" flags="0x0"/>
      <component glyphName="pixel.2" x="128" y="256" flags="0x0"/>
      <component glyphName="pixel.2" x="640" y="256" flags="0x0"/>
      <component glyphName="pixel.2" x="128" y="384" flags="0x0"/>
      <component glyphName="pixel.2" x="640" y="384" flags="0x0"/>
      <component glyphName="pixel.5" x="128" y="512" flags="0x0"/>
      <component glyphName="pixel.2" x="128" y="640" flags="0x0"/>
    </TTGlyph>
    <TTGlyph name="three" xMin="123" yMin="54" xMax="901" yMax="842">
      <component glyphName="pixel.4" x="256" y="0" flags="0x0"/>
      <component glyphName="pixel.2" x="128" y="128" flags="0x0"/>
      <component glyphName="pixel.2" x="640" y="128" flags="0x0"/>
      <component glyphName="pixel.2" x="640" y="256" flags="0x0"/>
      <component glyphName="pixel.3" x="384" y="384" flags="0x0"/>
      <component glyphName="pixel.2" x="640" y="512" flags="0x0"/>
      <component glyphName="pixel.2" x="128" y="640" flags="0x0"/>
      <component glyphName="pixel.2" x="640" y="640" flags="0x0"/>
      <component glyphName="pixel.4" x="256" y="768" flags="0x0"/>
    </TTGlyph>
    <TTGlyph name="threequarters" xMin="123" yMin="-74" xMax="1029" yMax="842">
      <component glyphName="pixel.1" x="768" y="-128" flags="0x0"/>
      <component glyphName="pixel.2" x="128" y="0" flags="0x0"/>
      <component glyphName="pixel.3" x="640" y="0" flags="0x0"/>
      <component glyphName="pixel.2" x="256" y="128" flags="0x0"/>
      <component glyphName="pixel.2" x="640" y="128" flags="0x0"/>
      <component glyphName="pixel.3" x="384" y="256" flags="0x0"/>
      <component glyphName="pixel.2" x="128" y="384" flags="0x0"/>
      <component glyphName="pixel.2" x="512" y="384" flags="0x0"/>
      <component glyphName="pixel.2" x="256" y="512" flags="0x0"/>
      <component glyphName="pixel.2" x="640" y="512" flags="0x0"/>
      <component glyphName="pixel.2" x="256" y="640" flags="0x0"/>
      <component glyphName="pixel.2" x="768" y="640" flags="0x0"/>
      <component glyphName="pixel.2" x="128" y="768" flags="0x0"/>
    </TTGlyph>
    <TTGlyph name="tilde" xMin="123" yMin="694" xMax="1029" yMax="842">
      <component glyphName="pixel.2" x="128" y="640" flags="0x0"/>
      <component glyphName="pixel.3" x="512" y="640" flags="0x0"/>
      <component glyphName="pixel.3" x="256" y="768" flags="0x0"/>
      <component glyphName="pixel.2" x="768" y="768" flags="0x0"/>
    </TTGlyph>
    <TTGlyph name="trademark" xMin="123" yMin="566" xMax="1029" yMax="842">
      <component glyphName="pixel.1" x="256" y="512" flags="0x0"/>
      <component glyphName="pixel.1" x="512" y="512" flags="0x0"/>
      <component glyphName="pixel.1" x="896" y="512" flags="0x0"/>
      <component glyphName="pixel.1" x="256" y="640" flags="0x0"/>
      <component glyphName="pixel.4" x="512" y="640" flags="0x0"/>
      <component glyphName="pixel.7" x="128" y="768" flags="0x0"/>
    </TTGlyph>
    <TTGlyph name="two" xMin="123" yMin="54" xMax="901" yMax="842">
      <component glyphName="pixel.6" x="128" y="0" flags="0x0"/>
      <component glyphName="pixel.2" x="128" y="128" flags="0x0"/>
      <component glyphName="pixel.2" x="256" y="256" flags="0x0"/>
      <component glyphName="pixel.2" x="512" y="384" flags="0x0"/>
      <component glyphName="pixel.2" x="640" y="512" flags="0x0"/>
      <component glyphName="pixel.2" x="128" y="640" flags="0x0"/>
      <component glyphName="pixel.2" x="640" y="640" flags="0x0"/>
      <component glyphName="pixel.4" x="256" y="768" flags="0x0"/>
    </TTGlyph>
    <TTGlyph name="u" xMin="123" yMin="54" xMax="901" yMax="586">
      <component glyphName="pixel.5" x="256" y="0" flags="0x0"/>
      <component glyphName="pixel.2" x="128" y="128" flags="0x0"/>
      <component glyphName="pixel.2" x="640" y="128" flags="0x0"/>
      <component glyphName="pixel.2" x="128" y="256" flags="0x0"/>
      <component glyphName="pixel.2" x="640" y="256" flags="0x0"/>
      <component glyphName="pixel.2" x="128" y="384" flags="0x0"/>
      <component glyphName="pixel.2" x="640" y="384" flags="0x0"/>
      <component glyphName="pixel.2" x="128" y="512" flags="0x0"/>
      <component glyphName="pixel.2" x="640" y="512" flags="0x0"/>
    </TTGlyph>
    <TTGlyph name="uacute" xMin="123" yMin="54" xMax="901" yMax="842">
      <component glyphName="u" x="0" y="0" flags="0x200"/>
      <component glyphName="acute" x="0" y="0" flags="0x0"/>
    </TTGlyph>
    <TTGlyph name="ucircumflex" xMin="123" yMin="54" xMax="901" yMax="842">
      <component glyphName="u" x="0" y="0" flags="0x200"/>
      <component glyphName="circumflex" x="0" y="0" flags="0x0"/>
    </TTGlyph>
    <TTGlyph name="udieresis" xMin="123" yMin="54" xMax="901" yMax="842">
      <component glyphName="u" x="0" y="0" flags="0x200"/>
      <component glyphName="dieresis" x="0" y="0" flags="0x0"/>
    </TTGlyph>
    <TTGlyph name="ugrave" xMin="123" yMin="54" xMax="901" yMax="842">
      <component glyphName="u" x="0" y="0" flags="0x200"/>
      <component glyphName="grave" x="0" y="0" flags="0x0"/>
    </TTGlyph>
    <TTGlyph name="underscore" xMin="123" yMin="-74" xMax="901" yMax="-54">
      <component glyphName="pixel.6" x="128" y="-128" flags="0x0"/>
    </TTGlyph>
    <TTGlyph name="uni00AD" xMin="123" yMin="438" xMax="901" yMax="458">
      <component glyphName="hyphen" x="0" y="0" flags="0x200"/>
    </TTGlyph>
    <TTGlyph name="uni00B2" xMin="251" yMin="310" xMax="773" yMax="842">
      <component glyphName="pixel.4" x="256" y="256" flags="0x0"/>
      <component glyphName="pixel.2" x="256" y="384" flags="0x0"/>
      <component glyphName="pixel.2" x="384" y="512" flags="0x0"/>
      <component glyphName="pixel.2" x="512" y="640" flags="0x0"/>
      <component glyphName="pixel.3" x="256" y="768" flags="0x0"/>
    </TTGlyph>
    <TTGlyph name="uni00B3" xMin="251" yMin="310" xMax="773" yMax="842">
      <component glyphName="pixel.3" x="256" y="256" flags="0x0"/>
      <component glyphName="pixel.2" x="512" y="384" flags="0x0"/>
      <component glyphName="pixel.2" x="384" y="512" flags="0x0"/>
      <component glyphName="pixel.2" x="512" y="640" flags="0x0"/>
      <component glyphName="pixel.3" x="256" y="768" flags="0x0"/>
    </TTGlyph>
    <TTGlyph name="uni00B5" xMin="123" yMin="-74" xMax="901" yMax="586">
      <component glyphName="uni03BC" x="0" y="0" flags="0x200"/>
    </TTGlyph>
    <TTGlyph name="uni00B9" xMin="251" yMin="310" xMax="773" yMax="842">
      <component glyphName="pixel.4" x="256" y="256" flags="0x0"/>
      <component glyphName="pixel.2" x="384" y="384" flags="0x0"/>
      <component glyphName="pixel.2" x="384" y="512" flags="0x0"/>
      <component glyphName="pixel.3" x="256" y="640" flags="0x0"/>
      <component glyphName="pixel.2" x="384" y="768" flags="0x0"/>
    </TTGlyph>
    <TTGlyph name="uni0394" xMin="123" yMin="54" xMax="1029" yMax="842">
      <component glyphName="pixel.7" x="128" y="0" flags="0x0"/>
      <component glyphName="pixel.2" x="128" y="128" flags="0x0"/>
      <component glyphName="pixel.2" x="768" y="128" flags="0x0"/>
      <component glyphName="pixel.2" x="128" y="256" flags="0x0"/>
      <component glyphName="pixel.2" x="768" y="256" flags="0x0"/>
      <component glyphName="pixel.2" x="256" y="384" flags="0x0"/>
      <component glyphName="pixel.2" x="640" y="384" flags="0x0"/>
      <component glyphName="pixel.2" x="256" y="512" flags="0x0"/>
      <component glyphName="pixel.2" x="640" y="512" flags="0x0"/>
      <component glyphName="pixel.3" x="384" y="640" flags="0x0"/>
      <component glyphName="pixel.3" x="384" y="768" flags="0x0"/>
    </TTGlyph>
    <TTGlyph name="uni03A9" xMin="123" yMin="54" xMax="1029" yMax="842">
      <component glyphName="pixel.3" x="128" y="0" flags="0x0"/>
      <component glyphName="pixel.3" x="640" y="0" flags="0x0"/>
      <component glyphName="pixel.2" x="256" y="128" flags="0x0"/>
      <component glyphName="pixel.2" x="640" y="128" flags="0x0"/>
      <component glyphName="pixel.2" x="128" y="256" flags="0x0"/>
      <component glyphName="pixel.2" x="768" y="256" flags="0x0"/>
      <component glyphName="pixel.2" x="128" y="384" flags="0x0"/>
      <component glyphName="pixel.2" x="768" y="384" flags="0x0"/>
      <component glyphName="pixel.2" x="128" y="512" flags="0x0"/>
      <component glyphName="pixel.2" x="768" y="512" flags="0x0"/>
      <component glyphName="pixel.2" x="128" y="640" flags="0x0"/>
      <component glyphName="pixel.2" x="768" y="640" flags="0x0"/>
      <component glyphName="pixel.5" x="256" y="768" flags="0x0"/>
    </TTGlyph>
    <TTGlyph name="uni03BC" xMin="123" yMin="-74" xMax="901" yMax="586">
      <component glyphName="pixel.2" x="128" y="-128" flags="0x0"/>
      <component glyphName="pixel.6" x="128" y="0" flags="0x0"/>
      <component glyphName="pixel.2" x="128" y="128" flags="0x0"/>
      <component glyphName="pixel.2" x="640" y="128" flags="0x0"/>
      <component glyphName="pixel.2" x="128" y="256" flags="0x0"/>
      <component glyphName="pixel.2" x="640" y="256" flags="0x0"/>
      <component glyphName="pixel.2" x="128" y="384" flags="0x0"/>
      <component glyphName="pixel.2" x="640" y="384" flags="0x0"/>
      <component glyphName="pixel.2" x="128" y="512" flags="0x0"/>
      <component glyphName="pixel.2" x="640" y="512" flags="0x0"/>
    </TTGlyph>
    <TTGlyph name="uni2126" xMin="123" yMin="54" xMax="1029" yMax="842">
      <component glyphName="uni03A9" x="0" y="0" flags="0x200"/>
    </TTGlyph>
    <TTGlyph name="uni2206" xMin="123" yMin="54" xMax="1029" yMax="842">
      <component glyphName="uni0394" x="0" y="0" flags="0x200"/>
    </TTGlyph>
    <TTGlyph name="uni2215" xMin="123" yMin="54" xMax="1029" yMax="714">
      <component glyphName="slash" x="0" y="0" flags="0x200"/>
    </TTGlyph>
    <TTGlyph name="uni2501" xMin="-5" yMin="310" xMax="1029" yMax="458">
      <component glyphName="pixel.8" x="0" y="256" flags="0x200"/>
      <component glyphName="pixel.8" x="0" y="384" flags="0x0"/>
    </TTGlyph>
    <TTGlyph name="uni2503" xMin="379" yMin="-74" xMax="645" yMax="842">
      <component glyphName="pixel.2" x="384" y="-128" flags="0x0"/>
      <component glyphName="pixel.2" x="384" y="0" flags="0x0"/>
      <component glyphName="pixel.2" x="384" y="128" flags="0x0"/>
      <component glyphName="pixel.2" x="384" y="256" flags="0x0"/>
      <component glyphName="pixel.2" x="384" y="384" flags="0x0"/>
      <component glyphName="pixel.2" x="384" y="512" flags="0x0"/>
      <component glyphName="pixel.2" x="384" y="640" flags="0x0"/>
      <component glyphName="pixel.2" x="384" y="768" flags="0x0"/>
    </TTGlyph>
    <TTGlyph name="uni250F" xMin="379" yMin="-74" xMax="1029" yMax="458">
      <component glyphName="pixel.2" x="384" y="-128" flags="0x0"/>
      <component glyphName="pixel.2" x="384" y="0" flags="0x0"/>
      <component glyphName="pixel.2" x="384" y="128" flags="0x0"/>
      <component glyphName="pixel.5" x="384" y="256" flags="0x0"/>
      <component glyphName="pixel.5" x="384" y="384" flags="0x0"/>
    </TTGlyph>
    <TTGlyph name="uni2513" xMin="-5" yMin="-74" xMax="645" yMax="458">
      <component glyphName="pixel.2" x="384" y="-128" flags="0x200"/>
      <component glyphName="pixel.2" x="384" y="0" flags="0x0"/>
      <component glyphName="pixel.2" x="384" y="128" flags="0x0"/>
      <component glyphName="pixel.5" x="0" y="256" flags="0x0"/>
      <component glyphName="pixel.5" x="0" y="384" flags="0x0"/>
    </TTGlyph>
    <TTGlyph name="uni2517" xMin="379" yMin="310" xMax="1029" yMax="842">
      <component glyphName="pixel.5" x="384" y="256" flags="0x0"/>
      <component glyphName="pixel.5" x="384" y="384" flags="0x0"/>
      <component glyphName="pixel.2" x="384" y="512" flags="0x0"/>
      <component glyphName="pixel.2" x="384" y="640" flags="0x0"/>
      <component glyphName="pixel.2" x="384" y="768" flags="0x0"/>
    </TTGlyph>
    <TTGlyph name="uni251B" xMin="-5" yMin="310" xMax="645" yMax="842">
      <component glyphName="pixel.5" x="0" y="256" flags="0x200"/>
      <component glyphName="pixel.5" x="0" y="384" flags="0x0"/>
      <component glyphName="pixel.2" x="384" y="512" flags="0x0"/>
      <component glyphName="pixel.2" x="384" y="640" flags="0x0"/>
      <component glyphName="pixel.2" x="384" y="768" flags="0x0"/>
    </TTGlyph>
    <TTGlyph name="uni2523" xMin="379" yMin="-74" xMax="1029" yMax="842">
      <component glyphName="pixel.2" x="384" y="-128" flags="0x0"/>
      <component glyphName="pixel.2" x="384" y="0" flags="0x0"/>
      <component glyphName="pixel.2" x="384" y="128" flags="0x0"/>
      <component glyphName="pixel.5" x="384" y="256" flags="0x0"/>
      <component glyphName="pixel.5" x="384" y="384" flags="0x0"/>
      <component glyphName="pixel.2" x="384" y="512" flags="0x0"/>
      <component glyphName="pixel.2" x="384" y="640" flags="0x0"/>
      <component glyphName="pixel.2" x="384" y="768" flags="0x0"/>
    </TTGlyph>
    <TTGlyph name="uni252B" xMin="-5" yMin="-74" xMax="645" yMax="842">
      <component glyphName="pixel.2" x="384" y="-128" flags="0x200"/>
      <component glyphName="pixel.2" x="384" y="0" flags="0x0"/>
      <component glyphName="pixel.2" x="384" y="128" flags="0x0"/>
      <component glyphName="pixel.5" x="0" y="256" flags="0x0"/>
      <component glyphName="pixel.5" x="0" y="384" flags="0x0"/>
      <component glyphName="pixel.2" x="384" y="512" flags="0x0"/>
      <component glyphName="pixel.2" x="384" y="640" flags="0x0"/>
      <component glyphName="pixel.2" x="384" y="768" flags="0x0"/>
    </TTGlyph>
    <TTGlyph name="uni2533" xMin="-5" yMin="-74" xMax="1029" yMax="458">
      <component glyphName="pixel.2" x="384" y="-128" flags="0x200"/>
      <component glyphName="pixel.2" x="384" y="0" flags="0x0"/>
      <component glyphName="pixel.2" x="384" y="128" flags="0x0"/>
      <component glyphName="pixel.8" x="0" y="256" flags="0x0"/>
      <component glyphName="pixel.8" x="0" y="384" flags="0x0"/>
    </TTGlyph>
    <TTGlyph name="uni253B" xMin="-5" yMin="310" xMax="1029" yMax="842">
      <component glyphName="pixel.8" x="0" y="256" flags="0x200"/>
      <component glyphName="pixel.8" x="0" y="384" flags="0x0"/>
      <component glyphName="pixel.2" x="384" y="512" flags="0x0"/>
      <component glyphName="pixel.2" x="384" y="640" flags="0x0"/>
      <component glyphName="pixel.2" x="384" y="768" flags="0x0"/>
    </TTGlyph>
    <TTGlyph name="uni254B" xMin="-5" yMin="-74" xMax="1029" yMax="842">
      <component glyphName="pixel.2" x="384" y="-128" flags="0x200"/>
      <component glyphName="pixel.2" x="384" y="0" flags="0x0"/>
      <component glyphName="pixel.2" x="384" y="128" flags="0x0"/>
      <component glyphName="pixel.8" x="0" y="256" flags="0x0"/>
      <component glyphName="pixel.8" x="0" y="384" flags="0x0"/>
      <component glyphName="pixel.2" x="384" y="512" flags="0x0"/>
      <component glyphName="pixel.2" x="384" y="640" flags="0x0"/>
      <component glyphName="pixel.2" x="384" y="768" flags="0x0"/>
    </TTGlyph>
    <TTGlyph name="uni256D" xMin="379" yMin="-74" xMax="1029" yMax="458">
      <component glyphName="pixel.2" x="384" y="-128" flags="0x0"/>
      <component glyphName="pixel.2" x="384" y="0" flags="0x0"/>
      <component glyphName="pixel.3" x="384" y="128" flags="0x0"/>
      <component glyphName="pixel.4" x="512" y="256" flags="0x0"/>
      <component glyphName="pixel.3" x="640" y="384" flags="0x0"/>
    </TTGlyph>
    <TTGlyph name="uni256E" xMin="-5" yMin="-74" xMax="645" yMax="458">
      <component glyphName="pixel.2" x="384" y="-128" flags="0x200"/>
      <component glyphName="pixel.2" x="384" y="0" flags="0x0"/>
      <component glyphName="pixel.3" x="256" y="128" flags="0x0"/>
      <component glyphName="pixel.4" x="0" y="256" flags="0x0"/>
      <component glyphName="pixel.3" x="0" y="384" flags="0x0"/>
    </TTGlyph>
    <TTGlyph name="uni256F" xMin="-5" yMin="310" xMax="645" yMax="842">
      <component glyphName="pixel.3" x="0" y="256" flags="0x200"/>
      <component glyphName="pixel.4" x="0" y="384" flags="0x0"/>
      <component glyphName="pixel.3" x="256" y="512" flags="0x0"/>
      <component glyphName="pixel.2" x="384" y="640" flags="0x0"/>
      <component glyphName="pixel.2" x="384" y="768" flags="0x0"/>
    </TTGlyph>
    <TTGlyph name="uni2570" xMin="379" yMin="310" xMax="1029" yMax="842">
      <component glyphName="pixel.3" x="640" y="256" flags="0x0"/>
      <component glyphName="pixel.4" x="512" y="384" flags="0x0"/>
      <component glyphName="pixel.3" x="384" y="512" flags="0x0"/>
      <component glyphName="pixel.2" x="384" y="640" flags="0x0"/>
      <component glyphName="pixel.2" x="384" y="768" flags="0x0"/>
    </TTGlyph>
    <TTGlyph name="uni2571" xMin="-5" yMin="-74" xMax="1029" yMax="842">
      <component glyphName="pixel.2" x="0" y="-128" flags="0x200"/>
      <component glyphName="pixel.3" x="0" y="0" flags="0x0"/>
      <component glyphName="pixel.3" x="128" y="128" flags="0x0"/>
      <component glyphName="pixel.3" x="256" y="256" flags="0x0"/>
      <component glyphName="pixel.3" x="384" y="384" flags="0x0"/>
      <component glyphName="pixel.3" x="512" y="512" flags="0x0"/>
      <component glyphName="pixel.3" x="640" y="640" flags="0x0"/>
      <component glyphName="pixel.2" x="768" y="768" flags="0x0"/>
    </TTGlyph>
    <TTGlyph name="uni2572" xMin="-5" yMin="-74" xMax="1029" yMax="842">
      <component glyphName="pixel.2" x="768" y="-128" flags="0x200"/>
      <component glyphName="pixel.3" x="640" y="0" flags="0x0"/>
      <component glyphName="pixel.3" x="512" y="128" flags="0x0"/>
      <component glyphName="pixel.3" x="384" y="256" flags="0x0"/>
      <component glyphName="pixel.3" x="256" y="384" flags="0x0"/>
      <component glyphName="pixel.3" x="128" y="512" flags="0x0"/>
      <component glyphName="pixel.3" x="0" y="640" flags="0x0"/>
      <component glyphName="pixel.2" x="0" y="768" flags="0x0"/>
    </TTGlyph>
    <TTGlyph name="uni2573" xMin="-5" yMin="-74" xMax="1029" yMax="842">
      <component glyphName="pixel.2" x="0" y="-128" flags="0x200"/>
      <component glyphName="pixel.2" x="768" y="-128" flags="0x0"/>
      <component glyphName="pixel.3" x="0" y="0" flags="0x0"/>
      <component glyphName="pixel.3" x="640" y="0" flags="0x0"/>
      <component glyphName="pixel.6" x="128" y="128" flags="0x0"/>
      <component glyphName="pixel.4" x="256" y="256" flags="0x0"/>
      <component glyphName="pixel.4" x="256" y="384" flags="0x0"/>
      <component glyphName="pixel.6" x="128" y="512" flags="0x0"/>
      <component glyphName="pixel.3" x="0" y="640" flags="0x0"/>
      <component glyphName="pixel.3" x="640" y="640" flags="0x0"/>
      <component glyphName="pixel.2" x="0" y="768" flags="0x0"/>
      <component glyphName="pixel.2" x="768" y="768" flags="0x0"/>
    </TTGlyph>
    <TTGlyph name="uni2581" xMin="-5" yMin="-74" xMax="1029" yMax="-54">
      <component glyphName="pixel.8" x="0" y="-128" flags="0x200"/>
    </TTGlyph>
    <TTGlyph name="uni2582" xMin="-5" yMin="-74" xMax="1029" yMax="74">
      <component glyphName="uni2501" x="0" y="-384" flags="0x200"/>
    </TTGlyph>
    <TTGlyph name="uni2583" xMin="-5" yMin="-74" xMax="1029" yMax="202">
      <component glyphName="pixel.8" x="0" y="-128" flags="0x200"/>
      <component glyphName="pixel.8" x="0" y="0" flags="0x0"/>
      <component glyphName="pixel.8" x="0" y="128" flags="0x0"/>
    </TTGlyph>
    <TTGlyph name="uni2585" xMin="-5" yMin="-74" xMax="1029" yMax="458">
      <component glyphName="pixel.8" x="0" y="-128" flags="0x200"/>
      <component glyphName="pixel.8" x="0" y="0" flags="0x0"/>
      <component glyphName="pixel.8" x="0" y="128" flags="0x0"/>
      <component glyphName="pixel.8" x="0" y="256" flags="0x0"/>
      <component glyphName="pixel.8" x="0" y="384" flags="0x0"/>
    </TTGlyph>
    <TTGlyph name="uni2586" xMin="-5" yMin="-74" xMax="1029" yMax="586">
      <component glyphName="pixel.8" x="0" y="-128" flags="0x200"/>
      <component glyphName="pixel.8" x="0" y="0" flags="0x0"/>
      <component glyphName="pixel.8" x="0" y="128" flags="0x0"/>
      <component glyphName="pixel.8" x="0" y="256" flags="0x0"/>
      <component glyphName="pixel.8" x="0" y="384" flags="0x0"/>
      <component glyphName="pixel.8" x="0" y="512" flags="0x0"/>
    </TTGlyph>
    <TTGlyph name="uni2587" xMin="-5" yMin="-74" xMax="1029" yMax="714">
      <component glyphName="pixel.8" x="0" y="-128" flags="0x200"/>
      <component glyphName="pixel.8" x="0" y="0" flags="0x0"/>
      <component glyphName="pixel.8" x="0" y="128" flags="0x0"/>
      <component glyphName="pixel.8" x="0" y="256" flags="0x0"/>
      <component glyphName="pixel.8" x="0" y="384" flags="0x0"/>
      <component glyphName="pixel.8" x="0" y="512" flags="0x0"/>
      <component glyphName="pixel.8" x="0" y="640" flags="0x0"/>
    </TTGlyph>
    <TTGlyph name="uni2589" xMin="-5" yMin="-74" xMax="773" yMax="842">
      <component glyphName="uni258A" x="0" y="0" flags="0x200"/>
    </TTGlyph>
    <TTGlyph name="uni258A" xMin="-5" yMin="-74" xMax="773" yMax="842">
      <component glyphName="pixel.6" x="0" y="-128" flags="0x200"/>
      <component glyphName="pixel.6" x="0" y="0" flags="0x0"/>
      <component glyphName="pixel.6" x="0" y="128" flags="0x0"/>
      <component glyphName="pixel.6" x="0" y="256" flags="0x0"/>
      <component glyphName="pixel.6" x="0" y="384" flags="0x0"/>
      <component glyphName="pixel.6" x="0" y="512" flags="0x0"/>
      <component glyphName="pixel.6" x="0" y="640" flags="0x0"/>
      <component glyphName="pixel.6" x="0" y="768" flags="0x0"/>
    </TTGlyph>
    <TTGlyph name="uni258B" xMin="-5" yMin="-74" xMax="645" yMax="842">
      <component glyphName="pixel.5" x="0" y="-128" flags="0x200"/>
      <component glyphName="pixel.5" x="0" y="0" flags="0x0"/>
      <component glyphName="pixel.5" x="0" y="128" flags="0x0"/>
      <component glyphName="pixel.5" x="0" y="256" flags="0x0"/>
      <component glyphName="pixel.5" x="0" y="384" flags="0x0"/>
      <component glyphName="pixel.5" x="0" y="512" flags="0x0"/>
      <component glyphName="pixel.5" x="0" y="640" flags="0x0"/>
      <component glyphName="pixel.5" x="0" y="768" flags="0x0"/>
    </TTGlyph>
    <TTGlyph name="uni258D" xMin="-5" yMin="-74" xMax="389" yMax="842">
      <component glyphName="pixel.3" x="0" y="-128" flags="0x200"/>
      <component glyphName="pixel.3" x="0" y="0" flags="0x0"/>
      <component glyphName="pixel.3" x="0" y="128" flags="0x0"/>
      <component glyphName="pixel.3" x="0" y="256" flags="0x0"/>
      <component glyphName="pixel.3" x="0" y="384" flags="0x0"/>
      <component glyphName="pixel.3" x="0" y="512" flags="0x0"/>
      <component glyphName="pixel.3" x="0" y="640" flags="0x0"/>
      <component glyphName="pixel.3" x="0" y="768" flags="0x0"/>
    </TTGlyph>
    <TTGlyph name="uni258E" xMin="-5" yMin="-74" xMax="261" yMax="842">
      <component glyphName="uni258F" x="0" y="0" flags="0x200"/>
    </TTGlyph>
    <TTGlyph name="uni258F" xMin="-5" yMin="-74" xMax="261" yMax="842">
      <component glyphName="pixel.2" x="0" y="-128" flags="0x200"/>
      <component glyphName="pixel.2" x="0" y="0" flags="0x0"/>
      <component glyphName="pixel.2" x="0" y="128" flags="0x0"/>
      <component glyphName="pixel.2" x="0" y="256" flags="0x0"/>
      <component glyphName="pixel.2" x="0" y="384" flags="0x0"/>
      <component glyphName="pixel.2" x="0" y="512" flags="0x0"/>
      <component glyphName="pixel.2" x="0" y="640" flags="0x0"/>
      <component glyphName="pixel.2" x="0" y="768" flags="0x0"/>
    </TTGlyph>
    <TTGlyph name="uni2594" xMin="-5" yMin="822" xMax="1029" yMax="842">
      <component glyphName="uni2581" x="0" y="896" flags="0x200"/>
    </TTGlyph>
    <TTGlyph name="uni2595" xMin="763" yMin="-74" xMax="1029" yMax="842">
      <component glyphName="uni258F" x="768" y="0" flags="0x0"/>
    </TTGlyph>
    <TTGlyph name="uni2596" xMin="-5" yMin="-74" xMax="517" yMax="330">
      <component glyphName="pixel.4" x="0" y="-128" flags="0x200"/>
      <component glyphName="pixel.4" x="0" y="0" flags="0x0"/>
      <component glyphName="pixel.4" x="0" y="128" flags="0x0"/>
      <component glyphName="pixel.4" x="0" y="256" flags="0x0"/>
    </TTGlyph>
    <TTGlyph name="uni2597" xMin="507" yMin="-74" xMax="1029" yMax="330">
      <component glyphName="uni2596" x="512" y="0" flags="0x0"/>
    </TTGlyph>
    <TTGlyph name="uni2598" xMin="-5" yMin="438" xMax="517" yMax="842">
      <component glyphName="uni2596" x="0" y="512" flags="0x200"/>
    </TTGlyph>
    <TTGlyph name="uni2599" xMin="-5" yMin="-74" xMax="1029" yMax="842">
      <component glyphName="pixel.8" x="0" y="-128" flags="0x200"/>
      <component glyphName="pixel.8" x="0" y="0" flags="0x0"/>
      <component glyphName="pixel.8" x="0" y="128" flags="0x0"/>
      <component glyphName="pixel.8" x="0" y="256" flags="0x0"/>
      <component glyphName="pixel.4" x="0" y="384" flags="0x0"/>
      <component glyphName="pixel.4" x="0" y="512" flags="0x0"/>
      <component glyphName="pixel.4" x="0" y="640" flags="0x0"/>
      <component glyphName="pixel.4" x="0" y="768" flags="0x0"/>
    </TTGlyph>
    <TTGlyph name="uni259A" xMin="-5" yMin="-74" xMax="1029" yMax="842">
      <component glyphName="pixel.4" x="512" y="-128" flags="0x200"/>
      <component glyphName="pixel.4" x="512" y="0" flags="0x0"/>
      <component glyphName="pixel.4" x="512" y="128" flags="0x0"/>
      <component glyphName="pixel.4" x="512" y="256" flags="0x0"/>
      <component glyphName="pixel.4" x="0" y="384" flags="0x0"/>
      <component glyphName="pixel.4" x="0" y="512" flags="0x0"/>
      <component glyphName="pixel.4" x="0" y="640" flags="0x0"/>
      <component glyphName="pixel.4" x="0" y="768" flags="0x0"/>
    </TTGlyph>
    <TTGlyph name="uni259B" xMin="-5" yMin="-74" xMax="1029" yMax="842">
      <component glyphName="pixel.4" x="0" y="-128" flags="0x200"/>
      <component glyphName="pixel.4" x="0" y="0" flags="0x0"/>
      <component glyphName="pixel.4" x="0" y="128" flags="0x0"/>
      <component glyphName="pixel.4" x="0" y="256" flags="0x0"/>
      <component glyphName="pixel.8" x="0" y="384" flags="0x0"/>
      <component glyphName="pixel.8" x="0" y="512" flags="0x0"/>
      <component glyphName="pixel.8" x="0" y="640" flags="0x0"/>
      <component glyphName="pixel.8" x="0" y="768" flags="0x0"/>
    </TTGlyph>
    <TTGlyph name="uni259C" xMin="-5" yMin="-74" xMax="1029" yMax="842">
      <component glyphName="pixel.4" x="512" y="-128" flags="0x200"/>
      <component glyphName="pixel.4" x="512" y="0" flags="0x0"/>
      <component glyphName="pixel.4" x="512" y="128" flags="0x0"/>
      <component glyphName="pixel.4" x="512" y="256" flags="0x0"/>
      <component glyphName="pixel.8" x="0" y="384" flags="0x0"/>
      <component glyphName="pixel.8" x="0" y="512" flags="0x0"/>
      <component glyphName="pixel.8" x="0" y="640" flags="0x0"/>
      <component glyphName="pixel.8" x="0" y="768" flags="0x0"/>
    </TTGlyph>
    <TTGlyph name="uni259D" xMin="507" yMin="438" xMax="1029" yMax="842">
      <component glyphName="uni2596" x="512" y="512" flags="0x0"/>
    </TTGlyph>
    <TTGlyph name="uni259E" xMin="-5" yMin="-74" xMax="1029" yMax="842">
      <component glyphName="pixel.4" x="0" y="-128" flags="0x200"/>
      <component glyphName="pixel.4" x="0" y="0" flags="0x0"/>
      <component glyphName="pixel.4" x="0" y="128" flags="0x0"/>
      <component glyphName="pixel.4" x="0" y="256" flags="0x0"/>
      <component glyphName="pixel.4" x="512" y="384" flags="0x0"/>
      <component glyphName="pixel.4" x="512" y="512" flags="0x0"/>
      <component glyphName="pixel.4" x="512" y="640" flags="0x0"/>
      <component glyphName="pixel.4" x="512" y="768" flags="0x0"/>
    </TTGlyph>
    <TTGlyph name="uni259F" xMin="-5" yMin="-74" xMax="1029" yMax="842">
      <component glyphName="pixel.8" x="0" y="-128" flags="0x200"/>
      <component glyphName="pixel.8" x="0" y="0" flags="0x0"/>
      <component glyphName="pixel.8" x="0" y="128" flags="0x0"/>
      <component glyphName="pixel.8" x="0" y="256" flags="0x0"/>
      <component glyphName="pixel.4" x="512" y="384" flags="0x0"/>
      <component glyphName="pixel.4" x="512" y="512" flags="0x0"/>
      <component glyphName="pixel.4" x="512" y="640" flags="0x0"/>
      <component glyphName="pixel.4" x="512" y="768" flags="0x0"/>
    </TTGlyph>
    <TTGlyph name="uni25A7" xMin="-5" yMin="-74" xMax="1029" yMax="842">
      <component glyphName="pixel.2" x="128" y="-128" flags="0x200"/>
      <component glyphName="pixel.2" x="640" y="-128" flags="0x0"/>
      <component glyphName="pixel.2" x="0" y="0" flags="0x0"/>
      <component glyphName="pixel.2" x="512" y="0" flags="0x0"/>
      <component glyphName="pixel.1" x="0" y="128" flags="0x0"/>
      <component glyphName="pixel.2" x="384" y="128" flags="0x0"/>
      <component glyphName="pixel.1" x="896" y="128" flags="0x0"/>
      <component glyphName="pixel.2" x="256" y="256" flags="0x0"/>
      <component glyphName="pixel.2" x="768" y="256" flags="0x0"/>
      <component glyphName="pixel.2" x="128" y="384" flags="0x0"/>
      <component glyphName="pixel.2" x="640" y="384" flags="0x0"/>
      <component glyphName="pixel.2" x="0" y="512" flags="0x0"/>
      <component glyphName="pixel.2" x="512" y="512" flags="0x0"/>
      <component glyphName="pixel.1" x="0" y="640" flags="0x0"/>
      <component glyphName="pixel.2" x="384" y="640" flags="0x0"/>
      <component glyphName="pixel.1" x="896" y="640" flags="0x0"/>
      <component glyphName="pixel.2" x="256" y="768" flags="0x0"/>
      <component glyphName="pixel.2" x="768" y="768" flags="0x0"/>
    </TTGlyph>
    <TTGlyph name="uni25A8" xMin="-5" yMin="-74" xMax="1029" yMax="842">
      <component glyphName="pixel.2" x="128" y="-128" flags="0x200"/>
      <component glyphName="pixel.2" x="640" y="-128" flags="0x0"/>
      <component glyphName="pixel.2" x="256" y="0" flags="0x0"/>
      <component glyphName="pixel.2" x="768" y="0" flags="0x0"/>
      <component glyphName="pixel.1" x="0" y="128" flags="0x0"/>
      <component glyphName="pixel.2" x="384" y="128" flags="0x0"/>
      <component glyphName="pixel.1" x="896" y="128" flags="0x0"/>
      <component glyphName="pixel.2" x="0" y="256" flags="0x0"/>
      <component glyphName="pixel.2" x="512" y="256" flags="0x0"/>
      <component glyphName="pixel.2" x="128" y="384" flags="0x0"/>
      <component glyphName="pixel.2" x="640" y="384" flags="0x0"/>
      <component glyphName="pixel.2" x="256" y="512" flags="0x0"/>
      <component glyphName="pixel.2" x="768" y="512" flags="0x0"/>
      <component glyphName="pixel.1" x="0" y="640" flags="0x0"/>
      <component glyphName="pixel.2" x="384" y="640" flags="0x0"/>
      <component glyphName="pixel.1" x="896" y="640" flags="0x0"/>
      <component glyphName="pixel.2" x="0" y="768" flags="0x0"/>
      <component glyphName="pixel.2" x="512" y="768" flags="0x0"/>
    </TTGlyph>
    <TTGlyph name="uni25CF" xMin="123" yMin="54" xMax="901" yMax="714">
      <component glyphName="pixel.4" x="256" y="0" flags="0x0"/>
      <component glyphName="pixel.6" x="128" y="128" flags="0x0"/>
      <component glyphName="pixel.6" x="128" y="256" flags="0x0"/>
      <component glyphName="pixel.6" x="128" y="384" flags="0x0"/>
      <component glyphName="pixel.6" x="128" y="512" flags="0x0"/>
      <component glyphName="pixel.4" x="256" y="640" flags="0x0"/>
    </TTGlyph>
    <TTGlyph name="uni25E2" xMin="123" yMin="-74" xMax="1029" yMax="714">
      <component glyphName="pixel.7" x="128" y="-128" flags="0x0"/>
      <component glyphName="pixel.6" x="256" y="0" flags="0x0"/>
      <component glyphName="pixel.5" x="384" y="128" flags="0x0"/>
      <component glyphName="pixel.4" x="512" y="256" flags="0x0"/>
      <component glyphName="pixel.3" x="640" y="384" flags="0x0"/>
      <component glyphName="pixel.2" x="768" y="512" flags="0x0"/>
      <component glyphName="pixel.1" x="896" y="640" flags="0x0"/>
    </TTGlyph>
    <TTGlyph name="uni25E3" xMin="-5" yMin="-74" xMax="901" yMax="714">
      <component glyphName="pixel.7" x="0" y="-128" flags="0x200"/>
      <component glyphName="pixel.6" x="0" y="0" flags="0x0"/>
      <component glyphName="pixel.5" x="0" y="128" flags="0x0"/>
      <component glyphName="pixel.4" x="0" y="256" flags="0x0"/>
      <component glyphName="pixel.3" x="0" y="384" flags="0x0"/>
      <component glyphName="pixel.2" x="0" y="512" flags="0x0"/>
      <component glyphName="pixel.1" x="0" y="640" flags="0x0"/>
    </TTGlyph>
    <TTGlyph name="uni25E4" xMin="-5" yMin="-74" xMax="1029" yMax="842">
      <component glyphName="pixel.1" x="0" y="-128" flags="0x200"/>
      <component glyphName="pixel.2" x="0" y="0" flags="0x0"/>
      <component glyphName="pixel.3" x="0" y="128" flags="0x0"/>
      <component glyphName="pixel.4" x="0" y="256" flags="0x0"/>
      <component glyphName="pixel.5" x="0" y="384" flags="0x0"/>
      <component glyphName="pixel.6" x="0" y="512" flags="0x0"/>
      <component glyphName="pixel.7" x="0" y="640" flags="0x0"/>
      <component glyphName="pixel.8" x="0" y="768" flags="0x0"/>
    </TTGlyph>
    <TTGlyph name="uni25E5" xMin="-5" yMin="-74" xMax="1029" yMax="842">
      <component glyphName="pixel.1" x="896" y="-128" flags="0x200"/>
      <component glyphName="pixel.2" x="768" y="0" flags="0x0"/>
      <component glyphName="pixel.3" x="640" y="128" flags="0x0"/>
      <component glyphName="pixel.4" x="512" y="256" flags="0x0"/>
      <component glyphName="pixel.5" x="384" y="384" flags="0x0"/>
      <component glyphName="pixel.6" x="256" y="512" flags="0x0"/>
      <component glyphName="pixel.7" x="128" y="640" flags="0x0"/>
      <component glyphName="pixel.8" x="0" y="768" flags="0x0"/>
    </TTGlyph>
    <TTGlyph name="uni2661" xMin="-5" yMin="-74" xMax="1029" yMax="842">
      <component glyphName="pixel.8" x="0" y="-128" flags="0x200"/>
      <component glyphName="pixel.4" x="0" y="0" flags="0x0"/>
      <component glyphName="pixel.3" x="640" y="0" flags="0x0"/>
      <component glyphName="pixel.3" x="0" y="128" flags="0x0"/>
      <component glyphName="pixel.2" x="768" y="128" flags="0x0"/>
      <component glyphName="pixel.2" x="0" y="256" flags="0x0"/>
      <component glyphName="pixel.1" x="896" y="256" flags="0x0"/>
      <component glyphName="pixel.1" x="0" y="384" flags="0x0"/>
      <component glyphName="pixel.1" x="0" y="512" flags="0x0"/>
      <component glyphName="pixel.1" x="0" y="640" flags="0x0"/>
      <component glyphName="pixel.2" x="0" y="768" flags="0x0"/>
      <component glyphName="pixel.1" x="512" y="768" flags="0x0"/>
      <component glyphName="pixel.1" x="896" y="768" flags="0x0"/>
    </TTGlyph>
    <TTGlyph name="uni2662" xMin="-5" yMin="-74" xMax="1029" yMax="842">
      <component glyphName="pixel.8" x="0" y="-128" flags="0x200"/>
      <component glyphName="pixel.4" x="0" y="0" flags="0x0"/>
      <component glyphName="pixel.3" x="640" y="0" flags="0x0"/>
      <component glyphName="pixel.3" x="0" y="128" flags="0x0"/>
      <component glyphName="pixel.2" x="768" y="128" flags="0x0"/>
      <component glyphName="pixel.2" x="0" y="256" flags="0x0"/>
      <component glyphName="pixel.1" x="896" y="256" flags="0x0"/>
      <component glyphName="pixel.1" x="0" y="384" flags="0x0"/>
      <component glyphName="pixel.2" x="0" y="512" flags="0x0"/>
      <component glyphName="pixel.1" x="896" y="512" flags="0x0"/>
      <component glyphName="pixel.3" x="0" y="640" flags="0x0"/>
      <component glyphName="pixel.2" x="768" y="640" flags="0x0"/>
      <component glyphName="pixel.4" x="0" y="768" flags="0x0"/>
      <component glyphName="pixel.3" x="640" y="768" flags="0x0"/>
    </TTGlyph>
    <TTGlyph name="uni2664" xMin="-5" yMin="-74" xMax="1029" yMax="842">
      <component glyphName="pixel.8" x="0" y="-128" flags="0x200"/>
      <component glyphName="pixel.2" x="0" y="0" flags="0x0"/>
      <component glyphName="pixel.1" x="896" y="0" flags="0x0"/>
      <component glyphName="pixel.3" x="0" y="128" flags="0x0"/>
      <component glyphName="pixel.2" x="768" y="128" flags="0x0"/>
      <component glyphName="pixel.1" x="0" y="256" flags="0x0"/>
      <component glyphName="pixel.1" x="0" y="384" flags="0x0"/>
      <component glyphName="pixel.2" x="0" y="512" flags="0x0"/>
      <component glyphName="pixel.1" x="896" y="512" flags="0x0"/>
      <component glyphName="pixel.3" x="0" y="640" flags="0x0"/>
      <component glyphName="pixel.2" x="768" y="640" flags="0x0"/>
      <component glyphName="pixel.4" x="0" y="768" flags="0x0"/>
      <component glyphName="pixel.3" x="640" y="768" flags="0x0"/>
    </TTGlyph>
    <TTGlyph name="uni2667" xMin="-5" yMin="-74" xMax="1029" yMax="842">
      <component glyphName="pixel.8" x="0" y="-128" flags="0x200"/>
      <component glyphName="pixel.2" x="0" y="0" flags="0x0"/>
      <component glyphName="pixel.2" x="768" y="0" flags="0x0"/>
      <component glyphName="pixel.3" x="0" y="128" flags="0x0"/>
      <component glyphName="pixel.3" x="640" y="128" flags="0x0"/>
      <component glyphName="pixel.3" x="0" y="256" flags="0x0"/>
      <component glyphName="pixel.3" x="640" y="256" flags="0x0"/>
      <component glyphName="pixel.1" x="0" y="384" flags="0x0"/>
      <component glyphName="pixel.2" x="384" y="384" flags="0x0"/>
      <component glyphName="pixel.1" x="896" y="384" flags="0x0"/>
      <component glyphName="pixel.1" x="0" y="512" flags="0x0"/>
      <component glyphName="pixel.2" x="384" y="512" flags="0x0"/>
      <component glyphName="pixel.1" x="896" y="512" flags="0x0"/>
      <component glyphName="pixel.3" x="0" y="640" flags="0x0"/>
      <component glyphName="pixel.3" x="640" y="640" flags="0x0"/>
      <component glyphName="pixel.3" x="0" y="768" flags="0x0"/>
      <component glyphName="pixel.3" x="640" y="768" flags="0x0"/>
    </TTGlyph>
    <TTGlyph name="uni2713" xMin="123" yMin="54" xMax="1029" yMax="842">
      <component glyphName="radical" x="0" y="0" flags="0x200"/>
    </TTGlyph>
    <TTGlyph name="uniE000" xMin="-5" yMin="310" xMax="1029" yMax="458">
      <component glyphName="uni2501" x="0" y="0" flags="0x200"/>
    </TTGlyph>
    <TTGlyph name="uniE001" xMin="-5" yMin="438" xMax="1029" yMax="586">
      <component glyphName="uni2501" x="0" y="128" flags="0x200"/>
    </TTGlyph>
    <TTGlyph name="uniE002" xMin="-5" yMin="566" xMax="1029" yMax="714">
      <component glyphName="uni2501" x="0" y="256" flags="0x200"/>
    </TTGlyph>
    <TTGlyph name="uniE003" xMin="-5" yMin="182" xMax="1029" yMax="330">
      <component glyphName="uni2501" x="0" y="-128" flags="0x200"/>
    </TTGlyph>
    <TTGlyph name="uniE004" xMin="251" yMin="-74" xMax="517" yMax="842">
      <component glyphName="uni2503" x="-128" y="0" flags="0x0"/>
    </TTGlyph>
    <TTGlyph name="uniE005" xMin="507" yMin="-74" xMax="773" yMax="842">
      <component glyphName="uni2503" x="128" y="0" flags="0x0"/>
    </TTGlyph>
    <TTGlyph name="uniE006" xMin="-5" yMin="-74" xMax="1029" yMax="842">
      <component glyphName="pixel.8" x="0" y="-128" flags="0x200"/>
      <component glyphName="pixel.8" x="0" y="0" flags="0x0"/>
      <component glyphName="pixel.2" x="0" y="128" flags="0x0"/>
      <component glyphName="pixel.2" x="0" y="256" flags="0x0"/>
      <component glyphName="pixel.2" x="0" y="384" flags="0x0"/>
      <component glyphName="pixel.2" x="0" y="512" flags="0x0"/>
      <component glyphName="pixel.2" x="0" y="640" flags="0x0"/>
      <component glyphName="pixel.2" x="0" y="768" flags="0x0"/>
    </TTGlyph>
    <TTGlyph name="uniE007" xMin="-5" yMin="-74" xMax="1029" yMax="842">
      <component glyphName="pixel.2" x="0" y="-128" flags="0x200"/>
      <component glyphName="pixel.2" x="0" y="0" flags="0x0"/>
      <component glyphName="pixel.2" x="0" y="128" flags="0x0"/>
      <component glyphName="pixel.2" x="0" y="256" flags="0x0"/>
      <component glyphName="pixel.2" x="0" y="384" flags="0x0"/>
      <component glyphName="pixel.2" x="0" y="512" flags="0x0"/>
      <component glyphName="pixel.8" x="0" y="640" flags="0x0"/>
      <component glyphName="pixel.8" x="0" y="768" flags="0x0"/>
    </TTGlyph>
    <TTGlyph name="uniE008" xMin="-5" yMin="-74" xMax="1029" yMax="842">
      <component glyphName="pixel.2" x="768" y="-128" flags="0x200"/>
      <component glyphName="pixel.2" x="768" y="0" flags="0x0"/>
      <component glyphName="pixel.2" x="768" y="128" flags="0x0"/>
      <component glyphName="pixel.2" x="768" y="256" flags="0x0"/>
      <component glyphName="pixel.2" x="768" y="384" flags="0x0"/>
      <component glyphName="pixel.2" x="768" y="512" flags="0x0"/>
      <component glyphName="pixel.8" x="0" y="640" flags="0x0"/>
      <component glyphName="pixel.8" x="0" y="768" flags="0x0"/>
    </TTGlyph>
    <TTGlyph name="uniE009" xMin="-5" yMin="54" xMax="1029" yMax="202">
      <component glyphName="uni2501" x="0" y="-256" flags="0x200"/>
    </TTGlyph>
    <TTGlyph name="uniE00A" xMin="123" yMin="-74" xMax="389" yMax="842">
      <component glyphName="uni2503" x="-256" y="0" flags="0x0"/>
    </TTGlyph>
    <TTGlyph name="uniE00B" xMin="635" yMin="-74" xMax="901" yMax="842">
      <component glyphName="uni2503" x="256" y="0" flags="0x0"/>
    </TTGlyph>
    <TTGlyph name="uniE00C" xMin="-5" yMin="-74" xMax="517" yMax="842">
      <component glyphName="pixel.2" x="256" y="-128" flags="0x200"/>
      <component glyphName="pixel.2" x="256" y="0" flags="0x0"/>
      <component glyphName="pixel.2" x="0" y="128" flags="0x0"/>
      <component glyphName="pixel.2" x="0" y="256" flags="0x0"/>
      <component glyphName="pixel.2" x="256" y="384" flags="0x0"/>
      <component glyphName="pixel.2" x="256" y="512" flags="0x0"/>
      <component glyphName="pixel.2" x="0" y="640" flags="0x0"/>
      <component glyphName="pixel.2" x="0" y="768" flags="0x0"/>
    </TTGlyph>
    <TTGlyph name="uniE00D" xMin="379" yMin="-74" xMax="645" yMax="842">
      <component glyphName="uni2503" x="0" y="0" flags="0x200"/>
    </TTGlyph>
    <TTGlyph name="uniE00E" xMin="-5" yMin="-74" xMax="1029" yMax="330">
      <component glyphName="pixel.2" x="256" y="-128" flags="0x200"/>
      <component glyphName="pixel.2" x="768" y="-128" flags="0x0"/>
      <component glyphName="pixel.2" x="256" y="0" flags="0x0"/>
      <component glyphName="pixel.2" x="768" y="0" flags="0x0"/>
      <component glyphName="pixel.2" x="0" y="128" flags="0x0"/>
      <component glyphName="pixel.2" x="512" y="128" flags="0x0"/>
      <component glyphName="pixel.2" x="0" y="256" flags="0x0"/>
      <component glyphName="pixel.2" x="512" y="256" flags="0x0"/>
    </TTGlyph>
    <TTGlyph name="uniE00F" xMin="763" yMin="-74" xMax="1029" yMax="842">
      <component glyphName="uni2503" x="384" y="0" flags="0x0"/>
    </TTGlyph>
    <TTGlyph name="uniE010" xMin="635" yMin="-74" xMax="1029" yMax="842">
      <component glyphName="uni258D" x="640" y="0" flags="0x0"/>
    </TTGlyph>
    <TTGlyph name="uniE011" xMin="-5" yMin="694" xMax="1029" yMax="842">
      <component glyphName="uni2501" x="0" y="384" flags="0x200"/>
    </TTGlyph>
    <TTGlyph name="uniE012" xMin="-5" yMin="566" xMax="1029" yMax="842">
      <component glyphName="uni2583" x="0" y="640" flags="0x200"/>
    </TTGlyph>
    <TTGlyph name="uniE013" xMin="-5" yMin="-74" xMax="1029" yMax="842">
      <component glyphName="pixel.8" x="0" y="-128" flags="0x200"/>
      <component glyphName="pixel.8" x="0" y="0" flags="0x0"/>
      <component glyphName="pixel.2" x="768" y="128" flags="0x0"/>
      <component glyphName="pixel.2" x="768" y="256" flags="0x0"/>
      <component glyphName="pixel.2" x="768" y="384" flags="0x0"/>
      <component glyphName="pixel.2" x="768" y="512" flags="0x0"/>
      <component glyphName="pixel.2" x="768" y="640" flags="0x0"/>
      <component glyphName="pixel.2" x="768" y="768" flags="0x0"/>
    </TTGlyph>
    <TTGlyph name="uniE014" xMin="-5" yMin="-74" xMax="1029" yMax="842">
      <component glyphName="pixel.8" x="0" y="-128" flags="0x200"/>
      <component glyphName="pixel.2" x="0" y="0" flags="0x0"/>
      <component glyphName="pixel.2" x="768" y="0" flags="0x0"/>
      <component glyphName="pixel.1" x="0" y="128" flags="0x0"/>
      <component glyphName="pixel.3" x="384" y="128" flags="0x0"/>
      <component glyphName="pixel.1" x="896" y="128" flags="0x0"/>
      <component glyphName="pixel.1" x="0" y="256" flags="0x0"/>
      <component glyphName="pixel.5" x="384" y="256" flags="0x0"/>
      <component glyphName="pixel.1" x="0" y="384" flags="0x0"/>
      <component glyphName="pixel.1" x="384" y="384" flags="0x0"/>
      <component glyphName="pixel.1" x="896" y="384" flags="0x0"/>
      <component glyphName="pixel.1" x="0" y="512" flags="0x0"/>
      <component glyphName="pixel.1" x="384" y="512" flags="0x0"/>
      <component glyphName="pixel.1" x="896" y="512" flags="0x0"/>
      <component glyphName="pixel.1" x="0" y="640" flags="0x0"/>
      <component glyphName="pixel.2" x="384" y="640" flags="0x0"/>
      <component glyphName="pixel.1" x="896" y="640" flags="0x0"/>
      <component glyphName="pixel.2" x="0" y="768" flags="0x0"/>
      <component glyphName="pixel.2" x="768" y="768" flags="0x0"/>
    </TTGlyph>
    <TTGlyph name="uniE015" xMin="-5" yMin="-74" xMax="1029" yMax="842">
      <component glyphName="pixel.8" x="0" y="-128" flags="0x200"/>
      <component glyphName="pixel.1" x="0" y="0" flags="0x0"/>
      <component glyphName="pixel.2" x="384" y="0" flags="0x0"/>
      <component glyphName="pixel.1" x="896" y="0" flags="0x0"/>
      <component glyphName="pixel.1" x="0" y="128" flags="0x0"/>
      <component glyphName="pixel.2" x="384" y="128" flags="0x0"/>
      <component glyphName="pixel.1" x="896" y="128" flags="0x0"/>
      <component glyphName="pixel.1" x="0" y="256" flags="0x0"/>
      <component glyphName="pixel.2" x="384" y="256" flags="0x0"/>
      <component glyphName="pixel.1" x="896" y="256" flags="0x0"/>
      <component glyphName="pixel.1" x="0" y="384" flags="0x0"/>
      <component glyphName="pixel.1" x="896" y="384" flags="0x0"/>
      <component glyphName="pixel.1" x="0" y="512" flags="0x0"/>
      <component glyphName="pixel.2" x="384" y="512" flags="0x0"/>
      <component glyphName="pixel.1" x="896" y="512" flags="0x0"/>
      <component glyphName="pixel.2" x="0" y="640" flags="0x0"/>
      <component glyphName="pixel.2" x="768" y="640" flags="0x0"/>
      <component glyphName="pixel.3" x="0" y="768" flags="0x0"/>
      <component glyphName="pixel.3" x="640" y="768" flags="0x0"/>
    </TTGlyph>
    <TTGlyph name="uniE016" xMin="-5" yMin="-74" xMax="1029" yMax="842">
      <component glyphName="pixel.8" x="0" y="-128" flags="0x200"/>
      <component glyphName="pixel.1" x="0" y="0" flags="0x0"/>
      <component glyphName="pixel.2" x="768" y="0" flags="0x0"/>
      <component glyphName="pixel.1" x="0" y="128" flags="0x0"/>
      <component glyphName="pixel.2" x="384" y="128" flags="0x0"/>
      <component glyphName="pixel.1" x="896" y="128" flags="0x0"/>
      <component glyphName="pixel.1" x="0" y="256" flags="0x0"/>
      <component glyphName="pixel.2" x="384" y="256" flags="0x0"/>
      <component glyphName="pixel.1" x="896" y="256" flags="0x0"/>
      <component glyphName="pixel.1" x="0" y="384" flags="0x0"/>
      <component glyphName="pixel.2" x="768" y="384" flags="0x0"/>
      <component glyphName="pixel.1" x="0" y="512" flags="0x0"/>
      <component glyphName="pixel.2" x="384" y="512" flags="0x0"/>
      <component glyphName="pixel.1" x="896" y="512" flags="0x0"/>
      <component glyphName="pixel.1" x="0" y="640" flags="0x0"/>
      <component glyphName="pixel.2" x="384" y="640" flags="0x0"/>
      <component glyphName="pixel.1" x="896" y="640" flags="0x0"/>
      <component glyphName="pixel.1" x="0" y="768" flags="0x0"/>
      <component glyphName="pixel.2" x="768" y="768" flags="0x0"/>
    </TTGlyph>
    <TTGlyph name="uniE017" xMin="-5" yMin="-74" xMax="1029" yMax="842">
      <component glyphName="pixel.8" x="0" y="-128" flags="0x200"/>
      <component glyphName="pixel.2" x="0" y="0" flags="0x0"/>
      <component glyphName="pixel.2" x="768" y="0" flags="0x0"/>
      <component glyphName="pixel.1" x="0" y="128" flags="0x0"/>
      <component glyphName="pixel.2" x="384" y="128" flags="0x0"/>
      <component glyphName="pixel.1" x="896" y="128" flags="0x0"/>
      <component glyphName="pixel.1" x="0" y="256" flags="0x0"/>
      <component glyphName="pixel.5" x="384" y="256" flags="0x0"/>
      <component glyphName="pixel.1" x="0" y="384" flags="0x0"/>
      <component glyphName="pixel.5" x="384" y="384" flags="0x0"/>
      <component glyphName="pixel.1" x="0" y="512" flags="0x0"/>
      <component glyphName="pixel.5" x="384" y="512" flags="0x0"/>
      <component glyphName="pixel.1" x="0" y="640" flags="0x0"/>
      <component glyphName="pixel.2" x="384" y="640" flags="0x0"/>
      <component glyphName="pixel.1" x="896" y="640" flags="0x0"/>
      <component glyphName="pixel.2" x="0" y="768" flags="0x0"/>
      <component glyphName="pixel.2" x="768" y="768" flags="0x0"/>
    </TTGlyph>
    <TTGlyph name="uniE018" xMin="-5" yMin="-74" xMax="1029" yMax="842">
      <component glyphName="pixel.8" x="0" y="-128" flags="0x200"/>
      <component glyphName="pixel.1" x="0" y="0" flags="0x0"/>
      <component glyphName="pixel.3" x="640" y="0" flags="0x0"/>
      <component glyphName="pixel.1" x="0" y="128" flags="0x0"/>
      <component glyphName="pixel.1" x="384" y="128" flags="0x0"/>
      <component glyphName="pixel.2" x="768" y="128" flags="0x0"/>
      <component glyphName="pixel.1" x="0" y="256" flags="0x0"/>
      <component glyphName="pixel.2" x="384" y="256" flags="0x0"/>
      <component glyphName="pixel.1" x="896" y="256" flags="0x0"/>
      <component glyphName="pixel.1" x="0" y="384" flags="0x0"/>
      <component glyphName="pixel.2" x="384" y="384" flags="0x0"/>
      <component glyphName="pixel.1" x="896" y="384" flags="0x0"/>
      <component glyphName="pixel.1" x="0" y="512" flags="0x0"/>
      <component glyphName="pixel.2" x="384" y="512" flags="0x0"/>
      <component glyphName="pixel.1" x="896" y="512" flags="0x0"/>
      <component glyphName="pixel.1" x="0" y="640" flags="0x0"/>
      <component glyphName="pixel.1" x="384" y="640" flags="0x0"/>
      <component glyphName="pixel.2" x="768" y="640" flags="0x0"/>
      <component glyphName="pixel.1" x="0" y="768" flags="0x0"/>
      <component glyphName="pixel.3" x="640" y="768" flags="0x0"/>
    </TTGlyph>
    <TTGlyph name="uniE019" xMin="-5" yMin="-74" xMax="1029" yMax="842">
      <component glyphName="pixel.8" x="0" y="-128" flags="0x200"/>
      <component glyphName="pixel.1" x="0" y="0" flags="0x0"/>
      <component glyphName="pixel.1" x="896" y="0" flags="0x0"/>
      <component glyphName="pixel.1" x="0" y="128" flags="0x0"/>
      <component glyphName="pixel.5" x="384" y="128" flags="0x0"/>
      <component glyphName="pixel.1" x="0" y="256" flags="0x0"/>
      <component glyphName="pixel.5" x="384" y="256" flags="0x0"/>
      <component glyphName="pixel.1" x="0" y="384" flags="0x0"/>
      <component glyphName="pixel.3" x="640" y="384" flags="0x0"/>
      <component glyphName="pixel.1" x="0" y="512" flags="0x0"/>
      <component glyphName="pixel.5" x="384" y="512" flags="0x0"/>
      <component glyphName="pixel.1" x="0" y="640" flags="0x0"/>
      <component glyphName="pixel.5" x="384" y="640" flags="0x0"/>
      <component glyphName="pixel.1" x="0" y="768" flags="0x0"/>
      <component glyphName="pixel.1" x="896" y="768" flags="0x0"/>
    </TTGlyph>
    <TTGlyph name="uniE01A" xMin="-5" yMin="-74" xMax="1029" yMax="842">
      <component glyphName="pixel.8" x="0" y="-128" flags="0x200"/>
      <component glyphName="pixel.1" x="0" y="0" flags="0x0"/>
      <component glyphName="pixel.5" x="384" y="0" flags="0x0"/>
      <component glyphName="pixel.1" x="0" y="128" flags="0x0"/>
      <component glyphName="pixel.5" x="384" y="128" flags="0x0"/>
      <component glyphName="pixel.1" x="0" y="256" flags="0x0"/>
      <component glyphName="pixel.5" x="384" y="256" flags="0x0"/>
      <component glyphName="pixel.1" x="0" y="384" flags="0x0"/>
      <component glyphName="pixel.3" x="640" y="384" flags="0x0"/>
      <component glyphName="pixel.1" x="0" y="512" flags="0x0"/>
      <component glyphName="pixel.5" x="384" y="512" flags="0x0"/>
      <component glyphName="pixel.1" x="0" y="640" flags="0x0"/>
      <component glyphName="pixel.5" x="384" y="640" flags="0x0"/>
      <component glyphName="pixel.1" x="0" y="768" flags="0x0"/>
      <component glyphName="pixel.1" x="896" y="768" flags="0x0"/>
    </TTGlyph>
    <TTGlyph name="uniE01B" xMin="-5" yMin="-74" xMax="1029" yMax="842">
      <component glyphName="pixel.8" x="0" y="-128" flags="0x200"/>
      <component glyphName="pixel.2" x="0" y="0" flags="0x0"/>
      <component glyphName="pixel.2" x="768" y="0" flags="0x0"/>
      <component glyphName="pixel.1" x="0" y="128" flags="0x0"/>
      <component glyphName="pixel.2" x="384" y="128" flags="0x0"/>
      <component glyphName="pixel.1" x="896" y="128" flags="0x0"/>
      <component glyphName="pixel.1" x="0" y="256" flags="0x0"/>
      <component glyphName="pixel.2" x="384" y="256" flags="0x0"/>
      <component glyphName="pixel.1" x="896" y="256" flags="0x0"/>
      <component glyphName="pixel.1" x="0" y="384" flags="0x0"/>
      <component glyphName="pixel.1" x="384" y="384" flags="0x0"/>
      <component glyphName="pixel.1" x="896" y="384" flags="0x0"/>
      <component glyphName="pixel.1" x="0" y="512" flags="0x0"/>
      <component glyphName="pixel.5" x="384" y="512" flags="0x0"/>
      <component glyphName="pixel.1" x="0" y="640" flags="0x0"/>
      <component glyphName="pixel.2" x="384" y="640" flags="0x0"/>
      <component glyphName="pixel.1" x="896" y="640" flags="0x0"/>
      <component glyphName="pixel.2" x="0" y="768" flags="0x0"/>
      <component glyphName="pixel.2" x="768" y="768" flags="0x0"/>
    </TTGlyph>
    <TTGlyph name="uniE01C" xMin="-5" yMin="-74" xMax="1029" yMax="842">
      <component glyphName="pixel.8" x="0" y="-128" flags="0x200"/>
      <component glyphName="pixel.1" x="0" y="0" flags="0x0"/>
      <component glyphName="pixel.2" x="384" y="0" flags="0x0"/>
      <component glyphName="pixel.1" x="896" y="0" flags="0x0"/>
      <component glyphName="pixel.1" x="0" y="128" flags="0x0"/>
      <component glyphName="pixel.2" x="384" y="128" flags="0x0"/>
      <component glyphName="pixel.1" x="896" y="128" flags="0x0"/>
      <component glyphName="pixel.1" x="0" y="256" flags="0x0"/>
      <component glyphName="pixel.2" x="384" y="256" flags="0x0"/>
      <component glyphName="pixel.1" x="896" y="256" flags="0x0"/>
      <component glyphName="pixel.1" x="0" y="384" flags="0x0"/>
      <component glyphName="pixel.1" x="896" y="384" flags="0x0"/>
      <component glyphName="pixel.1" x="0" y="512" flags="0x0"/>
      <component glyphName="pixel.2" x="384" y="512" flags="0x0"/>
      <component glyphName="pixel.1" x="896" y="512" flags="0x0"/>
      <component glyphName="pixel.1" x="0" y="640" flags="0x0"/>
      <component glyphName="pixel.2" x="384" y="640" flags="0x0"/>
      <component glyphName="pixel.1" x="896" y="640" flags="0x0"/>
      <component glyphName="pixel.1" x="0" y="768" flags="0x0"/>
      <component glyphName="pixel.2" x="384" y="768" flags="0x0"/>
      <component glyphName="pixel.1" x="896" y="768" flags="0x0"/>
    </TTGlyph>
    <TTGlyph name="uniE01D" xMin="-5" yMin="-74" xMax="1029" yMax="842">
      <component glyphName="pixel.8" x="0" y="-128" flags="0x200"/>
      <component glyphName="pixel.2" x="0" y="0" flags="0x0"/>
      <component glyphName="pixel.2" x="768" y="0" flags="0x0"/>
      <component glyphName="pixel.3" x="0" y="128" flags="0x0"/>
      <component glyphName="pixel.3" x="640" y="128" flags="0x0"/>
      <component glyphName="pixel.3" x="0" y="256" flags="0x0"/>
      <component glyphName="pixel.3" x="640" y="256" flags="0x0"/>
      <component glyphName="pixel.3" x="0" y="384" flags="0x0"/>
      <component glyphName="pixel.3" x="640" y="384" flags="0x0"/>
      <component glyphName="pixel.3" x="0" y="512" flags="0x0"/>
      <component glyphName="pixel.3" x="640" y="512" flags="0x0"/>
      <component glyphName="pixel.3" x="0" y="640" flags="0x0"/>
      <component glyphName="pixel.3" x="640" y="640" flags="0x0"/>
      <component glyphName="pixel.2" x="0" y="768" flags="0x0"/>
      <component glyphName="pixel.2" x="768" y="768" flags="0x0"/>
    </TTGlyph>
    <TTGlyph name="uniE01E" xMin="-5" yMin="-74" xMax="1029" yMax="842">
      <component glyphName="pixel.8" x="0" y="-128" flags="0x200"/>
      <component glyphName="pixel.2" x="0" y="0" flags="0x0"/>
      <component glyphName="pixel.3" x="640" y="0" flags="0x0"/>
      <component glyphName="pixel.1" x="0" y="128" flags="0x0"/>
      <component glyphName="pixel.1" x="384" y="128" flags="0x0"/>
      <component glyphName="pixel.2" x="768" y="128" flags="0x0"/>
      <component glyphName="pixel.4" x="0" y="256" flags="0x0"/>
      <component glyphName="pixel.2" x="768" y="256" flags="0x0"/>
      <component glyphName="pixel.4" x="0" y="384" flags="0x0"/>
      <component glyphName="pixel.2" x="768" y="384" flags="0x0"/>
      <component glyphName="pixel.4" x="0" y="512" flags="0x0"/>
      <component glyphName="pixel.2" x="768" y="512" flags="0x0"/>
      <component glyphName="pixel.4" x="0" y="640" flags="0x0"/>
      <component glyphName="pixel.2" x="768" y="640" flags="0x0"/>
      <component glyphName="pixel.3" x="0" y="768" flags="0x0"/>
      <component glyphName="pixel.1" x="896" y="768" flags="0x0"/>
    </TTGlyph>
    <TTGlyph name="uniE01F" xMin="-5" yMin="-74" xMax="1029" yMax="842">
      <component glyphName="pixel.8" x="0" y="-128" flags="0x200"/>
      <component glyphName="pixel.1" x="0" y="0" flags="0x0"/>
      <component glyphName="pixel.2" x="384" y="0" flags="0x0"/>
      <component glyphName="pixel.1" x="896" y="0" flags="0x0"/>
      <component glyphName="pixel.1" x="0" y="128" flags="0x0"/>
      <component glyphName="pixel.1" x="384" y="128" flags="0x0"/>
      <component glyphName="pixel.2" x="768" y="128" flags="0x0"/>
      <component glyphName="pixel.1" x="0" y="256" flags="0x0"/>
      <component glyphName="pixel.3" x="640" y="256" flags="0x0"/>
      <component glyphName="pixel.1" x="0" y="384" flags="0x0"/>
      <component glyphName="pixel.4" x="512" y="384" flags="0x0"/>
      <component glyphName="pixel.1" x="0" y="512" flags="0x0"/>
      <component glyphName="pixel.3" x="640" y="512" flags="0x0"/>
      <component glyphName="pixel.1" x="0" y="640" flags="0x0"/>
      <component glyphName="pixel.1" x="384" y="640" flags="0x0"/>
      <component glyphName="pixel.2" x="768" y="640" flags="0x0"/>
      <component glyphName="pixel.1" x="0" y="768" flags="0x0"/>
      <component glyphName="pixel.2" x="384" y="768" flags="0x0"/>
      <component glyphName="pixel.1" x="896" y="768" flags="0x0"/>
    </TTGlyph>
    <TTGlyph name="uniE020" xMin="-5" yMin="-74" xMax="1029" yMax="842">
      <component glyphName="pixel.8" x="0" y="-128" flags="0x200"/>
      <component glyphName="pixel.1" x="0" y="0" flags="0x0"/>
      <component glyphName="pixel.1" x="896" y="0" flags="0x0"/>
      <component glyphName="pixel.1" x="0" y="128" flags="0x0"/>
      <component glyphName="pixel.5" x="384" y="128" flags="0x0"/>
      <component glyphName="pixel.1" x="0" y="256" flags="0x0"/>
      <component glyphName="pixel.5" x="384" y="256" flags="0x0"/>
      <component glyphName="pixel.1" x="0" y="384" flags="0x0"/>
      <component glyphName="pixel.5" x="384" y="384" flags="0x0"/>
      <component glyphName="pixel.1" x="0" y="512" flags="0x0"/>
      <component glyphName="pixel.5" x="384" y="512" flags="0x0"/>
      <component glyphName="pixel.1" x="0" y="640" flags="0x0"/>
      <component glyphName="pixel.5" x="384" y="640" flags="0x0"/>
      <component glyphName="pixel.1" x="0" y="768" flags="0x0"/>
      <component glyphName="pixel.5" x="384" y="768" flags="0x0"/>
    </TTGlyph>
    <TTGlyph name="uniE021" xMin="-5" yMin="-74" xMax="1029" yMax="842">
      <component glyphName="pixel.8" x="0" y="-128" flags="0x200"/>
      <component glyphName="pixel.1" x="0" y="0" flags="0x0"/>
      <component glyphName="pixel.3" x="384" y="0" flags="0x0"/>
      <component glyphName="pixel.1" x="0" y="128" flags="0x0"/>
      <component glyphName="pixel.3" x="384" y="128" flags="0x0"/>
      <component glyphName="pixel.1" x="0" y="256" flags="0x0"/>
      <component glyphName="pixel.3" x="384" y="256" flags="0x0"/>
      <component glyphName="pixel.1" x="0" y="384" flags="0x0"/>
      <component glyphName="pixel.1" x="384" y="384" flags="0x0"/>
      <component glyphName="pixel.1" x="640" y="384" flags="0x0"/>
      <component glyphName="pixel.1" x="0" y="512" flags="0x0"/>
      <component glyphName="pixel.1" x="0" y="640" flags="0x0"/>
      <component glyphName="pixel.1" x="512" y="640" flags="0x0"/>
      <component glyphName="pixel.1" x="0" y="768" flags="0x0"/>
      <component glyphName="pixel.3" x="384" y="768" flags="0x0"/>
    </TTGlyph>
    <TTGlyph name="uniE022" xMin="-5" yMin="-74" xMax="1029" yMax="842">
      <component glyphName="pixel.8" x="0" y="-128" flags="0x200"/>
      <component glyphName="pixel.1" x="0" y="0" flags="0x0"/>
      <component glyphName="pixel.2" x="384" y="0" flags="0x0"/>
      <component glyphName="pixel.1" x="896" y="0" flags="0x0"/>
      <component glyphName="pixel.1" x="0" y="128" flags="0x0"/>
      <component glyphName="pixel.2" x="384" y="128" flags="0x0"/>
      <component glyphName="pixel.1" x="896" y="128" flags="0x0"/>
      <component glyphName="pixel.1" x="0" y="256" flags="0x0"/>
      <component glyphName="pixel.2" x="384" y="256" flags="0x0"/>
      <component glyphName="pixel.1" x="896" y="256" flags="0x0"/>
      <component glyphName="pixel.1" x="0" y="384" flags="0x0"/>
      <component glyphName="pixel.1" x="384" y="384" flags="0x0"/>
      <component glyphName="pixel.1" x="896" y="384" flags="0x0"/>
      <component glyphName="pixel.1" x="0" y="512" flags="0x0"/>
      <component glyphName="pixel.1" x="896" y="512" flags="0x0"/>
      <component glyphName="pixel.1" x="0" y="640" flags="0x0"/>
      <component glyphName="pixel.1" x="512" y="640" flags="0x0"/>
      <component glyphName="pixel.1" x="896" y="640" flags="0x0"/>
      <component glyphName="pixel.1" x="0" y="768" flags="0x0"/>
      <component glyphName="pixel.2" x="384" y="768" flags="0x0"/>
      <component glyphName="pixel.1" x="896" y="768" flags="0x0"/>
    </TTGlyph>
    <TTGlyph name="uniE023" xMin="-5" yMin="-74" xMax="1029" yMax="842">
      <component glyphName="pixel.8" x="0" y="-128" flags="0x200"/>
      <component glyphName="pixel.2" x="0" y="0" flags="0x0"/>
      <component glyphName="pixel.2" x="768" y="0" flags="0x0"/>
      <component glyphName="pixel.1" x="0" y="128" flags="0x0"/>
      <component glyphName="pixel.2" x="384" y="128" flags="0x0"/>
      <component glyphName="pixel.1" x="896" y="128" flags="0x0"/>
      <component glyphName="pixel.1" x="0" y="256" flags="0x0"/>
      <component glyphName="pixel.2" x="384" y="256" flags="0x0"/>
      <component glyphName="pixel.1" x="896" y="256" flags="0x0"/>
      <component glyphName="pixel.1" x="0" y="384" flags="0x0"/>
      <component glyphName="pixel.2" x="384" y="384" flags="0x0"/>
      <component glyphName="pixel.1" x="896" y="384" flags="0x0"/>
      <component glyphName="pixel.1" x="0" y="512" flags="0x0"/>
      <component glyphName="pixel.2" x="384" y="512" flags="0x0"/>
      <component glyphName="pixel.1" x="896" y="512" flags="0x0"/>
      <component glyphName="pixel.1" x="0" y="640" flags="0x0"/>
      <component glyphName="pixel.2" x="384" y="640" flags="0x0"/>
      <component glyphName="pixel.1" x="896" y="640" flags="0x0"/>
      <component glyphName="pixel.2" x="0" y="768" flags="0x0"/>
      <component glyphName="pixel.2" x="768" y="768" flags="0x0"/>
    </TTGlyph>
    <TTGlyph name="uniE024" xMin="-5" yMin="-74" xMax="1029" yMax="842">
      <component glyphName="pixel.8" x="0" y="-128" flags="0x200"/>
      <component glyphName="pixel.1" x="0" y="0" flags="0x0"/>
      <component glyphName="pixel.5" x="384" y="0" flags="0x0"/>
      <component glyphName="pixel.1" x="0" y="128" flags="0x0"/>
      <component glyphName="pixel.5" x="384" y="128" flags="0x0"/>
      <component glyphName="pixel.1" x="0" y="256" flags="0x0"/>
      <component glyphName="pixel.5" x="384" y="256" flags="0x0"/>
      <component glyphName="pixel.1" x="0" y="384" flags="0x0"/>
      <component glyphName="pixel.2" x="768" y="384" flags="0x0"/>
      <component glyphName="pixel.1" x="0" y="512" flags="0x0"/>
      <component glyphName="pixel.2" x="384" y="512" flags="0x0"/>
      <component glyphName="pixel.1" x="896" y="512" flags="0x0"/>
      <component glyphName="pixel.1" x="0" y="640" flags="0x0"/>
      <component glyphName="pixel.2" x="384" y="640" flags="0x0"/>
      <component glyphName="pixel.1" x="896" y="640" flags="0x0"/>
      <component glyphName="pixel.1" x="0" y="768" flags="0x0"/>
      <component glyphName="pixel.2" x="768" y="768" flags="0x0"/>
    </TTGlyph>
    <TTGlyph name="uniE025" xMin="-5" yMin="-74" xMax="1029" yMax="842">
      <component glyphName="pixel.8" x="0" y="-128" flags="0x200"/>
      <component glyphName="pixel.4" x="0" y="0" flags="0x0"/>
      <component glyphName="pixel.1" x="896" y="0" flags="0x0"/>
      <component glyphName="pixel.2" x="0" y="128" flags="0x0"/>
      <component glyphName="pixel.2" x="768" y="128" flags="0x0"/>
      <component glyphName="pixel.1" x="0" y="256" flags="0x0"/>
      <component glyphName="pixel.2" x="384" y="256" flags="0x0"/>
      <component glyphName="pixel.1" x="896" y="256" flags="0x0"/>
      <component glyphName="pixel.1" x="0" y="384" flags="0x0"/>
      <component glyphName="pixel.2" x="384" y="384" flags="0x0"/>
      <component glyphName="pixel.1" x="896" y="384" flags="0x0"/>
      <component glyphName="pixel.1" x="0" y="512" flags="0x0"/>
      <component glyphName="pixel.2" x="384" y="512" flags="0x0"/>
      <component glyphName="pixel.1" x="896" y="512" flags="0x0"/>
      <component glyphName="pixel.1" x="0" y="640" flags="0x0"/>
      <component glyphName="pixel.2" x="384" y="640" flags="0x0"/>
      <component glyphName="pixel.1" x="896" y="640" flags="0x0"/>
      <component glyphName="pixel.2" x="0" y="768" flags="0x0"/>
      <component glyphName="pixel.2" x="768" y="768" flags="0x0"/>
    </TTGlyph>
    <TTGlyph name="uniE026" xMin="-5" yMin="-74" xMax="1029" yMax="842">
      <component glyphName="pixel.8" x="0" y="-128" flags="0x200"/>
      <component glyphName="pixel.1" x="0" y="0" flags="0x0"/>
      <component glyphName="pixel.2" x="384" y="0" flags="0x0"/>
      <component glyphName="pixel.1" x="896" y="0" flags="0x0"/>
      <component glyphName="pixel.1" x="0" y="128" flags="0x0"/>
      <component glyphName="pixel.1" x="384" y="128" flags="0x0"/>
      <component glyphName="pixel.2" x="768" y="128" flags="0x0"/>
      <component glyphName="pixel.1" x="0" y="256" flags="0x0"/>
      <component glyphName="pixel.3" x="640" y="256" flags="0x0"/>
      <component glyphName="pixel.1" x="0" y="384" flags="0x0"/>
      <component glyphName="pixel.2" x="768" y="384" flags="0x0"/>
      <component glyphName="pixel.1" x="0" y="512" flags="0x0"/>
      <component glyphName="pixel.2" x="384" y="512" flags="0x0"/>
      <component glyphName="pixel.1" x="896" y="512" flags="0x0"/>
      <component glyphName="pixel.1" x="0" y="640" flags="0x0"/>
      <component glyphName="pixel.2" x="384" y="640" flags="0x0"/>
      <component glyphName="pixel.1" x="896" y="640" flags="0x0"/>
      <component glyphName="pixel.1" x="0" y="768" flags="0x0"/>
      <component glyphName="pixel.2" x="768" y="768" flags="0x0"/>
    </TTGlyph>
    <TTGlyph name="uniE027" xMin="-5" yMin="-74" xMax="1029" yMax="842">
      <component glyphName="pixel.8" x="0" y="-128" flags="0x200"/>
      <component glyphName="pixel.2" x="0" y="0" flags="0x0"/>
      <component glyphName="pixel.2" x="768" y="0" flags="0x0"/>
      <component glyphName="pixel.1" x="0" y="128" flags="0x0"/>
      <component glyphName="pixel.2" x="384" y="128" flags="0x0"/>
      <component glyphName="pixel.1" x="896" y="128" flags="0x0"/>
      <component glyphName="pixel.5" x="0" y="256" flags="0x0"/>
      <component glyphName="pixel.1" x="896" y="256" flags="0x0"/>
      <component glyphName="pixel.2" x="0" y="384" flags="0x0"/>
      <component glyphName="pixel.2" x="768" y="384" flags="0x0"/>
      <component glyphName="pixel.1" x="0" y="512" flags="0x0"/>
      <component glyphName="pixel.5" x="384" y="512" flags="0x0"/>
      <component glyphName="pixel.1" x="0" y="640" flags="0x0"/>
      <component glyphName="pixel.2" x="384" y="640" flags="0x0"/>
      <component glyphName="pixel.1" x="896" y="640" flags="0x0"/>
      <component glyphName="pixel.2" x="0" y="768" flags="0x0"/>
      <component glyphName="pixel.2" x="768" y="768" flags="0x0"/>
    </TTGlyph>
    <TTGlyph name="uniE028" xMin="-5" yMin="-74" xMax="1029" yMax="842">
      <component glyphName="pixel.8" x="0" y="-128" flags="0x200"/>
      <component glyphName="pixel.3" x="0" y="0" flags="0x0"/>
      <component glyphName="pixel.3" x="640" y="0" flags="0x0"/>
      <component glyphName="pixel.3" x="0" y="128" flags="0x0"/>
      <component glyphName="pixel.3" x="640" y="128" flags="0x0"/>
      <component glyphName="pixel.3" x="0" y="256" flags="0x0"/>
      <component glyphName="pixel.3" x="640" y="256" flags="0x0"/>
      <component glyphName="pixel.3" x="0" y="384" flags="0x0"/>
      <component glyphName="pixel.3" x="640" y="384" flags="0x0"/>
      <component glyphName="pixel.3" x="0" y="512" flags="0x0"/>
      <component glyphName="pixel.3" x="640" y="512" flags="0x0"/>
      <component glyphName="pixel.3" x="0" y="640" flags="0x0"/>
      <component glyphName="pixel.3" x="640" y="640" flags="0x0"/>
      <component glyphName="pixel.1" x="0" y="768" flags="0x0"/>
      <component glyphName="pixel.1" x="896" y="768" flags="0x0"/>
    </TTGlyph>
    <TTGlyph name="uniE029" xMin="-5" yMin="-74" xMax="1029" yMax="842">
      <component glyphName="pixel.8" x="0" y="-128" flags="0x200"/>
      <component glyphName="pixel.2" x="0" y="0" flags="0x0"/>
      <component glyphName="pixel.2" x="768" y="0" flags="0x0"/>
      <component glyphName="pixel.1" x="0" y="128" flags="0x0"/>
      <component glyphName="pixel.2" x="384" y="128" flags="0x0"/>
      <component glyphName="pixel.1" x="896" y="128" flags="0x0"/>
      <component glyphName="pixel.1" x="0" y="256" flags="0x0"/>
      <component glyphName="pixel.2" x="384" y="256" flags="0x0"/>
      <component glyphName="pixel.1" x="896" y="256" flags="0x0"/>
      <component glyphName="pixel.1" x="0" y="384" flags="0x0"/>
      <component glyphName="pixel.2" x="384" y="384" flags="0x0"/>
      <component glyphName="pixel.1" x="896" y="384" flags="0x0"/>
      <component glyphName="pixel.1" x="0" y="512" flags="0x0"/>
      <component glyphName="pixel.2" x="384" y="512" flags="0x0"/>
      <component glyphName="pixel.1" x="896" y="512" flags="0x0"/>
      <component glyphName="pixel.1" x="0" y="640" flags="0x0"/>
      <component glyphName="pixel.2" x="384" y="640" flags="0x0"/>
      <component glyphName="pixel.1" x="896" y="640" flags="0x0"/>
      <component glyphName="pixel.1" x="0" y="768" flags="0x0"/>
      <component glyphName="pixel.2" x="384" y="768" flags="0x0"/>
      <component glyphName="pixel.1" x="896" y="768" flags="0x0"/>
    </TTGlyph>
    <TTGlyph name="uniE02A" xMin="-5" yMin="-74" xMax="1029" yMax="842">
      <component glyphName="pixel.8" x="0" y="-128" flags="0x200"/>
      <component glyphName="pixel.3" x="0" y="0" flags="0x0"/>
      <component glyphName="pixel.3" x="640" y="0" flags="0x0"/>
      <component glyphName="pixel.2" x="0" y="128" flags="0x0"/>
      <component glyphName="pixel.2" x="768" y="128" flags="0x0"/>
      <component glyphName="pixel.1" x="0" y="256" flags="0x0"/>
      <component glyphName="pixel.2" x="384" y="256" flags="0x0"/>
      <component glyphName="pixel.1" x="896" y="256" flags="0x0"/>
      <component glyphName="pixel.1" x="0" y="384" flags="0x0"/>
      <component glyphName="pixel.2" x="384" y="384" flags="0x0"/>
      <component glyphName="pixel.1" x="896" y="384" flags="0x0"/>
      <component glyphName="pixel.1" x="0" y="512" flags="0x0"/>
      <component glyphName="pixel.2" x="384" y="512" flags="0x0"/>
      <component glyphName="pixel.1" x="896" y="512" flags="0x0"/>
      <component glyphName="pixel.1" x="0" y="640" flags="0x0"/>
      <component glyphName="pixel.2" x="384" y="640" flags="0x0"/>
      <component glyphName="pixel.1" x="896" y="640" flags="0x0"/>
      <component glyphName="pixel.1" x="0" y="768" flags="0x0"/>
      <component glyphName="pixel.2" x="384" y="768" flags="0x0"/>
      <component glyphName="pixel.1" x="896" y="768" flags="0x0"/>
    </TTGlyph>
    <TTGlyph name="uniE02B" xMin="-5" yMin="-74" xMax="1029" yMax="842">
      <component glyphName="pixel.8" x="0" y="-128" flags="0x200"/>
      <component glyphName="pixel.1" x="0" y="0" flags="0x0"/>
      <component glyphName="pixel.3" x="384" y="0" flags="0x0"/>
      <component glyphName="pixel.1" x="0" y="128" flags="0x0"/>
      <component glyphName="pixel.1" x="512" y="128" flags="0x0"/>
      <component glyphName="pixel.1" x="0" y="256" flags="0x0"/>
      <component glyphName="pixel.1" x="0" y="384" flags="0x0"/>
      <component glyphName="pixel.1" x="384" y="384" flags="0x0"/>
      <component glyphName="pixel.1" x="640" y="384" flags="0x0"/>
      <component glyphName="pixel.1" x="0" y="512" flags="0x0"/>
      <component glyphName="pixel.3" x="384" y="512" flags="0x0"/>
      <component glyphName="pixel.1" x="0" y="640" flags="0x0"/>
      <component glyphName="pixel.3" x="384" y="640" flags="0x0"/>
      <component glyphName="pixel.1" x="0" y="768" flags="0x0"/>
      <component glyphName="pixel.3" x="384" y="768" flags="0x0"/>
    </TTGlyph>
    <TTGlyph name="uniE02C" xMin="-5" yMin="-74" xMax="1029" yMax="842">
      <component glyphName="pixel.8" x="0" y="-128" flags="0x200"/>
      <component glyphName="pixel.1" x="0" y="0" flags="0x0"/>
      <component glyphName="pixel.2" x="384" y="0" flags="0x0"/>
      <component glyphName="pixel.1" x="896" y="0" flags="0x0"/>
      <component glyphName="pixel.1" x="0" y="128" flags="0x0"/>
      <component glyphName="pixel.2" x="384" y="128" flags="0x0"/>
      <component glyphName="pixel.1" x="896" y="128" flags="0x0"/>
      <component glyphName="pixel.2" x="0" y="256" flags="0x0"/>
      <component glyphName="pixel.2" x="768" y="256" flags="0x0"/>
      <component glyphName="pixel.3" x="0" y="384" flags="0x0"/>
      <component glyphName="pixel.3" x="640" y="384" flags="0x0"/>
      <component glyphName="pixel.2" x="0" y="512" flags="0x0"/>
      <component glyphName="pixel.2" x="768" y="512" flags="0x0"/>
      <component glyphName="pixel.1" x="0" y="640" flags="0x0"/>
      <component glyphName="pixel.2" x="384" y="640" flags="0x0"/>
      <component glyphName="pixel.1" x="896" y="640" flags="0x0"/>
      <component glyphName="pixel.1" x="0" y="768" flags="0x0"/>
      <component glyphName="pixel.2" x="384" y="768" flags="0x0"/>
      <component glyphName="pixel.1" x="896" y="768" flags="0x0"/>
    </TTGlyph>
    <TTGlyph name="uniE02D" xMin="-5" yMin="-74" xMax="1029" yMax="842">
      <component glyphName="pixel.8" x="0" y="-128" flags="0x200"/>
      <component glyphName="pixel.3" x="0" y="0" flags="0x0"/>
      <component glyphName="pixel.3" x="640" y="0" flags="0x0"/>
      <component glyphName="pixel.3" x="0" y="128" flags="0x0"/>
      <component glyphName="pixel.3" x="640" y="128" flags="0x0"/>
      <component glyphName="pixel.3" x="0" y="256" flags="0x0"/>
      <component glyphName="pixel.3" x="640" y="256" flags="0x0"/>
      <component glyphName="pixel.2" x="0" y="384" flags="0x0"/>
      <component glyphName="pixel.2" x="768" y="384" flags="0x0"/>
      <component glyphName="pixel.1" x="0" y="512" flags="0x0"/>
      <component glyphName="pixel.2" x="384" y="512" flags="0x0"/>
      <component glyphName="pixel.1" x="896" y="512" flags="0x0"/>
      <component glyphName="pixel.1" x="0" y="640" flags="0x0"/>
      <component glyphName="pixel.2" x="384" y="640" flags="0x0"/>
      <component glyphName="pixel.1" x="896" y="640" flags="0x0"/>
      <component glyphName="pixel.1" x="0" y="768" flags="0x0"/>
      <component glyphName="pixel.2" x="384" y="768" flags="0x0"/>
      <component glyphName="pixel.1" x="896" y="768" flags="0x0"/>
    </TTGlyph>
    <TTGlyph name="uniE02E" xMin="-5" yMin="-74" xMax="1029" yMax="842">
      <component glyphName="pixel.8" x="0" y="-128" flags="0x200"/>
      <component glyphName="pixel.1" x="0" y="0" flags="0x0"/>
      <component glyphName="pixel.1" x="896" y="0" flags="0x0"/>
      <component glyphName="pixel.1" x="0" y="128" flags="0x0"/>
      <component glyphName="pixel.5" x="384" y="128" flags="0x0"/>
      <component glyphName="pixel.2" x="0" y="256" flags="0x0"/>
      <component glyphName="pixel.4" x="512" y="256" flags="0x0"/>
      <component glyphName="pixel.3" x="0" y="384" flags="0x0"/>
      <component glyphName="pixel.3" x="640" y="384" flags="0x0"/>
      <component glyphName="pixel.4" x="0" y="512" flags="0x0"/>
      <component glyphName="pixel.2" x="768" y="512" flags="0x0"/>
      <component glyphName="pixel.5" x="0" y="640" flags="0x0"/>
      <component glyphName="pixel.1" x="896" y="640" flags="0x0"/>
      <component glyphName="pixel.1" x="0" y="768" flags="0x0"/>
      <component glyphName="pixel.1" x="896" y="768" flags="0x0"/>
    </TTGlyph>
</ttFont>
